<?xml version="1.0" encoding="UTF-8" standalone="no"?>
<!DOCTYPE svg PUBLIC "-//W3C//DTD SVG 1.1//EN" "http://www.w3.org/Graphics/SVG/1.1/DTD/svg11.dtd">
<svg width="55px" height="44px" version="1.1" xmlns="http://www.w3.org/2000/svg" xmlns:xlink="http://www.w3.org/1999/xlink" xml:space="preserve" xmlns:serif="http://www.serif.com/" style="fill-rule:evenodd;clip-rule:evenodd;stroke-linejoin:round;stroke-miterlimit:2;">
    <g transform="matrix(1,0,0,1,-466.93,-860.99)">
        <g transform="matrix(1,0,0,1,-54,-40.9135)">
            <g transform="matrix(103.725,0,0,64,518.955,945.217)">
                <path d="M0.516,-0.557C0.516,-0.536 0.511,-0.517 0.502,-0.501C0.493,-0.485 0.482,-0.475 0.47,-0.472C0.464,-0.47 0.454,-0.469 0.441,-0.469C0.453,-0.471 0.465,-0.48 0.478,-0.498C0.49,-0.516 0.496,-0.536 0.496,-0.558C0.496,-0.58 0.489,-0.599 0.476,-0.615C0.463,-0.632 0.444,-0.646 0.42,-0.658C0.396,-0.67 0.369,-0.676 0.341,-0.676C0.383,-0.68 0.419,-0.672 0.45,-0.653C0.494,-0.624 0.516,-0.592 0.516,-0.557ZM0.434,-0.57L0.452,-0.572L0.456,-0.572L0.453,-0.583C0.447,-0.582 0.443,-0.582 0.441,-0.583C0.439,-0.584 0.436,-0.584 0.43,-0.583C0.424,-0.583 0.42,-0.582 0.419,-0.583C0.418,-0.583 0.417,-0.585 0.417,-0.588C0.418,-0.591 0.419,-0.594 0.42,-0.596C0.421,-0.601 0.425,-0.602 0.431,-0.601C0.437,-0.6 0.441,-0.599 0.445,-0.599C0.438,-0.609 0.43,-0.617 0.418,-0.623C0.407,-0.629 0.4,-0.632 0.396,-0.632C0.393,-0.631 0.393,-0.628 0.395,-0.625C0.396,-0.623 0.398,-0.617 0.4,-0.607C0.403,-0.598 0.403,-0.591 0.402,-0.586C0.401,-0.582 0.397,-0.574 0.392,-0.565C0.386,-0.556 0.383,-0.545 0.383,-0.534C0.383,-0.523 0.386,-0.515 0.392,-0.509C0.397,-0.503 0.407,-0.5 0.419,-0.5C0.432,-0.5 0.441,-0.506 0.447,-0.518C0.437,-0.514 0.431,-0.513 0.429,-0.515C0.427,-0.516 0.423,-0.516 0.417,-0.515C0.411,-0.514 0.408,-0.513 0.407,-0.513C0.402,-0.514 0.402,-0.52 0.407,-0.531C0.409,-0.536 0.414,-0.538 0.424,-0.535C0.434,-0.533 0.443,-0.533 0.453,-0.535L0.455,-0.549L0.43,-0.546C0.423,-0.545 0.418,-0.546 0.415,-0.55C0.412,-0.555 0.415,-0.561 0.423,-0.569C0.424,-0.569 0.428,-0.57 0.434,-0.57ZM0.2,-0.459C0.203,-0.465 0.209,-0.474 0.218,-0.487C0.226,-0.5 0.23,-0.509 0.23,-0.516C0.23,-0.523 0.238,-0.539 0.255,-0.564C0.256,-0.566 0.258,-0.572 0.261,-0.582C0.264,-0.592 0.269,-0.6 0.275,-0.605C0.282,-0.611 0.287,-0.614 0.29,-0.615C0.292,-0.617 0.295,-0.618 0.296,-0.618C0.297,-0.619 0.301,-0.619 0.307,-0.619L0.331,-0.619C0.313,-0.617 0.303,-0.614 0.301,-0.611C0.298,-0.609 0.296,-0.606 0.294,-0.604C0.293,-0.601 0.29,-0.598 0.287,-0.595C0.283,-0.591 0.281,-0.586 0.279,-0.579C0.278,-0.571 0.276,-0.566 0.274,-0.563C0.271,-0.559 0.267,-0.551 0.26,-0.539C0.253,-0.526 0.25,-0.517 0.25,-0.512C0.25,-0.507 0.246,-0.498 0.237,-0.486C0.229,-0.474 0.223,-0.465 0.22,-0.459C0.217,-0.453 0.212,-0.432 0.206,-0.397C0.205,-0.397 0.205,-0.397 0.204,-0.396C0.203,-0.395 0.201,-0.394 0.197,-0.391C0.193,-0.388 0.189,-0.383 0.185,-0.376C0.185,-0.386 0.187,-0.401 0.19,-0.421C0.194,-0.441 0.197,-0.454 0.2,-0.459ZM0.306,-0.05L0.293,-0.048C0.291,-0.048 0.288,-0.049 0.284,-0.051C0.28,-0.053 0.27,-0.057 0.252,-0.064C0.235,-0.072 0.224,-0.078 0.22,-0.085C0.196,-0.114 0.183,-0.141 0.18,-0.164C0.175,-0.208 0.175,-0.239 0.178,-0.258C0.182,-0.277 0.192,-0.297 0.208,-0.319C0.225,-0.341 0.24,-0.357 0.255,-0.366C0.261,-0.369 0.273,-0.371 0.291,-0.371C0.271,-0.365 0.248,-0.346 0.223,-0.312C0.21,-0.295 0.202,-0.276 0.198,-0.255C0.194,-0.234 0.195,-0.203 0.2,-0.163C0.203,-0.14 0.216,-0.114 0.24,-0.085C0.245,-0.078 0.257,-0.071 0.273,-0.064C0.29,-0.057 0.301,-0.053 0.306,-0.05ZM0.54,-0.284C0.54,-0.221 0.536,-0.179 0.527,-0.156C0.526,-0.153 0.523,-0.144 0.518,-0.131C0.514,-0.118 0.508,-0.109 0.503,-0.104C0.498,-0.1 0.488,-0.09 0.475,-0.076C0.435,-0.033 0.404,-0.011 0.38,-0.009C0.379,-0.009 0.372,-0.007 0.358,-0.002C0.345,0.003 0.332,0.005 0.321,0.005C0.321,0.005 0.327,0.003 0.338,-0.001C0.349,-0.005 0.356,-0.008 0.359,-0.012C0.362,-0.015 0.367,-0.016 0.373,-0.017C0.38,-0.017 0.389,-0.02 0.4,-0.026C0.412,-0.032 0.42,-0.038 0.425,-0.045C0.429,-0.051 0.436,-0.059 0.445,-0.067C0.454,-0.076 0.46,-0.081 0.462,-0.084C0.465,-0.087 0.467,-0.09 0.469,-0.096C0.471,-0.101 0.474,-0.105 0.478,-0.109C0.489,-0.118 0.498,-0.133 0.507,-0.156C0.515,-0.179 0.52,-0.222 0.52,-0.284C0.52,-0.317 0.508,-0.348 0.485,-0.376C0.473,-0.389 0.459,-0.4 0.441,-0.409C0.423,-0.418 0.409,-0.426 0.397,-0.432C0.386,-0.438 0.376,-0.441 0.367,-0.441C0.396,-0.441 0.417,-0.437 0.429,-0.428C0.434,-0.425 0.446,-0.418 0.465,-0.407C0.515,-0.378 0.54,-0.337 0.54,-0.284ZM0.453,-0.291C0.442,-0.29 0.436,-0.289 0.434,-0.289C0.431,-0.289 0.429,-0.294 0.427,-0.303C0.425,-0.306 0.427,-0.308 0.434,-0.31C0.443,-0.311 0.457,-0.312 0.475,-0.312C0.473,-0.319 0.471,-0.324 0.468,-0.328L0.431,-0.328C0.422,-0.328 0.417,-0.33 0.414,-0.333C0.411,-0.336 0.41,-0.339 0.412,-0.342C0.415,-0.349 0.43,-0.352 0.455,-0.352C0.451,-0.359 0.444,-0.364 0.434,-0.369C0.43,-0.367 0.419,-0.366 0.402,-0.366C0.399,-0.366 0.394,-0.369 0.389,-0.374C0.384,-0.379 0.387,-0.384 0.399,-0.388C0.401,-0.388 0.402,-0.389 0.403,-0.389C0.398,-0.394 0.387,-0.396 0.37,-0.396C0.353,-0.396 0.342,-0.395 0.337,-0.393C0.345,-0.391 0.355,-0.383 0.367,-0.37C0.379,-0.357 0.387,-0.347 0.389,-0.339C0.392,-0.331 0.399,-0.317 0.411,-0.295C0.422,-0.274 0.428,-0.253 0.428,-0.23C0.428,-0.208 0.425,-0.179 0.419,-0.142C0.413,-0.105 0.41,-0.086 0.41,-0.083C0.412,-0.082 0.427,-0.096 0.453,-0.126L0.452,-0.126C0.438,-0.126 0.43,-0.128 0.43,-0.132C0.43,-0.141 0.434,-0.146 0.442,-0.148L0.467,-0.147C0.47,-0.156 0.472,-0.162 0.473,-0.164C0.47,-0.165 0.465,-0.165 0.459,-0.165C0.453,-0.165 0.45,-0.165 0.448,-0.164C0.447,-0.163 0.445,-0.164 0.444,-0.166C0.441,-0.169 0.44,-0.174 0.442,-0.178C0.444,-0.183 0.446,-0.186 0.45,-0.187C0.453,-0.188 0.456,-0.188 0.458,-0.189C0.46,-0.19 0.467,-0.19 0.479,-0.19C0.48,-0.193 0.482,-0.2 0.485,-0.209L0.452,-0.208C0.451,-0.208 0.45,-0.21 0.45,-0.215C0.451,-0.22 0.452,-0.223 0.453,-0.225C0.458,-0.232 0.47,-0.232 0.489,-0.227C0.49,-0.23 0.49,-0.239 0.488,-0.252L0.467,-0.249C0.457,-0.248 0.451,-0.248 0.448,-0.25C0.446,-0.251 0.445,-0.255 0.447,-0.261C0.449,-0.267 0.451,-0.269 0.453,-0.269L0.485,-0.271L0.481,-0.29C0.476,-0.29 0.473,-0.29 0.472,-0.291C0.47,-0.292 0.464,-0.292 0.453,-0.291ZM0.13,-0.19L0.136,-0.19L0.133,-0.209C0.116,-0.209 0.106,-0.209 0.103,-0.208L0.084,-0.208C0.082,-0.208 0.082,-0.21 0.082,-0.215C0.083,-0.22 0.084,-0.224 0.086,-0.227C0.088,-0.229 0.094,-0.23 0.104,-0.228C0.113,-0.226 0.122,-0.226 0.13,-0.228C0.129,-0.233 0.129,-0.241 0.129,-0.252C0.128,-0.252 0.121,-0.251 0.109,-0.25C0.098,-0.248 0.09,-0.248 0.088,-0.25C0.085,-0.251 0.085,-0.254 0.088,-0.259C0.09,-0.264 0.093,-0.267 0.095,-0.268C0.105,-0.27 0.117,-0.271 0.131,-0.271L0.133,-0.29C0.125,-0.289 0.119,-0.289 0.115,-0.29C0.111,-0.291 0.106,-0.292 0.101,-0.291C0.096,-0.29 0.092,-0.289 0.09,-0.289C0.087,-0.289 0.085,-0.294 0.083,-0.303C0.08,-0.309 0.091,-0.312 0.118,-0.312C0.128,-0.312 0.133,-0.312 0.135,-0.313L0.135,-0.329C0.133,-0.328 0.126,-0.328 0.113,-0.328C0.101,-0.328 0.093,-0.33 0.09,-0.333C0.087,-0.336 0.087,-0.339 0.088,-0.342C0.09,-0.345 0.092,-0.347 0.095,-0.348C0.109,-0.351 0.118,-0.352 0.122,-0.352C0.127,-0.352 0.131,-0.352 0.136,-0.353L0.136,-0.358C0.137,-0.361 0.137,-0.364 0.137,-0.367C0.132,-0.367 0.123,-0.366 0.111,-0.366C0.11,-0.366 0.107,-0.369 0.102,-0.375C0.096,-0.38 0.097,-0.384 0.104,-0.386C0.111,-0.389 0.118,-0.39 0.126,-0.392C0.133,-0.393 0.138,-0.393 0.141,-0.394L0.145,-0.409C0.141,-0.409 0.135,-0.408 0.126,-0.408C0.118,-0.408 0.112,-0.41 0.11,-0.414C0.107,-0.417 0.108,-0.421 0.111,-0.424C0.118,-0.431 0.131,-0.434 0.152,-0.434L0.154,-0.439L0.157,-0.451L0.131,-0.451C0.127,-0.451 0.125,-0.455 0.125,-0.464C0.125,-0.467 0.131,-0.469 0.142,-0.469C0.153,-0.469 0.16,-0.469 0.164,-0.47L0.173,-0.492L0.17,-0.492C0.167,-0.492 0.162,-0.492 0.155,-0.494C0.149,-0.495 0.145,-0.497 0.144,-0.5C0.142,-0.502 0.145,-0.507 0.153,-0.515C0.154,-0.516 0.159,-0.517 0.167,-0.517C0.176,-0.516 0.182,-0.516 0.186,-0.517L0.196,-0.533L0.182,-0.531C0.177,-0.532 0.177,-0.538 0.182,-0.549C0.183,-0.554 0.187,-0.556 0.193,-0.555C0.2,-0.553 0.204,-0.553 0.206,-0.553C0.214,-0.568 0.218,-0.579 0.218,-0.589L0.19,-0.578C0.178,-0.574 0.159,-0.553 0.132,-0.516C0.127,-0.509 0.121,-0.496 0.112,-0.478C0.103,-0.459 0.098,-0.447 0.096,-0.442C0.094,-0.438 0.088,-0.43 0.078,-0.419C0.069,-0.408 0.064,-0.398 0.064,-0.389C0.064,-0.38 0.062,-0.367 0.059,-0.352C0.055,-0.337 0.053,-0.325 0.053,-0.316L0.053,-0.248C0.053,-0.231 0.059,-0.199 0.07,-0.154C0.07,-0.149 0.081,-0.134 0.103,-0.11C0.124,-0.085 0.133,-0.073 0.132,-0.073C0.136,-0.066 0.148,-0.059 0.169,-0.052C0.19,-0.045 0.2,-0.042 0.2,-0.043C0.2,-0.044 0.198,-0.049 0.194,-0.058L0.19,-0.058C0.181,-0.057 0.174,-0.058 0.169,-0.062C0.167,-0.063 0.166,-0.065 0.167,-0.068C0.167,-0.072 0.168,-0.075 0.169,-0.076C0.171,-0.077 0.175,-0.079 0.181,-0.08C0.174,-0.09 0.17,-0.095 0.17,-0.095L0.169,-0.095C0.161,-0.095 0.153,-0.094 0.143,-0.093C0.141,-0.093 0.14,-0.094 0.139,-0.098C0.138,-0.101 0.138,-0.104 0.138,-0.106C0.139,-0.109 0.146,-0.111 0.159,-0.112C0.156,-0.116 0.153,-0.121 0.151,-0.127L0.148,-0.127L0.117,-0.126C0.109,-0.126 0.105,-0.13 0.105,-0.139C0.105,-0.14 0.111,-0.143 0.124,-0.146L0.145,-0.147L0.145,-0.149L0.141,-0.169L0.13,-0.166C0.123,-0.165 0.118,-0.164 0.115,-0.164L0.09,-0.164C0.087,-0.162 0.085,-0.168 0.085,-0.181C0.085,-0.187 0.1,-0.19 0.13,-0.19ZM0.399,-0.198C0.399,-0.215 0.397,-0.229 0.394,-0.241C0.383,-0.283 0.372,-0.311 0.359,-0.325C0.332,-0.354 0.312,-0.37 0.299,-0.373C0.294,-0.375 0.287,-0.376 0.277,-0.376C0.268,-0.376 0.256,-0.372 0.243,-0.364C0.23,-0.356 0.215,-0.341 0.198,-0.319C0.182,-0.297 0.173,-0.279 0.17,-0.265C0.167,-0.25 0.166,-0.236 0.166,-0.221C0.166,-0.206 0.167,-0.188 0.17,-0.164C0.173,-0.141 0.186,-0.114 0.21,-0.085C0.214,-0.079 0.229,-0.071 0.253,-0.06C0.278,-0.049 0.293,-0.044 0.298,-0.044L0.323,-0.05C0.339,-0.052 0.355,-0.065 0.374,-0.09C0.378,-0.095 0.381,-0.105 0.383,-0.121C0.386,-0.137 0.389,-0.149 0.393,-0.159C0.396,-0.169 0.399,-0.182 0.399,-0.198ZM0.367,-0.489C0.355,-0.5 0.349,-0.512 0.349,-0.523C0.349,-0.534 0.351,-0.546 0.356,-0.557C0.361,-0.569 0.363,-0.576 0.363,-0.578C0.361,-0.611 0.347,-0.627 0.319,-0.627C0.305,-0.627 0.295,-0.626 0.29,-0.624C0.285,-0.621 0.278,-0.616 0.269,-0.608C0.259,-0.601 0.254,-0.592 0.251,-0.582C0.248,-0.572 0.246,-0.566 0.245,-0.564C0.244,-0.562 0.241,-0.557 0.236,-0.549C0.232,-0.542 0.228,-0.535 0.225,-0.529C0.222,-0.523 0.22,-0.518 0.22,-0.514C0.22,-0.507 0.211,-0.49 0.192,-0.463C0.187,-0.455 0.183,-0.441 0.18,-0.421C0.176,-0.401 0.175,-0.386 0.175,-0.376L0.176,-0.349L0.201,-0.379C0.207,-0.385 0.213,-0.389 0.219,-0.39C0.224,-0.391 0.228,-0.392 0.231,-0.393C0.234,-0.394 0.24,-0.399 0.251,-0.407C0.278,-0.426 0.301,-0.435 0.321,-0.435L0.347,-0.438C0.366,-0.438 0.381,-0.436 0.39,-0.431C0.399,-0.425 0.409,-0.42 0.419,-0.416C0.48,-0.386 0.511,-0.341 0.51,-0.281C0.51,-0.22 0.506,-0.179 0.497,-0.156C0.489,-0.133 0.479,-0.118 0.469,-0.11C0.459,-0.103 0.442,-0.081 0.416,-0.046C0.406,-0.031 0.389,-0.022 0.366,-0.021C0.362,-0.02 0.357,-0.018 0.352,-0.014C0.346,-0.009 0.341,-0.006 0.336,-0.004C0.331,-0.002 0.312,0.001 0.279,0.006C0.247,0.01 0.22,0.008 0.198,-0.002C0.192,-0.005 0.183,-0.009 0.173,-0.013C0.162,-0.017 0.153,-0.021 0.143,-0.025C0.134,-0.03 0.123,-0.038 0.11,-0.051C0.098,-0.063 0.086,-0.075 0.075,-0.086C0.064,-0.097 0.056,-0.106 0.051,-0.113C0.033,-0.149 0.023,-0.186 0.02,-0.224C0.019,-0.231 0.019,-0.252 0.019,-0.289C0.019,-0.326 0.025,-0.362 0.036,-0.396C0.047,-0.431 0.066,-0.471 0.093,-0.514C0.093,-0.515 0.101,-0.528 0.116,-0.553C0.131,-0.578 0.145,-0.594 0.157,-0.601C0.169,-0.607 0.18,-0.615 0.19,-0.623C0.233,-0.655 0.276,-0.671 0.319,-0.671C0.363,-0.671 0.395,-0.666 0.415,-0.655C0.462,-0.631 0.486,-0.598 0.486,-0.557C0.486,-0.535 0.481,-0.516 0.471,-0.499C0.46,-0.482 0.449,-0.474 0.437,-0.474L0.409,-0.473C0.393,-0.473 0.378,-0.478 0.367,-0.489Z" style="fill-rule:nonzero;"/>
            </g>
        </g>
    </g>
</svg>
