<?xml version="1.0" encoding="UTF-8" standalone="no"?>
<!DOCTYPE svg PUBLIC "-//W3C//DTD SVG 1.1//EN" "http://www.w3.org/Graphics/SVG/1.1/DTD/svg11.dtd">
<svg width="51px" height="44px" version="1.1" xmlns="http://www.w3.org/2000/svg" xmlns:xlink="http://www.w3.org/1999/xlink" xml:space="preserve" xmlns:serif="http://www.serif.com/" style="fill-rule:evenodd;clip-rule:evenodd;stroke-linejoin:round;stroke-miterlimit:2;">
    <g transform="matrix(1,0,0,1,-309.519,-989.991)">
        <g transform="matrix(1,0,0,1,-54,-40.9135)">
            <g transform="matrix(103.725,0,0,64,362,1073.22)">
                <path d="M0.289,-0.072C0.289,-0.109 0.283,-0.138 0.271,-0.157C0.259,-0.177 0.255,-0.198 0.259,-0.22C0.259,-0.225 0.26,-0.235 0.26,-0.251C0.26,-0.267 0.263,-0.284 0.27,-0.304C0.277,-0.323 0.29,-0.346 0.309,-0.372C0.328,-0.397 0.341,-0.413 0.348,-0.418C0.417,-0.477 0.459,-0.523 0.472,-0.557C0.478,-0.575 0.482,-0.59 0.484,-0.604L0.486,-0.612C0.486,-0.624 0.482,-0.634 0.473,-0.641C0.481,-0.639 0.488,-0.636 0.496,-0.63C0.504,-0.624 0.507,-0.618 0.506,-0.612C0.503,-0.592 0.498,-0.573 0.491,-0.556C0.484,-0.538 0.468,-0.516 0.444,-0.49C0.419,-0.464 0.394,-0.44 0.368,-0.418C0.362,-0.413 0.345,-0.392 0.318,-0.355C0.306,-0.34 0.297,-0.323 0.29,-0.304C0.284,-0.284 0.28,-0.267 0.28,-0.251C0.28,-0.235 0.28,-0.225 0.279,-0.22C0.275,-0.198 0.279,-0.177 0.291,-0.157C0.303,-0.138 0.309,-0.109 0.309,-0.072C0.309,-0.052 0.297,-0.032 0.272,-0.013C0.248,0.006 0.223,0.014 0.197,0.01C0.222,0.009 0.243,0 0.262,-0.018C0.28,-0.035 0.289,-0.053 0.289,-0.072ZM0.175,-0.208C0.173,-0.208 0.173,-0.21 0.173,-0.215C0.174,-0.22 0.175,-0.224 0.177,-0.227C0.179,-0.229 0.184,-0.23 0.193,-0.229C0.202,-0.227 0.209,-0.227 0.215,-0.228L0.217,-0.252C0.214,-0.252 0.213,-0.251 0.212,-0.25C0.211,-0.25 0.208,-0.249 0.202,-0.248C0.196,-0.247 0.192,-0.248 0.189,-0.25C0.187,-0.251 0.187,-0.254 0.19,-0.259C0.193,-0.264 0.195,-0.267 0.197,-0.268C0.207,-0.27 0.215,-0.271 0.221,-0.271C0.225,-0.295 0.229,-0.313 0.233,-0.324C0.188,-0.273 0.164,-0.243 0.162,-0.235C0.156,-0.217 0.149,-0.198 0.14,-0.178C0.131,-0.158 0.125,-0.145 0.123,-0.14C0.121,-0.135 0.125,-0.109 0.136,-0.062C0.141,-0.041 0.155,-0.028 0.178,-0.024C0.191,-0.023 0.204,-0.023 0.219,-0.026C0.233,-0.029 0.242,-0.035 0.245,-0.045C0.211,-0.05 0.19,-0.052 0.185,-0.051C0.179,-0.05 0.17,-0.054 0.159,-0.062C0.157,-0.063 0.156,-0.065 0.157,-0.068C0.158,-0.08 0.169,-0.083 0.192,-0.078C0.201,-0.078 0.212,-0.079 0.227,-0.081C0.241,-0.083 0.25,-0.084 0.254,-0.084L0.252,-0.097C0.209,-0.096 0.185,-0.095 0.179,-0.095C0.173,-0.095 0.166,-0.094 0.158,-0.093C0.156,-0.093 0.155,-0.094 0.153,-0.098C0.152,-0.101 0.152,-0.104 0.154,-0.108C0.155,-0.112 0.167,-0.113 0.188,-0.11C0.21,-0.108 0.23,-0.11 0.247,-0.115L0.24,-0.13C0.218,-0.128 0.204,-0.127 0.199,-0.127L0.168,-0.126C0.16,-0.126 0.156,-0.13 0.156,-0.139C0.155,-0.14 0.159,-0.142 0.166,-0.144C0.173,-0.145 0.181,-0.147 0.191,-0.149C0.2,-0.152 0.207,-0.152 0.212,-0.151C0.216,-0.15 0.223,-0.15 0.231,-0.153C0.23,-0.154 0.229,-0.16 0.226,-0.169C0.206,-0.166 0.194,-0.164 0.191,-0.164L0.166,-0.164C0.163,-0.162 0.161,-0.168 0.161,-0.181C0.161,-0.187 0.176,-0.19 0.206,-0.19C0.212,-0.19 0.216,-0.19 0.219,-0.191C0.218,-0.195 0.216,-0.201 0.215,-0.209L0.194,-0.208L0.175,-0.208ZM0.116,-0.586C0.102,-0.586 0.096,-0.59 0.098,-0.597C0.101,-0.602 0.109,-0.612 0.122,-0.627L0.118,-0.627C0.107,-0.627 0.094,-0.617 0.079,-0.596C0.064,-0.575 0.055,-0.56 0.052,-0.55C0.054,-0.55 0.063,-0.552 0.079,-0.558C0.095,-0.563 0.107,-0.566 0.115,-0.566C0.123,-0.566 0.133,-0.567 0.146,-0.568C0.16,-0.569 0.17,-0.569 0.179,-0.568C0.187,-0.568 0.206,-0.563 0.235,-0.553C0.264,-0.543 0.284,-0.537 0.294,-0.536C0.346,-0.529 0.377,-0.525 0.386,-0.526C0.395,-0.528 0.407,-0.537 0.422,-0.554C0.438,-0.571 0.446,-0.585 0.446,-0.596C0.446,-0.601 0.442,-0.603 0.433,-0.6C0.422,-0.577 0.413,-0.564 0.408,-0.561C0.403,-0.558 0.398,-0.556 0.394,-0.557C0.39,-0.558 0.389,-0.561 0.391,-0.567C0.393,-0.574 0.398,-0.581 0.405,-0.59C0.397,-0.587 0.391,-0.586 0.387,-0.585C0.377,-0.565 0.371,-0.555 0.369,-0.553C0.363,-0.551 0.358,-0.552 0.356,-0.557C0.352,-0.568 0.354,-0.577 0.363,-0.586C0.356,-0.587 0.351,-0.589 0.348,-0.59C0.344,-0.578 0.34,-0.57 0.335,-0.565C0.33,-0.56 0.325,-0.557 0.319,-0.558C0.313,-0.559 0.312,-0.564 0.314,-0.572C0.317,-0.581 0.321,-0.589 0.327,-0.598L0.316,-0.602C0.309,-0.588 0.302,-0.578 0.295,-0.572C0.288,-0.566 0.282,-0.564 0.277,-0.565C0.265,-0.568 0.271,-0.583 0.292,-0.61L0.277,-0.613C0.264,-0.589 0.256,-0.577 0.251,-0.576C0.246,-0.576 0.242,-0.576 0.237,-0.579C0.233,-0.581 0.233,-0.585 0.236,-0.591C0.239,-0.597 0.245,-0.607 0.255,-0.619C0.244,-0.622 0.238,-0.623 0.237,-0.623C0.226,-0.601 0.218,-0.589 0.213,-0.587C0.208,-0.586 0.203,-0.586 0.199,-0.589C0.194,-0.592 0.2,-0.605 0.214,-0.628C0.207,-0.629 0.203,-0.63 0.2,-0.63C0.184,-0.604 0.173,-0.591 0.169,-0.591C0.165,-0.59 0.161,-0.591 0.157,-0.593C0.149,-0.597 0.155,-0.61 0.175,-0.633L0.156,-0.633L0.142,-0.611C0.132,-0.594 0.123,-0.586 0.116,-0.586ZM0.254,-0.286C0.251,-0.279 0.25,-0.267 0.25,-0.251C0.25,-0.235 0.25,-0.225 0.249,-0.22C0.245,-0.198 0.249,-0.177 0.261,-0.157C0.272,-0.138 0.278,-0.109 0.279,-0.072C0.279,-0.053 0.27,-0.036 0.251,-0.019C0.232,-0.002 0.211,0.006 0.186,0.006C0.146,0.006 0.117,-0.015 0.098,-0.057C0.079,-0.106 0.096,-0.175 0.148,-0.264C0.181,-0.319 0.202,-0.352 0.213,-0.363C0.25,-0.402 0.281,-0.431 0.306,-0.448C0.33,-0.466 0.343,-0.48 0.344,-0.492C0.344,-0.497 0.341,-0.5 0.335,-0.5C0.329,-0.5 0.316,-0.502 0.297,-0.507C0.277,-0.511 0.259,-0.514 0.243,-0.514C0.228,-0.514 0.21,-0.518 0.191,-0.525C0.173,-0.533 0.158,-0.537 0.148,-0.537C0.138,-0.537 0.131,-0.537 0.128,-0.536C0.125,-0.535 0.115,-0.534 0.097,-0.534C0.078,-0.533 0.064,-0.53 0.054,-0.523C0.043,-0.517 0.034,-0.514 0.026,-0.514C0.018,-0.514 0.015,-0.521 0.015,-0.535C0.015,-0.548 0.021,-0.565 0.033,-0.584C0.045,-0.603 0.058,-0.619 0.071,-0.633C0.089,-0.651 0.137,-0.661 0.214,-0.661C0.225,-0.661 0.235,-0.659 0.245,-0.654C0.255,-0.65 0.263,-0.647 0.269,-0.647C0.274,-0.647 0.292,-0.641 0.321,-0.63C0.351,-0.619 0.37,-0.614 0.381,-0.614C0.391,-0.613 0.402,-0.616 0.413,-0.622C0.423,-0.628 0.43,-0.631 0.432,-0.632C0.434,-0.633 0.437,-0.635 0.441,-0.638C0.444,-0.64 0.447,-0.642 0.449,-0.642C0.451,-0.643 0.453,-0.643 0.456,-0.643C0.459,-0.643 0.461,-0.642 0.463,-0.641C0.472,-0.634 0.476,-0.624 0.476,-0.612C0.473,-0.592 0.469,-0.573 0.461,-0.556C0.455,-0.538 0.439,-0.516 0.414,-0.49C0.389,-0.464 0.364,-0.44 0.338,-0.418C0.331,-0.413 0.315,-0.392 0.288,-0.355C0.276,-0.34 0.265,-0.317 0.254,-0.286Z" style="fill-rule:nonzero;"/>
            </g>
        </g>
    </g>
</svg>
