<?xml version="1.0" encoding="UTF-8" standalone="no"?>
<!DOCTYPE svg PUBLIC "-//W3C//DTD SVG 1.1//EN" "http://www.w3.org/Graphics/SVG/1.1/DTD/svg11.dtd">
<svg width="52px" height="44px" version="1.1" xmlns="http://www.w3.org/2000/svg" xmlns:xlink="http://www.w3.org/1999/xlink" xml:space="preserve" xmlns:serif="http://www.serif.com/" style="fill-rule:evenodd;clip-rule:evenodd;stroke-linejoin:round;stroke-miterlimit:2;">
    <g transform="matrix(1,0,0,1,-309.874,-861.388)">
        <g transform="matrix(1,0,0,1,-54,-40.9135)">
            <g transform="matrix(103.725,0,0,64,362,945.217)">
                <path d="M0.43,-0.366L0.428,-0.385L0.426,-0.508C0.426,-0.529 0.429,-0.557 0.434,-0.591C0.435,-0.599 0.44,-0.605 0.447,-0.608C0.454,-0.611 0.459,-0.614 0.461,-0.616C0.452,-0.596 0.448,-0.545 0.448,-0.464L0.444,-0.447L0.448,-0.432L0.449,-0.376C0.455,-0.375 0.458,-0.374 0.459,-0.373C0.46,-0.372 0.458,-0.369 0.455,-0.365C0.452,-0.361 0.45,-0.359 0.449,-0.358L0.431,-0.343C0.428,-0.355 0.428,-0.363 0.43,-0.366ZM0.181,-0.574L0.175,-0.574L0.156,-0.57C0.148,-0.568 0.143,-0.57 0.141,-0.574C0.138,-0.579 0.141,-0.585 0.149,-0.593C0.151,-0.593 0.154,-0.594 0.16,-0.594C0.166,-0.594 0.171,-0.595 0.174,-0.596L0.182,-0.596C0.182,-0.597 0.182,-0.599 0.182,-0.601C0.181,-0.603 0.181,-0.604 0.181,-0.605C0.161,-0.602 0.149,-0.601 0.147,-0.603C0.146,-0.604 0.141,-0.604 0.135,-0.604C0.129,-0.603 0.125,-0.602 0.124,-0.603C0.123,-0.603 0.122,-0.605 0.123,-0.608C0.123,-0.611 0.124,-0.614 0.125,-0.616C0.126,-0.621 0.131,-0.622 0.139,-0.621C0.146,-0.62 0.157,-0.622 0.17,-0.628C0.163,-0.634 0.153,-0.638 0.139,-0.638C0.125,-0.638 0.114,-0.634 0.104,-0.626C0.095,-0.619 0.091,-0.61 0.091,-0.6C0.091,-0.59 0.093,-0.582 0.097,-0.577C0.101,-0.572 0.107,-0.566 0.115,-0.56C0.124,-0.553 0.13,-0.549 0.132,-0.547C0.134,-0.544 0.139,-0.537 0.146,-0.525C0.153,-0.514 0.159,-0.507 0.162,-0.507C0.166,-0.507 0.171,-0.518 0.176,-0.539L0.159,-0.536C0.154,-0.537 0.154,-0.543 0.159,-0.554C0.16,-0.559 0.167,-0.56 0.179,-0.557C0.181,-0.564 0.181,-0.569 0.181,-0.574ZM0.454,-0.131C0.453,-0.126 0.453,-0.112 0.453,-0.091C0.453,-0.07 0.456,-0.057 0.461,-0.051C0.444,-0.051 0.435,-0.055 0.434,-0.064C0.433,-0.066 0.433,-0.076 0.433,-0.095C0.433,-0.114 0.433,-0.126 0.434,-0.131L0.428,-0.202L0.426,-0.257C0.426,-0.275 0.427,-0.284 0.431,-0.284C0.434,-0.284 0.443,-0.289 0.457,-0.298C0.47,-0.308 0.482,-0.316 0.493,-0.322C0.499,-0.326 0.502,-0.332 0.502,-0.342C0.502,-0.36 0.496,-0.371 0.485,-0.373C0.494,-0.376 0.502,-0.373 0.508,-0.363C0.514,-0.354 0.518,-0.343 0.518,-0.333C0.518,-0.323 0.514,-0.315 0.508,-0.311C0.501,-0.306 0.49,-0.299 0.476,-0.289C0.462,-0.278 0.454,-0.273 0.452,-0.273C0.446,-0.273 0.444,-0.249 0.448,-0.202L0.454,-0.131ZM0.288,-0.344C0.289,-0.344 0.288,-0.341 0.286,-0.337C0.284,-0.332 0.282,-0.33 0.279,-0.33L0.269,-0.327C0.267,-0.327 0.257,-0.329 0.239,-0.332C0.222,-0.335 0.198,-0.339 0.168,-0.342C0.138,-0.345 0.123,-0.348 0.123,-0.35C0.123,-0.354 0.127,-0.361 0.135,-0.372C0.143,-0.383 0.149,-0.393 0.154,-0.403C0.159,-0.412 0.164,-0.42 0.169,-0.425C0.174,-0.431 0.177,-0.438 0.178,-0.446C0.18,-0.455 0.182,-0.462 0.187,-0.467C0.192,-0.472 0.197,-0.482 0.202,-0.498C0.207,-0.513 0.212,-0.525 0.215,-0.532C0.218,-0.54 0.22,-0.563 0.22,-0.602C0.22,-0.62 0.214,-0.636 0.201,-0.649C0.188,-0.663 0.173,-0.67 0.157,-0.67C0.179,-0.673 0.198,-0.667 0.215,-0.654C0.232,-0.64 0.24,-0.623 0.24,-0.602C0.24,-0.563 0.239,-0.539 0.235,-0.532C0.232,-0.525 0.228,-0.514 0.223,-0.5C0.219,-0.485 0.214,-0.475 0.208,-0.468C0.203,-0.462 0.2,-0.455 0.198,-0.446C0.197,-0.438 0.194,-0.431 0.189,-0.425C0.185,-0.42 0.18,-0.412 0.174,-0.403C0.169,-0.393 0.163,-0.385 0.158,-0.377C0.153,-0.369 0.15,-0.363 0.15,-0.359C0.15,-0.358 0.156,-0.356 0.169,-0.355C0.188,-0.354 0.2,-0.352 0.207,-0.349C0.213,-0.346 0.224,-0.344 0.24,-0.344C0.255,-0.343 0.267,-0.343 0.276,-0.344L0.288,-0.344ZM0.347,-0.464C0.347,-0.467 0.351,-0.469 0.357,-0.469C0.364,-0.469 0.376,-0.47 0.392,-0.473C0.391,-0.481 0.39,-0.488 0.39,-0.493L0.364,-0.492C0.356,-0.491 0.351,-0.492 0.349,-0.497C0.346,-0.501 0.349,-0.507 0.357,-0.515C0.36,-0.517 0.371,-0.518 0.389,-0.518L0.389,-0.534L0.364,-0.532C0.36,-0.531 0.357,-0.531 0.356,-0.531C0.351,-0.532 0.351,-0.538 0.356,-0.549C0.357,-0.552 0.361,-0.554 0.369,-0.555C0.377,-0.555 0.384,-0.555 0.389,-0.553C0.389,-0.56 0.389,-0.565 0.39,-0.568L0.374,-0.566C0.367,-0.565 0.361,-0.566 0.359,-0.57C0.356,-0.575 0.359,-0.581 0.367,-0.589C0.368,-0.59 0.372,-0.59 0.378,-0.59C0.385,-0.59 0.389,-0.59 0.393,-0.591L0.393,-0.593C0.393,-0.595 0.392,-0.599 0.391,-0.603L0.378,-0.602L0.375,-0.602C0.372,-0.602 0.375,-0.606 0.382,-0.612C0.389,-0.619 0.393,-0.622 0.394,-0.623C0.376,-0.629 0.364,-0.632 0.358,-0.631C0.353,-0.63 0.346,-0.627 0.339,-0.623C0.331,-0.618 0.328,-0.612 0.329,-0.605L0.332,-0.542L0.326,-0.485L0.326,-0.467L0.323,-0.415C0.325,-0.395 0.325,-0.379 0.325,-0.366L0.326,-0.308C0.321,-0.243 0.319,-0.204 0.319,-0.19L0.319,-0.152C0.319,-0.137 0.321,-0.124 0.325,-0.114C0.329,-0.104 0.332,-0.092 0.334,-0.076C0.336,-0.06 0.338,-0.051 0.339,-0.049C0.348,-0.04 0.361,-0.035 0.375,-0.036C0.39,-0.037 0.398,-0.041 0.398,-0.049L0.397,-0.059C0.38,-0.057 0.369,-0.058 0.363,-0.062C0.361,-0.063 0.36,-0.065 0.36,-0.068C0.361,-0.072 0.362,-0.075 0.364,-0.076C0.366,-0.077 0.369,-0.078 0.374,-0.079C0.378,-0.08 0.382,-0.08 0.385,-0.081C0.388,-0.081 0.39,-0.081 0.39,-0.082L0.39,-0.095C0.382,-0.094 0.373,-0.093 0.362,-0.093C0.36,-0.093 0.358,-0.094 0.357,-0.098C0.356,-0.101 0.356,-0.104 0.357,-0.106C0.359,-0.111 0.37,-0.113 0.389,-0.112L0.39,-0.112L0.39,-0.127C0.386,-0.126 0.376,-0.126 0.36,-0.126C0.352,-0.126 0.348,-0.13 0.348,-0.139C0.348,-0.141 0.353,-0.143 0.361,-0.144C0.37,-0.145 0.375,-0.145 0.377,-0.146L0.39,-0.147L0.39,-0.164L0.35,-0.164C0.347,-0.162 0.345,-0.165 0.345,-0.172C0.345,-0.18 0.347,-0.184 0.35,-0.185C0.353,-0.186 0.356,-0.186 0.36,-0.187C0.365,-0.188 0.368,-0.188 0.369,-0.189C0.37,-0.19 0.378,-0.19 0.392,-0.19L0.392,-0.209C0.382,-0.209 0.376,-0.209 0.373,-0.208L0.344,-0.208C0.342,-0.208 0.341,-0.21 0.342,-0.215C0.342,-0.22 0.344,-0.223 0.345,-0.225C0.348,-0.23 0.36,-0.231 0.381,-0.227C0.382,-0.226 0.385,-0.226 0.39,-0.226L0.391,-0.252L0.388,-0.252L0.376,-0.249C0.373,-0.248 0.369,-0.248 0.362,-0.249C0.356,-0.249 0.351,-0.25 0.349,-0.251C0.346,-0.252 0.346,-0.256 0.347,-0.262C0.348,-0.268 0.35,-0.271 0.352,-0.271C0.363,-0.274 0.375,-0.275 0.389,-0.275L0.39,-0.29L0.38,-0.29L0.356,-0.289C0.353,-0.289 0.351,-0.294 0.348,-0.303C0.348,-0.305 0.354,-0.307 0.367,-0.311L0.389,-0.312L0.389,-0.328L0.373,-0.328C0.361,-0.328 0.354,-0.33 0.351,-0.333C0.348,-0.336 0.347,-0.339 0.349,-0.342C0.352,-0.349 0.366,-0.352 0.389,-0.352L0.389,-0.367C0.383,-0.367 0.373,-0.366 0.358,-0.366C0.357,-0.366 0.354,-0.369 0.349,-0.375C0.343,-0.38 0.345,-0.385 0.355,-0.388C0.365,-0.39 0.376,-0.391 0.39,-0.391L0.389,-0.409C0.385,-0.409 0.379,-0.408 0.371,-0.408C0.364,-0.408 0.359,-0.409 0.357,-0.41C0.356,-0.411 0.354,-0.413 0.354,-0.416C0.353,-0.418 0.352,-0.419 0.351,-0.42C0.348,-0.424 0.351,-0.428 0.361,-0.431L0.391,-0.434C0.392,-0.442 0.393,-0.448 0.393,-0.452L0.353,-0.451C0.349,-0.451 0.347,-0.455 0.347,-0.464ZM0.066,-0.297C0.056,-0.292 0.048,-0.29 0.043,-0.29C0.038,-0.29 0.032,-0.295 0.026,-0.304C0.021,-0.313 0.018,-0.32 0.018,-0.325C0.018,-0.33 0.019,-0.334 0.02,-0.337C0.021,-0.34 0.032,-0.347 0.053,-0.361C0.074,-0.374 0.088,-0.386 0.094,-0.395C0.1,-0.404 0.104,-0.415 0.107,-0.428C0.111,-0.44 0.114,-0.449 0.117,-0.455C0.12,-0.461 0.121,-0.474 0.121,-0.494C0.121,-0.513 0.112,-0.529 0.094,-0.541C0.066,-0.56 0.055,-0.585 0.061,-0.615C0.064,-0.63 0.073,-0.643 0.086,-0.652C0.1,-0.662 0.117,-0.667 0.136,-0.667C0.155,-0.667 0.172,-0.66 0.187,-0.647C0.202,-0.634 0.21,-0.619 0.21,-0.602C0.21,-0.563 0.208,-0.539 0.205,-0.532C0.202,-0.525 0.198,-0.514 0.192,-0.498C0.187,-0.483 0.182,-0.472 0.177,-0.467C0.172,-0.462 0.169,-0.455 0.168,-0.446C0.167,-0.438 0.164,-0.431 0.159,-0.425C0.155,-0.42 0.15,-0.412 0.145,-0.403C0.139,-0.393 0.132,-0.382 0.123,-0.369C0.113,-0.356 0.109,-0.347 0.109,-0.343C0.109,-0.341 0.115,-0.34 0.128,-0.339C0.141,-0.338 0.159,-0.336 0.182,-0.333C0.204,-0.33 0.224,-0.326 0.241,-0.323C0.258,-0.319 0.267,-0.317 0.269,-0.317L0.279,-0.32C0.286,-0.319 0.29,-0.322 0.292,-0.327C0.295,-0.337 0.296,-0.349 0.296,-0.363C0.299,-0.396 0.301,-0.433 0.301,-0.473L0.297,-0.53C0.297,-0.535 0.298,-0.54 0.299,-0.544C0.301,-0.548 0.302,-0.556 0.302,-0.568C0.302,-0.58 0.301,-0.593 0.3,-0.608C0.299,-0.614 0.29,-0.617 0.273,-0.617C0.262,-0.619 0.257,-0.626 0.257,-0.638C0.259,-0.657 0.265,-0.667 0.274,-0.667C0.277,-0.667 0.285,-0.666 0.299,-0.663C0.313,-0.66 0.33,-0.66 0.351,-0.661C0.371,-0.662 0.386,-0.663 0.395,-0.664C0.404,-0.665 0.419,-0.666 0.441,-0.666C0.464,-0.666 0.475,-0.66 0.476,-0.649C0.476,-0.647 0.476,-0.646 0.475,-0.645C0.469,-0.63 0.458,-0.621 0.443,-0.619C0.435,-0.617 0.431,-0.615 0.429,-0.612C0.428,-0.608 0.426,-0.595 0.422,-0.572C0.418,-0.549 0.416,-0.528 0.416,-0.508L0.416,-0.439L0.419,-0.358C0.419,-0.343 0.421,-0.334 0.425,-0.33L0.426,-0.328C0.426,-0.33 0.428,-0.333 0.432,-0.335C0.435,-0.338 0.439,-0.341 0.443,-0.345C0.447,-0.348 0.45,-0.35 0.451,-0.352C0.46,-0.366 0.468,-0.373 0.475,-0.373C0.478,-0.373 0.481,-0.371 0.484,-0.368C0.489,-0.359 0.492,-0.35 0.492,-0.341C0.492,-0.332 0.49,-0.326 0.485,-0.323C0.463,-0.31 0.448,-0.3 0.439,-0.293C0.43,-0.287 0.424,-0.284 0.421,-0.284C0.418,-0.284 0.416,-0.275 0.416,-0.257L0.418,-0.202L0.424,-0.131C0.423,-0.126 0.423,-0.114 0.423,-0.095C0.423,-0.077 0.423,-0.066 0.424,-0.064C0.426,-0.051 0.434,-0.045 0.448,-0.045C0.463,-0.045 0.47,-0.039 0.47,-0.026C0.47,-0.018 0.464,-0.011 0.452,-0.005C0.441,0.001 0.429,0.004 0.418,0.004C0.395,0.001 0.373,-0.001 0.354,0C0.334,0 0.307,0 0.274,0C0.267,0 0.264,-0.007 0.264,-0.022C0.264,-0.025 0.265,-0.028 0.267,-0.029C0.268,-0.03 0.271,-0.032 0.275,-0.034C0.28,-0.036 0.284,-0.039 0.288,-0.043C0.299,-0.054 0.304,-0.08 0.304,-0.121L0.3,-0.17C0.3,-0.179 0.299,-0.205 0.297,-0.247C0.296,-0.269 0.291,-0.279 0.28,-0.279C0.228,-0.279 0.19,-0.284 0.167,-0.294C0.158,-0.298 0.151,-0.3 0.145,-0.301C0.139,-0.302 0.121,-0.303 0.091,-0.303C0.084,-0.304 0.076,-0.301 0.066,-0.297Z" style="fill-rule:nonzero;"/>
            </g>
        </g>
    </g>
</svg>
