<?xml version="1.0" encoding="UTF-8" standalone="no"?>
<!DOCTYPE svg PUBLIC "-//W3C//DTD SVG 1.1//EN" "http://www.w3.org/Graphics/SVG/1.1/DTD/svg11.dtd">
<svg width="59px" height="44px" version="1.1" xmlns="http://www.w3.org/2000/svg" xmlns:xlink="http://www.w3.org/1999/xlink" xml:space="preserve" xmlns:serif="http://www.serif.com/" style="fill-rule:evenodd;clip-rule:evenodd;stroke-linejoin:round;stroke-miterlimit:2;">
    <g transform="matrix(1,0,0,1,-309.469,-1071.75)">
        <g transform="matrix(0.97371,0,0,0.996678,10.3754,665.363)">
            <g id="Zero" transform="matrix(106.526,0,0,64.2133,305.556,450.949)">
                <path d="M0.2,-0.463L0.194,-0.422C0.194,-0.41 0.195,-0.397 0.197,-0.386C0.2,-0.374 0.201,-0.365 0.201,-0.36L0.198,-0.289C0.198,-0.231 0.205,-0.186 0.218,-0.154C0.222,-0.144 0.226,-0.132 0.23,-0.116C0.235,-0.101 0.241,-0.088 0.249,-0.078C0.257,-0.069 0.263,-0.063 0.268,-0.06C0.273,-0.057 0.284,-0.055 0.299,-0.052L0.279,-0.052C0.264,-0.054 0.253,-0.057 0.248,-0.06C0.243,-0.062 0.237,-0.068 0.23,-0.077C0.224,-0.086 0.219,-0.093 0.217,-0.1C0.214,-0.106 0.211,-0.114 0.208,-0.125C0.206,-0.135 0.202,-0.145 0.198,-0.154C0.185,-0.186 0.178,-0.231 0.178,-0.289L0.181,-0.36L0.177,-0.43C0.177,-0.473 0.184,-0.508 0.199,-0.536C0.214,-0.563 0.225,-0.581 0.231,-0.591C0.244,-0.608 0.269,-0.617 0.307,-0.617C0.289,-0.613 0.271,-0.604 0.255,-0.591C0.239,-0.577 0.229,-0.564 0.226,-0.552C0.223,-0.541 0.218,-0.527 0.211,-0.512C0.205,-0.496 0.201,-0.48 0.2,-0.463ZM0.461,-0.178C0.461,-0.186 0.47,-0.19 0.487,-0.19L0.492,-0.209L0.466,-0.208C0.464,-0.208 0.464,-0.21 0.464,-0.215C0.465,-0.22 0.466,-0.224 0.468,-0.227C0.47,-0.229 0.478,-0.229 0.493,-0.227L0.501,-0.227C0.503,-0.232 0.505,-0.24 0.507,-0.252L0.495,-0.249C0.486,-0.248 0.48,-0.248 0.477,-0.25C0.474,-0.251 0.474,-0.254 0.477,-0.259C0.48,-0.264 0.482,-0.267 0.484,-0.268C0.494,-0.27 0.503,-0.271 0.51,-0.271L0.511,-0.271L0.513,-0.29L0.488,-0.289C0.485,-0.289 0.483,-0.294 0.48,-0.303C0.478,-0.306 0.483,-0.309 0.494,-0.311L0.515,-0.312L0.517,-0.328L0.502,-0.328C0.493,-0.328 0.487,-0.33 0.484,-0.333C0.481,-0.336 0.481,-0.339 0.482,-0.342C0.484,-0.345 0.486,-0.347 0.489,-0.348C0.502,-0.351 0.51,-0.352 0.511,-0.352L0.518,-0.353L0.517,-0.367C0.511,-0.367 0.503,-0.366 0.492,-0.366C0.492,-0.366 0.488,-0.369 0.482,-0.375C0.477,-0.38 0.479,-0.385 0.489,-0.388L0.517,-0.392L0.517,-0.411C0.501,-0.409 0.492,-0.408 0.488,-0.408C0.485,-0.408 0.483,-0.409 0.481,-0.41C0.48,-0.411 0.479,-0.413 0.478,-0.416C0.477,-0.418 0.476,-0.419 0.475,-0.42C0.472,-0.424 0.474,-0.428 0.481,-0.43C0.488,-0.432 0.5,-0.433 0.517,-0.435C0.516,-0.442 0.514,-0.447 0.513,-0.452L0.502,-0.452L0.473,-0.451C0.469,-0.451 0.467,-0.455 0.467,-0.464C0.467,-0.467 0.472,-0.469 0.483,-0.469L0.506,-0.472C0.506,-0.473 0.503,-0.481 0.497,-0.495L0.474,-0.492C0.467,-0.491 0.462,-0.492 0.459,-0.497C0.456,-0.501 0.459,-0.507 0.467,-0.515C0.468,-0.516 0.474,-0.516 0.485,-0.516C0.485,-0.517 0.484,-0.518 0.483,-0.519L0.469,-0.534C0.462,-0.534 0.457,-0.533 0.452,-0.531C0.447,-0.532 0.447,-0.538 0.452,-0.549C0.452,-0.55 0.455,-0.552 0.462,-0.555L0.452,-0.567C0.441,-0.579 0.432,-0.585 0.425,-0.583C0.425,-0.576 0.43,-0.562 0.437,-0.54C0.444,-0.518 0.448,-0.502 0.448,-0.493C0.447,-0.484 0.447,-0.476 0.447,-0.469L0.466,-0.301C0.466,-0.299 0.464,-0.287 0.46,-0.267C0.456,-0.246 0.453,-0.217 0.451,-0.179C0.451,-0.178 0.449,-0.171 0.445,-0.159C0.441,-0.147 0.439,-0.136 0.439,-0.127C0.439,-0.118 0.439,-0.113 0.44,-0.113L0.454,-0.127C0.45,-0.129 0.447,-0.133 0.447,-0.139C0.446,-0.14 0.45,-0.142 0.458,-0.144C0.466,-0.146 0.471,-0.148 0.473,-0.151C0.474,-0.153 0.475,-0.155 0.476,-0.156L0.48,-0.164C0.474,-0.165 0.47,-0.166 0.468,-0.165C0.463,-0.163 0.461,-0.167 0.461,-0.178ZM0.566,-0.464C0.573,-0.444 0.577,-0.406 0.577,-0.35C0.577,-0.294 0.573,-0.258 0.565,-0.242C0.563,-0.237 0.559,-0.225 0.554,-0.205C0.549,-0.186 0.545,-0.173 0.543,-0.166C0.541,-0.16 0.536,-0.152 0.527,-0.142C0.519,-0.131 0.512,-0.122 0.508,-0.113C0.503,-0.105 0.497,-0.097 0.49,-0.09C0.483,-0.083 0.478,-0.077 0.476,-0.071C0.473,-0.066 0.467,-0.059 0.458,-0.05C0.448,-0.041 0.44,-0.035 0.434,-0.033C0.427,-0.031 0.417,-0.026 0.405,-0.017C0.393,-0.007 0.372,0 0.342,0.005C0.313,0.011 0.295,0.012 0.288,0.01C0.293,0.01 0.301,0.008 0.31,0.004C0.319,0.001 0.328,-0.002 0.336,-0.003C0.344,-0.005 0.357,-0.011 0.376,-0.021C0.395,-0.031 0.407,-0.037 0.414,-0.039C0.42,-0.041 0.428,-0.046 0.438,-0.053C0.447,-0.061 0.453,-0.066 0.454,-0.068C0.455,-0.071 0.458,-0.076 0.461,-0.083C0.464,-0.091 0.468,-0.095 0.473,-0.097C0.477,-0.099 0.482,-0.105 0.487,-0.113C0.493,-0.122 0.499,-0.131 0.507,-0.142C0.516,-0.152 0.521,-0.16 0.523,-0.167C0.526,-0.174 0.527,-0.182 0.528,-0.193C0.529,-0.204 0.531,-0.211 0.533,-0.216C0.549,-0.248 0.557,-0.283 0.557,-0.322C0.557,-0.396 0.553,-0.444 0.546,-0.464C0.53,-0.508 0.517,-0.535 0.506,-0.545C0.503,-0.548 0.499,-0.551 0.496,-0.556C0.466,-0.599 0.441,-0.627 0.421,-0.642C0.395,-0.658 0.376,-0.668 0.364,-0.673C0.371,-0.673 0.385,-0.669 0.405,-0.661C0.425,-0.653 0.437,-0.646 0.441,-0.642C0.446,-0.637 0.453,-0.629 0.465,-0.618C0.476,-0.607 0.485,-0.598 0.491,-0.591C0.509,-0.567 0.52,-0.553 0.523,-0.551C0.535,-0.541 0.549,-0.512 0.566,-0.464ZM0.137,-0.414C0.128,-0.41 0.117,-0.408 0.104,-0.408C0.091,-0.408 0.084,-0.409 0.083,-0.41C0.081,-0.411 0.08,-0.413 0.079,-0.416C0.078,-0.418 0.077,-0.419 0.076,-0.42C0.073,-0.424 0.075,-0.428 0.082,-0.43C0.089,-0.432 0.101,-0.433 0.117,-0.435C0.133,-0.436 0.142,-0.438 0.143,-0.439C0.144,-0.441 0.144,-0.445 0.144,-0.452L0.131,-0.452L0.092,-0.451C0.088,-0.451 0.086,-0.455 0.086,-0.464C0.086,-0.467 0.095,-0.469 0.112,-0.469C0.13,-0.469 0.141,-0.471 0.146,-0.474C0.147,-0.479 0.147,-0.486 0.147,-0.495L0.114,-0.492C0.106,-0.491 0.101,-0.492 0.099,-0.497C0.096,-0.501 0.099,-0.507 0.107,-0.515C0.111,-0.517 0.117,-0.518 0.127,-0.517C0.138,-0.516 0.145,-0.516 0.15,-0.517C0.151,-0.525 0.153,-0.531 0.154,-0.533C0.149,-0.532 0.138,-0.531 0.121,-0.531C0.116,-0.532 0.116,-0.538 0.121,-0.549C0.123,-0.557 0.131,-0.559 0.146,-0.555C0.149,-0.555 0.154,-0.555 0.163,-0.556L0.169,-0.569C0.174,-0.579 0.177,-0.584 0.177,-0.585L0.152,-0.587C0.148,-0.587 0.142,-0.582 0.132,-0.572C0.122,-0.563 0.115,-0.555 0.112,-0.551C0.096,-0.527 0.087,-0.511 0.084,-0.501C0.082,-0.491 0.073,-0.472 0.056,-0.442C0.05,-0.431 0.047,-0.406 0.047,-0.367C0.047,-0.327 0.048,-0.299 0.051,-0.282C0.054,-0.266 0.057,-0.244 0.059,-0.216C0.061,-0.188 0.067,-0.168 0.078,-0.157C0.084,-0.151 0.09,-0.142 0.097,-0.13C0.103,-0.118 0.109,-0.108 0.113,-0.103C0.118,-0.097 0.127,-0.089 0.141,-0.079C0.155,-0.069 0.163,-0.067 0.164,-0.072L0.168,-0.095C0.152,-0.095 0.142,-0.094 0.139,-0.094C0.135,-0.093 0.133,-0.094 0.132,-0.098C0.131,-0.101 0.13,-0.104 0.131,-0.106C0.133,-0.111 0.142,-0.113 0.158,-0.112C0.158,-0.111 0.16,-0.111 0.162,-0.112L0.167,-0.112L0.163,-0.127L0.12,-0.126C0.112,-0.126 0.108,-0.13 0.108,-0.139C0.108,-0.14 0.113,-0.142 0.121,-0.144C0.13,-0.146 0.142,-0.147 0.158,-0.147L0.151,-0.168L0.12,-0.164L0.095,-0.164C0.093,-0.163 0.091,-0.165 0.091,-0.171C0.09,-0.177 0.09,-0.18 0.09,-0.181C0.09,-0.187 0.105,-0.19 0.135,-0.19L0.15,-0.19C0.15,-0.198 0.15,-0.204 0.149,-0.209C0.12,-0.209 0.103,-0.209 0.1,-0.208L0.081,-0.208C0.079,-0.208 0.079,-0.21 0.079,-0.215C0.08,-0.22 0.081,-0.224 0.083,-0.227C0.085,-0.229 0.091,-0.229 0.102,-0.228C0.112,-0.225 0.127,-0.227 0.147,-0.233C0.147,-0.236 0.146,-0.243 0.145,-0.254C0.133,-0.253 0.125,-0.252 0.121,-0.252C0.116,-0.252 0.108,-0.251 0.097,-0.25C0.085,-0.248 0.078,-0.248 0.075,-0.25C0.073,-0.251 0.073,-0.254 0.075,-0.259C0.078,-0.264 0.08,-0.267 0.082,-0.268C0.092,-0.27 0.103,-0.271 0.114,-0.271C0.125,-0.271 0.135,-0.273 0.143,-0.276L0.143,-0.29C0.14,-0.289 0.132,-0.289 0.121,-0.29C0.109,-0.29 0.102,-0.29 0.1,-0.291C0.097,-0.292 0.093,-0.292 0.088,-0.291C0.083,-0.29 0.079,-0.289 0.077,-0.289C0.075,-0.289 0.073,-0.294 0.07,-0.303C0.067,-0.309 0.075,-0.312 0.095,-0.312C0.114,-0.312 0.129,-0.314 0.14,-0.319C0.14,-0.325 0.14,-0.329 0.139,-0.333C0.128,-0.33 0.115,-0.328 0.1,-0.328C0.084,-0.328 0.075,-0.33 0.072,-0.333C0.069,-0.336 0.069,-0.339 0.07,-0.342C0.072,-0.345 0.074,-0.347 0.077,-0.348C0.09,-0.351 0.101,-0.352 0.11,-0.352C0.119,-0.352 0.128,-0.353 0.137,-0.355C0.137,-0.361 0.136,-0.367 0.135,-0.372L0.112,-0.369C0.107,-0.367 0.097,-0.366 0.08,-0.366C0.079,-0.366 0.076,-0.369 0.07,-0.375C0.064,-0.38 0.067,-0.385 0.077,-0.388C0.08,-0.389 0.086,-0.389 0.093,-0.39C0.1,-0.391 0.105,-0.392 0.108,-0.393C0.112,-0.394 0.12,-0.395 0.134,-0.395L0.137,-0.414ZM0.294,-0.627C0.283,-0.627 0.27,-0.624 0.255,-0.618C0.24,-0.612 0.23,-0.606 0.225,-0.599C0.22,-0.592 0.21,-0.575 0.194,-0.546C0.179,-0.517 0.17,-0.49 0.168,-0.464C0.167,-0.456 0.167,-0.445 0.167,-0.43L0.171,-0.36L0.168,-0.289C0.168,-0.231 0.175,-0.186 0.188,-0.154C0.192,-0.144 0.197,-0.129 0.201,-0.11C0.206,-0.091 0.212,-0.077 0.219,-0.068C0.226,-0.058 0.232,-0.052 0.238,-0.05C0.243,-0.047 0.253,-0.045 0.269,-0.042L0.271,-0.042C0.275,-0.04 0.28,-0.039 0.288,-0.039C0.296,-0.039 0.303,-0.04 0.309,-0.042C0.314,-0.044 0.322,-0.046 0.331,-0.048C0.356,-0.054 0.372,-0.07 0.38,-0.094C0.383,-0.103 0.39,-0.114 0.4,-0.127C0.411,-0.141 0.417,-0.155 0.418,-0.171C0.42,-0.186 0.423,-0.199 0.426,-0.208C0.43,-0.218 0.432,-0.232 0.432,-0.251L0.433,-0.305C0.433,-0.317 0.432,-0.334 0.43,-0.356C0.428,-0.379 0.426,-0.395 0.426,-0.402C0.425,-0.41 0.424,-0.42 0.421,-0.435C0.418,-0.449 0.416,-0.468 0.415,-0.491C0.414,-0.514 0.411,-0.53 0.406,-0.541C0.401,-0.551 0.391,-0.564 0.376,-0.581C0.37,-0.59 0.363,-0.594 0.355,-0.595C0.347,-0.595 0.341,-0.596 0.337,-0.597C0.333,-0.599 0.327,-0.604 0.32,-0.613C0.313,-0.622 0.304,-0.627 0.294,-0.627ZM0.255,-0.663C0.274,-0.669 0.291,-0.672 0.308,-0.672C0.324,-0.672 0.343,-0.668 0.364,-0.659C0.386,-0.651 0.4,-0.644 0.408,-0.639C0.43,-0.624 0.445,-0.611 0.454,-0.6C0.462,-0.589 0.468,-0.58 0.474,-0.573C0.479,-0.566 0.483,-0.56 0.486,-0.556C0.489,-0.552 0.493,-0.548 0.496,-0.545C0.507,-0.535 0.52,-0.508 0.536,-0.464C0.543,-0.444 0.547,-0.405 0.547,-0.349C0.547,-0.292 0.539,-0.248 0.523,-0.216C0.521,-0.211 0.52,-0.204 0.519,-0.193C0.518,-0.182 0.516,-0.174 0.514,-0.167C0.511,-0.16 0.506,-0.152 0.498,-0.142C0.489,-0.131 0.483,-0.122 0.478,-0.113C0.472,-0.105 0.468,-0.1 0.463,-0.098C0.459,-0.096 0.456,-0.094 0.455,-0.091L0.444,-0.069C0.443,-0.067 0.438,-0.062 0.428,-0.055C0.418,-0.048 0.41,-0.043 0.403,-0.041C0.397,-0.039 0.384,-0.033 0.366,-0.023C0.347,-0.013 0.328,-0.006 0.31,-0.001C0.291,0.004 0.277,0.006 0.268,0.005C0.258,0.004 0.24,0.001 0.213,-0.005C0.186,-0.011 0.169,-0.017 0.16,-0.024C0.152,-0.032 0.142,-0.04 0.13,-0.051C0.119,-0.061 0.111,-0.069 0.106,-0.076C0.101,-0.083 0.096,-0.088 0.088,-0.093C0.082,-0.098 0.077,-0.104 0.074,-0.112C0.072,-0.12 0.067,-0.127 0.06,-0.134C0.054,-0.14 0.05,-0.146 0.048,-0.151L0.04,-0.174C0.031,-0.198 0.027,-0.215 0.027,-0.225C0.027,-0.235 0.025,-0.247 0.021,-0.26C0.018,-0.273 0.016,-0.281 0.016,-0.285L0.015,-0.33C0.015,-0.382 0.018,-0.413 0.024,-0.426C0.031,-0.438 0.034,-0.451 0.034,-0.464C0.035,-0.478 0.038,-0.49 0.043,-0.5C0.05,-0.512 0.056,-0.522 0.062,-0.53C0.067,-0.539 0.072,-0.546 0.076,-0.553C0.08,-0.559 0.086,-0.567 0.095,-0.576C0.103,-0.585 0.109,-0.591 0.111,-0.595C0.114,-0.598 0.124,-0.604 0.142,-0.611C0.16,-0.619 0.172,-0.626 0.178,-0.632C0.184,-0.638 0.193,-0.643 0.207,-0.647C0.221,-0.652 0.237,-0.657 0.255,-0.663Z" style="fill-rule:nonzero;"/>
            </g>
        </g>
    </g>
</svg>
