<?xml version="1.0" encoding="UTF-8" standalone="no"?>
<!DOCTYPE svg PUBLIC "-//W3C//DTD SVG 1.1//EN" "http://www.w3.org/Graphics/SVG/1.1/DTD/svg11.dtd">
<svg width="50px" height="45px" version="1.1" xmlns="http://www.w3.org/2000/svg" xmlns:xlink="http://www.w3.org/1999/xlink" xml:space="preserve" xmlns:serif="http://www.serif.com/" style="fill-rule:evenodd;clip-rule:evenodd;stroke-linejoin:round;stroke-miterlimit:2;">
    <g transform="matrix(1,0,0,1,-389.591,-860.967)">
        <g transform="matrix(1,0,0,1,-54,-40.9135)">
            <g transform="matrix(103.725,0,0,64,442.022,945.217)">
                <path d="M0.111,-0.105L0.085,-0.103C0.083,-0.103 0.082,-0.105 0.081,-0.108C0.08,-0.111 0.08,-0.114 0.081,-0.118C0.082,-0.122 0.089,-0.124 0.102,-0.123C0.115,-0.122 0.125,-0.122 0.134,-0.125L0.129,-0.111C0.119,-0.107 0.113,-0.105 0.111,-0.105ZM0.082,-0.149C0.082,-0.15 0.088,-0.153 0.101,-0.156C0.112,-0.157 0.121,-0.157 0.127,-0.156L0.13,-0.154C0.138,-0.149 0.14,-0.147 0.137,-0.147C0.135,-0.14 0.131,-0.137 0.125,-0.137L0.094,-0.136C0.086,-0.136 0.082,-0.14 0.082,-0.149ZM0.13,-0.405C0.131,-0.411 0.131,-0.423 0.132,-0.44C0.133,-0.458 0.135,-0.475 0.138,-0.492C0.14,-0.508 0.145,-0.518 0.152,-0.521C0.162,-0.526 0.177,-0.526 0.196,-0.522C0.181,-0.522 0.173,-0.519 0.171,-0.512C0.163,-0.493 0.157,-0.46 0.153,-0.413C0.152,-0.413 0.148,-0.411 0.141,-0.406C0.133,-0.402 0.13,-0.401 0.13,-0.405ZM0.446,-0.605C0.458,-0.625 0.464,-0.642 0.464,-0.655C0.464,-0.669 0.46,-0.676 0.453,-0.676C0.474,-0.68 0.484,-0.673 0.484,-0.655C0.484,-0.63 0.466,-0.598 0.428,-0.557C0.399,-0.525 0.358,-0.513 0.304,-0.521C0.348,-0.521 0.383,-0.533 0.408,-0.557C0.422,-0.569 0.434,-0.585 0.446,-0.605ZM0.153,-0.065C0.153,-0.068 0.158,-0.078 0.168,-0.093C0.179,-0.109 0.184,-0.122 0.184,-0.134C0.184,-0.159 0.177,-0.179 0.163,-0.194C0.149,-0.208 0.132,-0.216 0.111,-0.216C0.144,-0.225 0.17,-0.215 0.189,-0.187C0.199,-0.171 0.204,-0.155 0.204,-0.14C0.204,-0.124 0.199,-0.109 0.188,-0.093C0.178,-0.078 0.173,-0.068 0.173,-0.063C0.173,-0.058 0.176,-0.053 0.184,-0.047C0.191,-0.041 0.199,-0.038 0.209,-0.038C0.201,-0.035 0.19,-0.038 0.175,-0.045C0.16,-0.052 0.153,-0.059 0.153,-0.065ZM0.097,-0.18C0.082,-0.18 0.07,-0.174 0.061,-0.163C0.051,-0.152 0.046,-0.139 0.046,-0.124C0.046,-0.109 0.051,-0.095 0.061,-0.082C0.071,-0.069 0.081,-0.059 0.09,-0.053C0.099,-0.047 0.105,-0.044 0.107,-0.044C0.105,-0.053 0.106,-0.06 0.11,-0.066L0.094,-0.066C0.086,-0.066 0.082,-0.07 0.082,-0.079C0.082,-0.08 0.088,-0.083 0.101,-0.086C0.132,-0.09 0.147,-0.107 0.147,-0.138C0.147,-0.166 0.131,-0.18 0.097,-0.18ZM0.467,-0.219C0.467,-0.22 0.468,-0.226 0.468,-0.237C0.468,-0.248 0.464,-0.272 0.457,-0.307C0.449,-0.343 0.439,-0.364 0.428,-0.37C0.424,-0.373 0.413,-0.381 0.395,-0.396C0.377,-0.411 0.361,-0.423 0.348,-0.432C0.334,-0.44 0.318,-0.445 0.299,-0.447C0.33,-0.449 0.366,-0.438 0.407,-0.415C0.414,-0.411 0.423,-0.403 0.432,-0.391C0.441,-0.378 0.446,-0.371 0.448,-0.37C0.459,-0.364 0.469,-0.339 0.479,-0.296C0.488,-0.253 0.491,-0.227 0.487,-0.219C0.486,-0.217 0.484,-0.206 0.479,-0.187C0.475,-0.167 0.471,-0.151 0.468,-0.141C0.464,-0.13 0.459,-0.12 0.454,-0.113C0.449,-0.106 0.44,-0.096 0.427,-0.083C0.414,-0.071 0.406,-0.063 0.404,-0.06C0.389,-0.039 0.376,-0.024 0.364,-0.016C0.333,0.005 0.287,0.014 0.228,0.011C0.257,0.01 0.281,0.006 0.302,-0.001C0.322,-0.009 0.338,-0.016 0.348,-0.024C0.359,-0.032 0.37,-0.044 0.384,-0.062C0.418,-0.09 0.439,-0.116 0.447,-0.141C0.452,-0.156 0.456,-0.172 0.46,-0.189C0.464,-0.207 0.466,-0.217 0.467,-0.219ZM0.19,-0.601C0.18,-0.584 0.171,-0.576 0.165,-0.576C0.158,-0.576 0.153,-0.577 0.149,-0.579C0.146,-0.581 0.145,-0.583 0.146,-0.586C0.147,-0.589 0.158,-0.602 0.177,-0.623C0.147,-0.618 0.132,-0.599 0.132,-0.564C0.132,-0.559 0.134,-0.557 0.136,-0.557L0.216,-0.562L0.263,-0.559L0.357,-0.563C0.368,-0.563 0.38,-0.574 0.394,-0.595C0.408,-0.617 0.416,-0.632 0.418,-0.64C0.415,-0.64 0.409,-0.638 0.4,-0.635C0.4,-0.631 0.395,-0.622 0.385,-0.607C0.375,-0.593 0.366,-0.587 0.358,-0.589C0.348,-0.592 0.351,-0.604 0.366,-0.624C0.358,-0.622 0.351,-0.621 0.344,-0.621C0.33,-0.597 0.32,-0.585 0.316,-0.584C0.313,-0.583 0.308,-0.584 0.303,-0.587C0.297,-0.59 0.302,-0.602 0.318,-0.622C0.313,-0.622 0.306,-0.623 0.298,-0.624C0.284,-0.599 0.275,-0.585 0.27,-0.583C0.265,-0.582 0.261,-0.583 0.256,-0.586C0.252,-0.589 0.257,-0.602 0.273,-0.625L0.256,-0.622C0.238,-0.595 0.227,-0.582 0.223,-0.581C0.219,-0.58 0.215,-0.581 0.211,-0.583C0.203,-0.587 0.208,-0.6 0.227,-0.621L0.206,-0.625L0.19,-0.601ZM0.352,-0.366C0.351,-0.366 0.348,-0.369 0.343,-0.374C0.338,-0.379 0.339,-0.384 0.347,-0.387C0.336,-0.394 0.33,-0.396 0.327,-0.395C0.327,-0.392 0.329,-0.384 0.333,-0.372C0.337,-0.359 0.341,-0.352 0.345,-0.349C0.356,-0.338 0.361,-0.296 0.361,-0.223C0.361,-0.214 0.359,-0.199 0.356,-0.178C0.353,-0.158 0.351,-0.146 0.351,-0.142C0.35,-0.138 0.346,-0.127 0.338,-0.109C0.331,-0.092 0.327,-0.081 0.327,-0.078C0.328,-0.077 0.331,-0.078 0.336,-0.079C0.341,-0.08 0.346,-0.081 0.35,-0.081C0.354,-0.081 0.36,-0.085 0.369,-0.093L0.358,-0.093C0.356,-0.093 0.354,-0.094 0.354,-0.098C0.353,-0.101 0.352,-0.104 0.353,-0.106C0.355,-0.111 0.364,-0.113 0.38,-0.112L0.385,-0.112C0.391,-0.121 0.395,-0.125 0.396,-0.126L0.386,-0.126C0.378,-0.126 0.374,-0.13 0.374,-0.139C0.374,-0.144 0.386,-0.147 0.41,-0.147L0.415,-0.164L0.389,-0.164C0.386,-0.162 0.384,-0.168 0.384,-0.182C0.384,-0.187 0.396,-0.19 0.42,-0.19C0.42,-0.191 0.421,-0.197 0.424,-0.207L0.424,-0.209C0.421,-0.209 0.418,-0.209 0.414,-0.208L0.39,-0.208C0.389,-0.208 0.388,-0.21 0.388,-0.215C0.389,-0.22 0.39,-0.224 0.392,-0.227C0.394,-0.229 0.399,-0.23 0.407,-0.229C0.415,-0.227 0.421,-0.226 0.426,-0.226C0.424,-0.242 0.423,-0.25 0.423,-0.251C0.408,-0.247 0.399,-0.247 0.396,-0.249C0.392,-0.251 0.391,-0.254 0.394,-0.259C0.397,-0.264 0.399,-0.267 0.401,-0.268L0.422,-0.27C0.422,-0.274 0.421,-0.281 0.42,-0.29L0.417,-0.29C0.414,-0.291 0.41,-0.292 0.404,-0.291C0.399,-0.29 0.395,-0.289 0.393,-0.289C0.391,-0.289 0.389,-0.294 0.386,-0.303C0.385,-0.306 0.389,-0.309 0.4,-0.311L0.417,-0.312L0.413,-0.327L0.397,-0.328C0.388,-0.328 0.382,-0.33 0.379,-0.333C0.376,-0.336 0.376,-0.339 0.377,-0.342C0.379,-0.345 0.381,-0.347 0.383,-0.348C0.385,-0.348 0.387,-0.349 0.39,-0.35C0.392,-0.351 0.394,-0.351 0.396,-0.351C0.392,-0.355 0.386,-0.36 0.377,-0.367C0.371,-0.367 0.363,-0.366 0.352,-0.366ZM0.114,-0.66L0.252,-0.652L0.281,-0.653L0.317,-0.653C0.33,-0.653 0.337,-0.653 0.34,-0.654C0.343,-0.655 0.354,-0.656 0.372,-0.656C0.39,-0.657 0.405,-0.66 0.416,-0.667C0.426,-0.674 0.435,-0.676 0.443,-0.676C0.45,-0.676 0.454,-0.669 0.454,-0.655C0.454,-0.642 0.448,-0.625 0.436,-0.606C0.424,-0.587 0.411,-0.57 0.398,-0.557C0.379,-0.539 0.332,-0.529 0.255,-0.529C0.244,-0.529 0.231,-0.531 0.215,-0.534C0.2,-0.537 0.19,-0.539 0.187,-0.539L0.179,-0.54C0.159,-0.54 0.146,-0.538 0.142,-0.534C0.136,-0.53 0.132,-0.525 0.129,-0.518C0.126,-0.51 0.121,-0.474 0.114,-0.407C0.114,-0.39 0.116,-0.381 0.119,-0.381C0.126,-0.381 0.135,-0.386 0.145,-0.396C0.154,-0.406 0.172,-0.416 0.196,-0.427C0.221,-0.437 0.249,-0.443 0.279,-0.443C0.31,-0.443 0.334,-0.435 0.353,-0.42C0.357,-0.417 0.362,-0.413 0.367,-0.41C0.372,-0.406 0.381,-0.399 0.394,-0.389C0.406,-0.379 0.414,-0.373 0.418,-0.37C0.429,-0.364 0.439,-0.339 0.449,-0.297C0.459,-0.255 0.462,-0.229 0.457,-0.219C0.456,-0.217 0.453,-0.202 0.447,-0.174C0.441,-0.146 0.434,-0.126 0.426,-0.116C0.412,-0.098 0.395,-0.08 0.374,-0.062C0.329,-0.017 0.271,0.005 0.199,0.005C0.172,0.005 0.155,0.003 0.146,0C0.138,-0.004 0.125,-0.008 0.108,-0.013C0.091,-0.017 0.08,-0.022 0.074,-0.027C0.057,-0.042 0.046,-0.053 0.04,-0.06C0.023,-0.078 0.015,-0.105 0.015,-0.139C0.015,-0.155 0.024,-0.171 0.041,-0.187C0.058,-0.202 0.076,-0.21 0.096,-0.21C0.115,-0.21 0.133,-0.203 0.149,-0.19C0.166,-0.177 0.174,-0.159 0.174,-0.134C0.174,-0.122 0.169,-0.109 0.158,-0.093C0.148,-0.078 0.143,-0.068 0.143,-0.063C0.143,-0.058 0.15,-0.052 0.163,-0.042C0.176,-0.033 0.188,-0.029 0.197,-0.029C0.219,-0.029 0.238,-0.035 0.255,-0.046C0.256,-0.047 0.26,-0.049 0.267,-0.053C0.273,-0.056 0.28,-0.063 0.286,-0.075C0.293,-0.086 0.297,-0.094 0.299,-0.097C0.32,-0.131 0.331,-0.181 0.331,-0.248C0.331,-0.278 0.329,-0.299 0.325,-0.311C0.321,-0.323 0.319,-0.331 0.319,-0.336C0.318,-0.34 0.317,-0.344 0.316,-0.347C0.315,-0.349 0.314,-0.352 0.312,-0.354C0.31,-0.356 0.308,-0.358 0.305,-0.361C0.303,-0.363 0.301,-0.366 0.3,-0.367C0.285,-0.385 0.262,-0.395 0.231,-0.397C0.222,-0.398 0.206,-0.39 0.184,-0.374C0.161,-0.358 0.145,-0.348 0.136,-0.345C0.127,-0.341 0.117,-0.333 0.108,-0.321C0.098,-0.308 0.09,-0.302 0.081,-0.302C0.073,-0.302 0.065,-0.305 0.06,-0.312C0.053,-0.318 0.05,-0.323 0.05,-0.327C0.055,-0.365 0.06,-0.388 0.064,-0.394C0.068,-0.401 0.07,-0.404 0.07,-0.405C0.07,-0.406 0.071,-0.423 0.073,-0.455C0.071,-0.464 0.072,-0.479 0.077,-0.5C0.082,-0.522 0.084,-0.54 0.084,-0.554L0.083,-0.599C0.083,-0.614 0.086,-0.628 0.091,-0.641C0.096,-0.654 0.104,-0.66 0.114,-0.66Z" style="fill-rule:nonzero;"/>
            </g>
        </g>
    </g>
</svg>
