<?xml version="1.0" encoding="UTF-8" standalone="no"?>
<!DOCTYPE svg PUBLIC "-//W3C//DTD SVG 1.1//EN" "http://www.w3.org/Graphics/SVG/1.1/DTD/svg11.dtd">
<svg width="52px" height="45px" version="1.1" xmlns="http://www.w3.org/2000/svg" xmlns:xlink="http://www.w3.org/1999/xlink" xml:space="preserve" xmlns:serif="http://www.serif.com/" style="fill-rule:evenodd;clip-rule:evenodd;stroke-linejoin:round;stroke-miterlimit:2;">
    <g transform="matrix(1,0,0,1,-388.19,-988.199)">
        <g transform="matrix(1,0,0,1,-54,-40.9135)">
            <g transform="matrix(103.725,0,0,64,441.212,1073.22)">
                <path d="M0.257,-0.641C0.26,-0.642 0.264,-0.643 0.268,-0.643C0.271,-0.643 0.274,-0.643 0.275,-0.642L0.277,-0.642C0.262,-0.635 0.251,-0.623 0.244,-0.607C0.24,-0.599 0.238,-0.592 0.238,-0.588C0.238,-0.583 0.239,-0.574 0.239,-0.559C0.241,-0.544 0.251,-0.525 0.27,-0.504C0.289,-0.482 0.312,-0.465 0.337,-0.451L0.33,-0.443L0.297,-0.465C0.285,-0.469 0.27,-0.482 0.25,-0.503C0.23,-0.525 0.22,-0.544 0.22,-0.559C0.219,-0.574 0.218,-0.583 0.218,-0.588C0.218,-0.592 0.22,-0.599 0.224,-0.607C0.232,-0.624 0.243,-0.635 0.257,-0.641ZM0.106,-0.168C0.106,-0.154 0.107,-0.143 0.109,-0.136C0.112,-0.129 0.114,-0.118 0.117,-0.104C0.119,-0.089 0.125,-0.078 0.133,-0.07C0.147,-0.055 0.176,-0.042 0.22,-0.032C0.173,-0.032 0.137,-0.045 0.113,-0.07C0.098,-0.084 0.091,-0.105 0.091,-0.132L0.086,-0.169C0.086,-0.184 0.087,-0.196 0.09,-0.204C0.093,-0.213 0.096,-0.222 0.099,-0.233C0.103,-0.249 0.112,-0.262 0.126,-0.272C0.14,-0.282 0.149,-0.291 0.154,-0.3C0.159,-0.308 0.173,-0.317 0.197,-0.326C0.206,-0.329 0.214,-0.327 0.221,-0.322C0.219,-0.32 0.212,-0.319 0.2,-0.316C0.188,-0.313 0.18,-0.308 0.175,-0.3C0.17,-0.292 0.162,-0.283 0.15,-0.275C0.139,-0.266 0.131,-0.259 0.127,-0.252C0.123,-0.245 0.12,-0.237 0.118,-0.229C0.116,-0.221 0.114,-0.213 0.11,-0.204C0.107,-0.196 0.106,-0.184 0.106,-0.168ZM0.384,-0.401C0.379,-0.405 0.376,-0.408 0.376,-0.41C0.376,-0.413 0.38,-0.417 0.388,-0.424C0.396,-0.431 0.402,-0.439 0.408,-0.448C0.431,-0.492 0.442,-0.522 0.442,-0.539C0.442,-0.587 0.418,-0.629 0.371,-0.663C0.349,-0.679 0.323,-0.687 0.292,-0.687C0.305,-0.69 0.322,-0.69 0.344,-0.686C0.365,-0.682 0.38,-0.676 0.387,-0.668C0.394,-0.66 0.404,-0.65 0.418,-0.637C0.433,-0.624 0.442,-0.613 0.445,-0.605C0.456,-0.578 0.462,-0.556 0.462,-0.539C0.462,-0.522 0.451,-0.492 0.428,-0.448C0.423,-0.44 0.416,-0.432 0.408,-0.425C0.4,-0.418 0.396,-0.413 0.396,-0.411C0.396,-0.408 0.399,-0.405 0.404,-0.401C0.409,-0.397 0.416,-0.393 0.424,-0.387C0.433,-0.381 0.44,-0.373 0.445,-0.363C0.451,-0.354 0.459,-0.343 0.471,-0.33C0.482,-0.317 0.489,-0.309 0.49,-0.306C0.51,-0.263 0.511,-0.215 0.494,-0.163C0.49,-0.154 0.487,-0.147 0.485,-0.141C0.484,-0.134 0.482,-0.129 0.478,-0.124C0.456,-0.09 0.433,-0.066 0.409,-0.051C0.403,-0.048 0.396,-0.041 0.388,-0.031C0.368,-0.008 0.347,0.005 0.327,0.008C0.3,0.011 0.273,0.013 0.248,0.013C0.255,0.014 0.263,0.012 0.274,0.009C0.285,0.006 0.297,0.003 0.311,0.001C0.325,-0.001 0.341,-0.01 0.359,-0.026C0.378,-0.042 0.388,-0.05 0.389,-0.051C0.413,-0.065 0.436,-0.09 0.458,-0.124C0.461,-0.129 0.464,-0.134 0.465,-0.141C0.466,-0.147 0.469,-0.155 0.474,-0.163C0.482,-0.174 0.486,-0.195 0.486,-0.226C0.486,-0.256 0.481,-0.283 0.47,-0.306C0.469,-0.309 0.463,-0.317 0.451,-0.33C0.44,-0.343 0.432,-0.354 0.426,-0.363C0.42,-0.373 0.413,-0.381 0.404,-0.387C0.396,-0.393 0.389,-0.398 0.384,-0.401ZM0.263,-0.649C0.256,-0.649 0.248,-0.645 0.237,-0.637C0.218,-0.622 0.208,-0.602 0.208,-0.577C0.208,-0.552 0.22,-0.526 0.243,-0.5C0.266,-0.475 0.282,-0.461 0.29,-0.458L0.331,-0.434C0.332,-0.433 0.335,-0.436 0.342,-0.44C0.363,-0.456 0.377,-0.471 0.382,-0.483C0.388,-0.495 0.393,-0.517 0.398,-0.55C0.398,-0.559 0.395,-0.57 0.387,-0.585C0.379,-0.6 0.374,-0.609 0.371,-0.612C0.368,-0.615 0.363,-0.619 0.358,-0.624C0.352,-0.628 0.346,-0.633 0.338,-0.638C0.331,-0.643 0.325,-0.646 0.32,-0.649C0.316,-0.652 0.307,-0.653 0.293,-0.651C0.279,-0.65 0.269,-0.649 0.263,-0.649ZM0.409,-0.117C0.405,-0.117 0.398,-0.116 0.39,-0.116C0.382,-0.116 0.378,-0.12 0.378,-0.129C0.378,-0.13 0.384,-0.133 0.397,-0.136C0.41,-0.138 0.419,-0.138 0.425,-0.136C0.427,-0.136 0.431,-0.144 0.437,-0.158C0.425,-0.156 0.415,-0.154 0.408,-0.154L0.383,-0.154C0.38,-0.152 0.378,-0.155 0.378,-0.163C0.378,-0.171 0.38,-0.175 0.384,-0.176C0.388,-0.177 0.391,-0.178 0.393,-0.179C0.394,-0.179 0.408,-0.18 0.434,-0.18L0.442,-0.18C0.443,-0.187 0.444,-0.192 0.444,-0.196C0.417,-0.196 0.401,-0.197 0.394,-0.198L0.375,-0.198C0.373,-0.198 0.373,-0.201 0.373,-0.206C0.374,-0.21 0.375,-0.214 0.377,-0.217C0.379,-0.219 0.386,-0.22 0.398,-0.218C0.41,-0.216 0.427,-0.217 0.448,-0.221L0.447,-0.242L0.441,-0.242C0.42,-0.242 0.403,-0.241 0.392,-0.239C0.38,-0.237 0.373,-0.237 0.37,-0.239C0.368,-0.241 0.368,-0.245 0.37,-0.25C0.373,-0.254 0.375,-0.257 0.377,-0.258C0.39,-0.26 0.411,-0.263 0.441,-0.265L0.436,-0.28C0.431,-0.279 0.419,-0.279 0.402,-0.279C0.385,-0.28 0.376,-0.28 0.374,-0.281C0.371,-0.281 0.368,-0.281 0.362,-0.28C0.357,-0.279 0.353,-0.279 0.351,-0.279C0.349,-0.279 0.347,-0.284 0.344,-0.293C0.341,-0.299 0.368,-0.305 0.424,-0.308L0.415,-0.323C0.409,-0.321 0.405,-0.32 0.403,-0.319C0.401,-0.319 0.381,-0.318 0.342,-0.318C0.333,-0.318 0.327,-0.32 0.324,-0.323C0.318,-0.331 0.322,-0.336 0.337,-0.339C0.345,-0.341 0.351,-0.342 0.355,-0.342C0.359,-0.342 0.372,-0.343 0.395,-0.346L0.38,-0.362C0.379,-0.361 0.375,-0.361 0.368,-0.36C0.362,-0.36 0.357,-0.359 0.354,-0.358C0.35,-0.357 0.33,-0.356 0.294,-0.356C0.293,-0.356 0.29,-0.358 0.285,-0.364C0.279,-0.37 0.281,-0.375 0.291,-0.378C0.294,-0.379 0.304,-0.38 0.321,-0.381C0.337,-0.383 0.349,-0.386 0.355,-0.39L0.337,-0.403L0.314,-0.401C0.298,-0.399 0.28,-0.398 0.26,-0.398C0.24,-0.398 0.229,-0.399 0.227,-0.4C0.225,-0.401 0.224,-0.403 0.223,-0.405C0.222,-0.408 0.221,-0.409 0.22,-0.41C0.217,-0.415 0.22,-0.418 0.23,-0.421C0.254,-0.424 0.276,-0.427 0.296,-0.429L0.275,-0.441C0.27,-0.442 0.259,-0.442 0.244,-0.442L0.171,-0.441C0.167,-0.441 0.165,-0.444 0.165,-0.449C0.165,-0.454 0.167,-0.458 0.17,-0.461C0.174,-0.464 0.177,-0.465 0.18,-0.465C0.22,-0.465 0.242,-0.467 0.246,-0.47C0.237,-0.479 0.232,-0.484 0.23,-0.485L0.148,-0.482C0.14,-0.482 0.135,-0.484 0.132,-0.487C0.13,-0.491 0.133,-0.497 0.141,-0.505L0.203,-0.511L0.198,-0.526C0.171,-0.521 0.156,-0.52 0.152,-0.522C0.149,-0.524 0.145,-0.524 0.14,-0.523C0.134,-0.522 0.131,-0.521 0.13,-0.521C0.125,-0.522 0.125,-0.528 0.13,-0.539C0.131,-0.544 0.136,-0.546 0.145,-0.544C0.153,-0.543 0.167,-0.543 0.188,-0.546C0.185,-0.549 0.183,-0.553 0.182,-0.56L0.155,-0.556C0.147,-0.555 0.142,-0.556 0.14,-0.561C0.137,-0.565 0.14,-0.571 0.148,-0.579C0.15,-0.58 0.153,-0.58 0.159,-0.58C0.165,-0.58 0.169,-0.581 0.172,-0.582C0.174,-0.583 0.178,-0.582 0.182,-0.581L0.185,-0.607C0.185,-0.608 0.181,-0.606 0.174,-0.602C0.167,-0.597 0.16,-0.593 0.154,-0.59C0.143,-0.59 0.132,-0.582 0.122,-0.566C0.112,-0.551 0.106,-0.535 0.105,-0.519C0.105,-0.492 0.112,-0.469 0.126,-0.449C0.141,-0.429 0.168,-0.408 0.207,-0.384C0.246,-0.361 0.269,-0.347 0.275,-0.342C0.293,-0.329 0.306,-0.311 0.316,-0.287C0.319,-0.28 0.324,-0.268 0.332,-0.252C0.339,-0.236 0.346,-0.219 0.352,-0.201C0.357,-0.183 0.36,-0.159 0.36,-0.128C0.36,-0.098 0.354,-0.076 0.343,-0.061C0.345,-0.061 0.355,-0.068 0.372,-0.083C0.37,-0.083 0.369,-0.085 0.368,-0.088C0.368,-0.091 0.368,-0.094 0.369,-0.098C0.37,-0.101 0.378,-0.102 0.394,-0.102L0.409,-0.117ZM0.329,-0.154C0.329,-0.157 0.326,-0.176 0.318,-0.211C0.311,-0.247 0.294,-0.275 0.267,-0.297C0.26,-0.305 0.249,-0.313 0.234,-0.322C0.22,-0.331 0.213,-0.336 0.213,-0.335C0.195,-0.332 0.184,-0.33 0.182,-0.328C0.18,-0.326 0.174,-0.323 0.164,-0.317C0.155,-0.312 0.148,-0.306 0.144,-0.299C0.14,-0.292 0.132,-0.284 0.12,-0.275C0.108,-0.265 0.1,-0.257 0.096,-0.251C0.093,-0.244 0.09,-0.237 0.088,-0.229C0.086,-0.221 0.083,-0.213 0.081,-0.204C0.078,-0.196 0.076,-0.184 0.076,-0.169L0.081,-0.132C0.081,-0.106 0.089,-0.085 0.106,-0.066C0.13,-0.04 0.165,-0.027 0.21,-0.027C0.228,-0.027 0.241,-0.028 0.25,-0.03C0.259,-0.032 0.278,-0.044 0.306,-0.066C0.321,-0.079 0.329,-0.108 0.329,-0.154ZM0.432,-0.538C0.432,-0.521 0.421,-0.492 0.398,-0.448C0.394,-0.442 0.389,-0.437 0.384,-0.432L0.371,-0.418C0.368,-0.416 0.366,-0.413 0.366,-0.411C0.366,-0.408 0.369,-0.405 0.374,-0.401C0.379,-0.397 0.386,-0.393 0.395,-0.387C0.403,-0.381 0.41,-0.373 0.416,-0.363C0.421,-0.354 0.43,-0.343 0.441,-0.33C0.452,-0.317 0.459,-0.309 0.46,-0.306C0.471,-0.283 0.476,-0.256 0.476,-0.226C0.476,-0.195 0.472,-0.174 0.464,-0.163C0.459,-0.154 0.456,-0.147 0.455,-0.141C0.454,-0.134 0.451,-0.129 0.448,-0.124C0.426,-0.09 0.403,-0.066 0.379,-0.051C0.374,-0.048 0.364,-0.04 0.35,-0.027C0.336,-0.014 0.319,-0.006 0.298,-0.002C0.255,0.004 0.232,0.007 0.229,0.007L0.192,0.009C0.181,0.009 0.168,0.007 0.154,0.002C0.106,-0.015 0.078,-0.03 0.071,-0.041C0.068,-0.046 0.06,-0.055 0.045,-0.068C0.031,-0.082 0.023,-0.092 0.022,-0.098C0.011,-0.129 0.007,-0.156 0.011,-0.18C0.014,-0.204 0.019,-0.221 0.025,-0.229C0.031,-0.238 0.038,-0.249 0.046,-0.262C0.054,-0.274 0.061,-0.283 0.066,-0.287C0.072,-0.292 0.077,-0.298 0.082,-0.306C0.093,-0.325 0.109,-0.339 0.128,-0.347C0.157,-0.359 0.173,-0.365 0.174,-0.366C0.175,-0.368 0.174,-0.369 0.171,-0.372C0.168,-0.375 0.162,-0.378 0.155,-0.383C0.148,-0.388 0.144,-0.391 0.143,-0.393C0.141,-0.394 0.138,-0.396 0.134,-0.397C0.118,-0.406 0.108,-0.416 0.104,-0.427C0.1,-0.438 0.093,-0.449 0.083,-0.459C0.074,-0.469 0.069,-0.476 0.068,-0.48C0.067,-0.491 0.066,-0.504 0.066,-0.519L0.067,-0.548C0.068,-0.571 0.08,-0.591 0.103,-0.609C0.117,-0.619 0.128,-0.628 0.135,-0.634C0.143,-0.641 0.149,-0.645 0.152,-0.646C0.156,-0.648 0.165,-0.65 0.181,-0.652C0.196,-0.655 0.205,-0.657 0.206,-0.66C0.213,-0.672 0.236,-0.679 0.278,-0.682C0.316,-0.682 0.344,-0.676 0.361,-0.663C0.408,-0.628 0.432,-0.587 0.432,-0.538Z" style="fill-rule:nonzero;"/>
            </g>
        </g>
    </g>
</svg>
