<?xml version="1.0" encoding="UTF-8" standalone="no"?>
<!DOCTYPE svg PUBLIC "-//W3C//DTD SVG 1.1//EN" "http://www.w3.org/Graphics/SVG/1.1/DTD/svg11.dtd">
<svg width="23px" height="45px" version="1.1" xmlns="http://www.w3.org/2000/svg" xmlns:xlink="http://www.w3.org/1999/xlink" xml:space="preserve" xmlns:serif="http://www.serif.com/" style="fill-rule:evenodd;clip-rule:evenodd;stroke-linejoin:round;stroke-miterlimit:2;">
    <g transform="matrix(1,0,0,1,-309.469,-732.979)">
        <g transform="matrix(1,0,0,1,-54,-40.9135)">
            <g transform="matrix(103.725,0,0,64,362,817.217)">
                <path d="M0.194,-0.15C0.194,-0.154 0.193,-0.169 0.19,-0.195C0.19,-0.195 0.191,-0.213 0.194,-0.246L0.195,-0.278L0.193,-0.388L0.192,-0.43L0.198,-0.473L0.196,-0.523C0.196,-0.562 0.197,-0.6 0.198,-0.639C0.198,-0.652 0.195,-0.661 0.188,-0.667C0.182,-0.673 0.176,-0.676 0.17,-0.676C0.178,-0.678 0.189,-0.677 0.201,-0.67C0.214,-0.664 0.219,-0.654 0.218,-0.639C0.216,-0.6 0.216,-0.562 0.216,-0.523L0.218,-0.473L0.212,-0.43L0.213,-0.388L0.215,-0.278L0.214,-0.246C0.211,-0.213 0.21,-0.196 0.21,-0.195C0.213,-0.169 0.214,-0.154 0.214,-0.15L0.213,-0.127C0.213,-0.125 0.212,-0.115 0.21,-0.096C0.209,-0.077 0.21,-0.06 0.215,-0.046L0.205,-0.045C0.201,-0.045 0.199,-0.047 0.197,-0.051C0.194,-0.063 0.193,-0.089 0.193,-0.127L0.194,-0.15ZM0.093,-0.231C0.091,-0.22 0.09,-0.207 0.09,-0.192C0.09,-0.177 0.09,-0.163 0.092,-0.15L0.095,-0.087L0.088,-0.042C0.088,-0.04 0.097,-0.039 0.116,-0.039C0.135,-0.039 0.146,-0.04 0.15,-0.042C0.153,-0.044 0.156,-0.05 0.157,-0.059L0.147,-0.058C0.138,-0.057 0.131,-0.058 0.126,-0.062C0.124,-0.063 0.123,-0.065 0.124,-0.068C0.125,-0.08 0.136,-0.083 0.157,-0.078L0.157,-0.095L0.151,-0.095C0.143,-0.095 0.135,-0.094 0.125,-0.093C0.123,-0.093 0.122,-0.094 0.121,-0.098C0.12,-0.101 0.119,-0.104 0.12,-0.106C0.122,-0.111 0.131,-0.113 0.147,-0.112L0.158,-0.112L0.159,-0.127L0.133,-0.126C0.125,-0.126 0.121,-0.13 0.121,-0.139C0.121,-0.14 0.126,-0.143 0.135,-0.147C0.144,-0.152 0.152,-0.153 0.158,-0.15C0.157,-0.156 0.156,-0.161 0.156,-0.165C0.154,-0.164 0.151,-0.164 0.148,-0.164L0.123,-0.164C0.12,-0.162 0.118,-0.168 0.118,-0.181C0.118,-0.187 0.131,-0.19 0.157,-0.19C0.158,-0.194 0.158,-0.201 0.158,-0.209L0.136,-0.208L0.117,-0.208C0.116,-0.208 0.115,-0.21 0.115,-0.215C0.116,-0.22 0.117,-0.224 0.119,-0.227C0.121,-0.229 0.127,-0.23 0.137,-0.228C0.146,-0.226 0.153,-0.226 0.157,-0.229C0.157,-0.236 0.157,-0.244 0.156,-0.252L0.139,-0.249C0.13,-0.248 0.124,-0.248 0.121,-0.25C0.118,-0.251 0.118,-0.254 0.121,-0.259C0.124,-0.264 0.126,-0.267 0.128,-0.268C0.13,-0.268 0.139,-0.269 0.155,-0.271L0.155,-0.29C0.15,-0.29 0.146,-0.29 0.145,-0.291C0.143,-0.292 0.139,-0.292 0.134,-0.291C0.129,-0.29 0.125,-0.289 0.124,-0.289C0.12,-0.289 0.118,-0.291 0.118,-0.295L0.118,-0.3C0.118,-0.301 0.119,-0.303 0.122,-0.306C0.125,-0.308 0.128,-0.31 0.131,-0.311C0.134,-0.312 0.143,-0.312 0.157,-0.312L0.16,-0.328L0.136,-0.328C0.127,-0.328 0.122,-0.33 0.119,-0.333C0.116,-0.336 0.115,-0.339 0.117,-0.342C0.118,-0.345 0.12,-0.347 0.123,-0.348C0.146,-0.352 0.158,-0.354 0.159,-0.353C0.159,-0.36 0.159,-0.365 0.158,-0.369C0.153,-0.367 0.142,-0.366 0.126,-0.366C0.123,-0.366 0.118,-0.369 0.113,-0.374C0.108,-0.379 0.111,-0.384 0.123,-0.388C0.127,-0.389 0.133,-0.39 0.14,-0.391C0.148,-0.391 0.153,-0.392 0.156,-0.393C0.155,-0.397 0.155,-0.403 0.155,-0.41C0.144,-0.409 0.136,-0.408 0.131,-0.408C0.126,-0.408 0.122,-0.409 0.121,-0.41C0.119,-0.411 0.118,-0.413 0.117,-0.416C0.116,-0.418 0.115,-0.419 0.114,-0.42C0.111,-0.424 0.114,-0.428 0.124,-0.431C0.129,-0.432 0.139,-0.434 0.154,-0.435L0.154,-0.452L0.117,-0.45C0.114,-0.45 0.112,-0.455 0.112,-0.464C0.112,-0.468 0.118,-0.471 0.13,-0.471C0.142,-0.471 0.151,-0.471 0.156,-0.472C0.158,-0.486 0.159,-0.494 0.159,-0.495L0.137,-0.492C0.121,-0.49 0.115,-0.495 0.118,-0.506C0.119,-0.51 0.121,-0.514 0.123,-0.516C0.124,-0.517 0.129,-0.517 0.138,-0.517C0.146,-0.517 0.154,-0.517 0.16,-0.518L0.159,-0.533C0.157,-0.533 0.151,-0.532 0.142,-0.532C0.132,-0.532 0.126,-0.533 0.122,-0.534C0.118,-0.535 0.119,-0.54 0.124,-0.551C0.125,-0.556 0.133,-0.557 0.147,-0.553C0.149,-0.553 0.153,-0.552 0.159,-0.552C0.159,-0.558 0.159,-0.563 0.158,-0.567L0.147,-0.566C0.139,-0.565 0.134,-0.566 0.132,-0.57C0.129,-0.575 0.132,-0.581 0.14,-0.589C0.141,-0.59 0.146,-0.59 0.156,-0.59L0.158,-0.61L0.11,-0.572C0.102,-0.566 0.097,-0.556 0.096,-0.541C0.094,-0.526 0.093,-0.51 0.093,-0.492L0.096,-0.394L0.094,-0.324L0.095,-0.28C0.096,-0.258 0.095,-0.242 0.093,-0.231ZM0.04,0.005C0.031,-0.003 0.027,-0.009 0.027,-0.016C0.027,-0.022 0.028,-0.027 0.029,-0.031C0.03,-0.034 0.037,-0.038 0.051,-0.041C0.064,-0.044 0.071,-0.05 0.071,-0.057C0.071,-0.059 0.07,-0.088 0.068,-0.143L0.071,-0.239L0.064,-0.319C0.064,-0.36 0.066,-0.396 0.069,-0.425L0.072,-0.511C0.072,-0.516 0.07,-0.518 0.068,-0.518L0.047,-0.506L0.041,-0.505C0.023,-0.505 0.014,-0.511 0.014,-0.523C0.014,-0.548 0.021,-0.56 0.034,-0.56C0.057,-0.569 0.07,-0.579 0.074,-0.59C0.078,-0.597 0.085,-0.605 0.096,-0.613C0.107,-0.621 0.12,-0.634 0.134,-0.651C0.143,-0.664 0.151,-0.671 0.16,-0.671C0.179,-0.671 0.188,-0.66 0.188,-0.639C0.187,-0.6 0.186,-0.562 0.186,-0.523L0.188,-0.473L0.182,-0.43L0.183,-0.388L0.185,-0.278L0.184,-0.246C0.181,-0.213 0.18,-0.196 0.18,-0.195C0.183,-0.169 0.184,-0.154 0.184,-0.15L0.183,-0.127C0.183,-0.089 0.184,-0.063 0.187,-0.051C0.19,-0.043 0.197,-0.04 0.206,-0.04L0.216,-0.041C0.223,-0.041 0.227,-0.031 0.227,-0.011C0.225,-0.005 0.222,-0.001 0.217,0C0.203,0.003 0.192,0.005 0.182,0.005L0.156,0.013L0.147,0.011C0.13,0.005 0.114,0.001 0.099,0.001L0.049,0.007C0.046,0.007 0.043,0.006 0.04,0.005Z" style="fill-rule:nonzero;"/>
            </g>
        </g>
    </g>
</svg>
