<?xml version="1.0" encoding="UTF-8" standalone="no"?>
<!DOCTYPE svg PUBLIC "-//W3C//DTD SVG 1.1//EN" "http://www.w3.org/Graphics/SVG/1.1/DTD/svg11.dtd">
<svg width="51px" height="45px" version="1.1" xmlns="http://www.w3.org/2000/svg" xmlns:xlink="http://www.w3.org/1999/xlink" xml:space="preserve" xmlns:serif="http://www.serif.com/" style="fill-rule:evenodd;clip-rule:evenodd;stroke-linejoin:round;stroke-miterlimit:2;">
    <g transform="matrix(1,0,0,1,-359.508,-732.662)">
        <g transform="matrix(1,0,0,1,-54,-40.9135)">
            <g transform="matrix(103.725,0,0,64,411.634,817.217)">
                <path d="M0.483,-0.088C0.486,-0.097 0.488,-0.104 0.488,-0.108C0.488,-0.112 0.485,-0.117 0.48,-0.122C0.497,-0.12 0.504,-0.11 0.501,-0.091C0.5,-0.088 0.5,-0.086 0.5,-0.083C0.499,-0.081 0.498,-0.077 0.495,-0.071C0.493,-0.065 0.49,-0.061 0.488,-0.06C0.486,-0.058 0.484,-0.054 0.48,-0.05C0.45,-0.007 0.412,0.017 0.366,0.02C0.38,0.019 0.393,0.014 0.405,0.006C0.418,-0.001 0.426,-0.008 0.43,-0.013C0.463,-0.054 0.481,-0.079 0.483,-0.088ZM0.23,-0.561C0.24,-0.544 0.245,-0.527 0.245,-0.51C0.245,-0.493 0.234,-0.476 0.213,-0.459C0.191,-0.442 0.173,-0.433 0.157,-0.433C0.168,-0.437 0.182,-0.446 0.199,-0.459C0.216,-0.473 0.225,-0.49 0.225,-0.508C0.225,-0.526 0.22,-0.544 0.21,-0.561C0.201,-0.577 0.196,-0.59 0.196,-0.597C0.196,-0.604 0.201,-0.608 0.211,-0.61C0.221,-0.612 0.231,-0.612 0.24,-0.611C0.224,-0.608 0.216,-0.603 0.216,-0.596C0.216,-0.589 0.221,-0.577 0.23,-0.561ZM0.147,-0.508C0.153,-0.508 0.157,-0.508 0.161,-0.509C0.165,-0.51 0.172,-0.509 0.182,-0.507L0.183,-0.522C0.161,-0.522 0.149,-0.522 0.148,-0.523C0.147,-0.524 0.143,-0.524 0.138,-0.523C0.132,-0.522 0.129,-0.521 0.128,-0.521C0.123,-0.522 0.123,-0.528 0.128,-0.539C0.129,-0.544 0.135,-0.546 0.144,-0.543C0.153,-0.541 0.166,-0.542 0.181,-0.545C0.181,-0.546 0.181,-0.547 0.18,-0.549L0.177,-0.561L0.141,-0.556C0.134,-0.555 0.129,-0.556 0.126,-0.561C0.123,-0.565 0.126,-0.571 0.134,-0.579C0.135,-0.58 0.139,-0.581 0.145,-0.582C0.15,-0.583 0.155,-0.583 0.157,-0.584C0.152,-0.587 0.145,-0.59 0.137,-0.591C0.121,-0.591 0.107,-0.586 0.094,-0.573C0.082,-0.561 0.075,-0.548 0.074,-0.533C0.074,-0.518 0.075,-0.507 0.078,-0.499C0.081,-0.491 0.084,-0.485 0.087,-0.481C0.091,-0.478 0.097,-0.473 0.105,-0.467C0.113,-0.461 0.125,-0.459 0.141,-0.462C0.156,-0.465 0.167,-0.47 0.172,-0.479L0.177,-0.487L0.143,-0.484C0.136,-0.482 0.131,-0.484 0.128,-0.488C0.125,-0.493 0.128,-0.499 0.136,-0.507C0.138,-0.507 0.142,-0.508 0.147,-0.508ZM0.244,-0.091C0.239,-0.091 0.225,-0.092 0.201,-0.095C0.191,-0.095 0.177,-0.089 0.158,-0.078C0.14,-0.066 0.131,-0.06 0.131,-0.059C0.133,-0.06 0.139,-0.06 0.149,-0.06C0.159,-0.06 0.173,-0.058 0.192,-0.055C0.196,-0.054 0.204,-0.05 0.217,-0.046C0.229,-0.041 0.237,-0.039 0.241,-0.039C0.245,-0.039 0.257,-0.036 0.278,-0.03C0.298,-0.024 0.313,-0.022 0.322,-0.022C0.331,-0.022 0.341,-0.021 0.353,-0.021C0.365,-0.02 0.378,-0.022 0.392,-0.029L0.376,-0.032L0.35,-0.03C0.348,-0.03 0.347,-0.032 0.346,-0.035C0.345,-0.038 0.345,-0.042 0.346,-0.044C0.347,-0.047 0.355,-0.048 0.37,-0.046C0.385,-0.045 0.399,-0.048 0.412,-0.057C0.401,-0.056 0.386,-0.057 0.367,-0.06C0.337,-0.056 0.321,-0.053 0.32,-0.053L0.294,-0.051C0.292,-0.051 0.291,-0.052 0.29,-0.056C0.289,-0.059 0.289,-0.063 0.29,-0.066C0.291,-0.07 0.297,-0.071 0.306,-0.07C0.315,-0.069 0.324,-0.069 0.334,-0.071C0.326,-0.074 0.313,-0.077 0.292,-0.081L0.26,-0.074C0.252,-0.074 0.244,-0.073 0.234,-0.072C0.232,-0.072 0.23,-0.074 0.229,-0.077C0.229,-0.08 0.228,-0.083 0.229,-0.085C0.229,-0.088 0.234,-0.09 0.244,-0.091ZM0.472,-0.49C0.472,-0.471 0.47,-0.447 0.465,-0.42C0.46,-0.393 0.454,-0.375 0.448,-0.368C0.442,-0.36 0.433,-0.341 0.421,-0.311C0.409,-0.28 0.4,-0.262 0.396,-0.256C0.391,-0.25 0.383,-0.242 0.372,-0.23C0.361,-0.219 0.353,-0.209 0.347,-0.2C0.34,-0.191 0.331,-0.183 0.319,-0.175C0.308,-0.168 0.299,-0.159 0.294,-0.149C0.29,-0.14 0.287,-0.134 0.288,-0.134C0.301,-0.134 0.322,-0.13 0.349,-0.122C0.376,-0.114 0.399,-0.111 0.42,-0.114C0.422,-0.113 0.427,-0.116 0.435,-0.12C0.442,-0.125 0.448,-0.127 0.451,-0.127C0.44,-0.116 0.43,-0.109 0.418,-0.104C0.407,-0.1 0.399,-0.099 0.393,-0.1C0.386,-0.101 0.379,-0.103 0.371,-0.105C0.363,-0.108 0.345,-0.112 0.318,-0.117C0.291,-0.122 0.271,-0.125 0.256,-0.125C0.257,-0.128 0.259,-0.132 0.265,-0.138C0.27,-0.144 0.274,-0.149 0.277,-0.155C0.28,-0.162 0.288,-0.169 0.299,-0.176C0.311,-0.183 0.32,-0.191 0.326,-0.2C0.333,-0.209 0.341,-0.219 0.352,-0.23C0.363,-0.242 0.371,-0.25 0.375,-0.256C0.38,-0.262 0.389,-0.28 0.401,-0.311C0.413,-0.341 0.422,-0.36 0.428,-0.368C0.434,-0.376 0.439,-0.393 0.444,-0.42C0.449,-0.447 0.452,-0.47 0.452,-0.49C0.452,-0.536 0.446,-0.567 0.433,-0.583C0.43,-0.587 0.422,-0.596 0.409,-0.609C0.396,-0.622 0.386,-0.633 0.378,-0.642C0.371,-0.65 0.359,-0.659 0.341,-0.667C0.324,-0.675 0.304,-0.68 0.282,-0.68C0.306,-0.684 0.329,-0.681 0.354,-0.672C0.378,-0.663 0.393,-0.653 0.398,-0.643C0.404,-0.632 0.414,-0.62 0.429,-0.606C0.444,-0.593 0.452,-0.585 0.453,-0.583C0.466,-0.567 0.472,-0.536 0.472,-0.49ZM0.356,-0.542C0.359,-0.549 0.362,-0.552 0.363,-0.554C0.365,-0.555 0.368,-0.556 0.373,-0.555C0.377,-0.555 0.384,-0.554 0.393,-0.552C0.39,-0.557 0.387,-0.563 0.383,-0.57L0.363,-0.566C0.355,-0.565 0.35,-0.567 0.347,-0.573C0.343,-0.579 0.344,-0.584 0.348,-0.588C0.35,-0.589 0.355,-0.59 0.364,-0.59L0.349,-0.603C0.347,-0.604 0.344,-0.604 0.338,-0.604C0.332,-0.603 0.328,-0.602 0.327,-0.603C0.326,-0.603 0.325,-0.605 0.324,-0.609C0.323,-0.614 0.325,-0.617 0.331,-0.62C0.322,-0.626 0.315,-0.629 0.309,-0.629C0.309,-0.628 0.314,-0.617 0.323,-0.597C0.333,-0.577 0.34,-0.559 0.344,-0.541L0.35,-0.515C0.35,-0.51 0.35,-0.504 0.349,-0.498L0.343,-0.448L0.343,-0.412C0.343,-0.411 0.342,-0.409 0.34,-0.405C0.339,-0.402 0.338,-0.398 0.338,-0.393C0.338,-0.388 0.337,-0.383 0.335,-0.377C0.333,-0.371 0.33,-0.363 0.326,-0.353C0.322,-0.343 0.319,-0.334 0.316,-0.326C0.314,-0.318 0.304,-0.298 0.288,-0.265L0.233,-0.16C0.248,-0.172 0.265,-0.188 0.282,-0.208L0.281,-0.208C0.279,-0.208 0.278,-0.21 0.279,-0.215C0.279,-0.22 0.281,-0.224 0.283,-0.227C0.286,-0.229 0.292,-0.23 0.301,-0.228L0.317,-0.248C0.31,-0.247 0.306,-0.247 0.304,-0.249C0.301,-0.251 0.302,-0.254 0.304,-0.259C0.307,-0.264 0.309,-0.267 0.311,-0.268L0.331,-0.27L0.34,-0.29C0.338,-0.289 0.335,-0.289 0.331,-0.289C0.325,-0.289 0.321,-0.292 0.32,-0.299C0.319,-0.301 0.321,-0.303 0.323,-0.307C0.326,-0.31 0.328,-0.312 0.331,-0.313L0.356,-0.312C0.359,-0.317 0.363,-0.322 0.366,-0.328L0.362,-0.328C0.353,-0.328 0.347,-0.33 0.344,-0.333C0.341,-0.336 0.341,-0.34 0.343,-0.343C0.345,-0.347 0.35,-0.349 0.359,-0.35C0.368,-0.351 0.375,-0.352 0.378,-0.353L0.385,-0.367C0.38,-0.367 0.373,-0.366 0.366,-0.366C0.359,-0.366 0.354,-0.367 0.353,-0.369C0.351,-0.37 0.351,-0.374 0.354,-0.379C0.356,-0.385 0.362,-0.388 0.372,-0.39C0.382,-0.391 0.388,-0.391 0.391,-0.392L0.396,-0.409C0.391,-0.409 0.385,-0.408 0.376,-0.408C0.367,-0.408 0.361,-0.41 0.358,-0.414C0.352,-0.422 0.355,-0.428 0.367,-0.432C0.377,-0.434 0.389,-0.435 0.405,-0.435C0.406,-0.443 0.407,-0.449 0.407,-0.452L0.399,-0.452L0.37,-0.451C0.366,-0.451 0.364,-0.455 0.364,-0.464C0.364,-0.469 0.37,-0.472 0.382,-0.472C0.395,-0.472 0.403,-0.472 0.408,-0.473C0.408,-0.478 0.407,-0.486 0.406,-0.495L0.385,-0.492C0.378,-0.491 0.372,-0.493 0.369,-0.499C0.363,-0.51 0.368,-0.516 0.384,-0.516C0.393,-0.516 0.398,-0.516 0.401,-0.517L0.397,-0.532C0.388,-0.532 0.38,-0.532 0.374,-0.531C0.368,-0.531 0.363,-0.531 0.358,-0.531C0.354,-0.532 0.353,-0.535 0.356,-0.542ZM0.465,-0.125C0.474,-0.125 0.478,-0.12 0.478,-0.111C0.478,-0.094 0.466,-0.07 0.442,-0.04C0.415,-0.003 0.38,0.015 0.337,0.015C0.323,0.015 0.305,0.013 0.281,0.008C0.258,0.003 0.243,0 0.235,-0.001C0.228,-0.002 0.216,-0.007 0.198,-0.014C0.18,-0.022 0.159,-0.026 0.133,-0.026C0.108,-0.027 0.092,-0.023 0.085,-0.014C0.079,-0.006 0.068,0.002 0.052,0.009C0.047,0.01 0.043,0.011 0.041,0.011C0.031,0.011 0.024,0.005 0.019,-0.009C0.018,-0.01 0.018,-0.012 0.018,-0.015C0.018,-0.028 0.03,-0.042 0.055,-0.059C0.062,-0.064 0.074,-0.071 0.091,-0.081C0.108,-0.091 0.12,-0.099 0.127,-0.105C0.133,-0.111 0.14,-0.117 0.148,-0.123C0.155,-0.13 0.161,-0.134 0.164,-0.138C0.167,-0.141 0.171,-0.145 0.176,-0.148C0.181,-0.153 0.185,-0.156 0.187,-0.158C0.188,-0.16 0.193,-0.164 0.201,-0.171C0.208,-0.177 0.213,-0.187 0.216,-0.199C0.225,-0.227 0.234,-0.245 0.242,-0.256C0.25,-0.266 0.259,-0.283 0.269,-0.305C0.278,-0.327 0.287,-0.346 0.294,-0.361C0.302,-0.377 0.308,-0.397 0.312,-0.422C0.316,-0.447 0.318,-0.466 0.318,-0.48C0.318,-0.495 0.315,-0.514 0.308,-0.538C0.302,-0.561 0.298,-0.576 0.298,-0.584C0.289,-0.608 0.264,-0.62 0.224,-0.62C0.215,-0.62 0.207,-0.618 0.2,-0.613C0.193,-0.608 0.19,-0.601 0.19,-0.592C0.19,-0.583 0.194,-0.569 0.202,-0.55C0.21,-0.531 0.213,-0.514 0.212,-0.5C0.211,-0.487 0.2,-0.472 0.181,-0.457C0.161,-0.441 0.141,-0.433 0.122,-0.433C0.102,-0.433 0.084,-0.441 0.068,-0.458C0.053,-0.474 0.045,-0.495 0.045,-0.521C0.045,-0.546 0.051,-0.567 0.064,-0.582C0.065,-0.583 0.068,-0.585 0.074,-0.587C0.08,-0.59 0.083,-0.592 0.084,-0.594C0.086,-0.605 0.094,-0.615 0.106,-0.623C0.119,-0.632 0.126,-0.636 0.127,-0.637C0.135,-0.645 0.155,-0.654 0.186,-0.662C0.242,-0.677 0.29,-0.678 0.33,-0.663C0.35,-0.656 0.363,-0.648 0.369,-0.641C0.376,-0.633 0.385,-0.623 0.398,-0.609C0.411,-0.596 0.42,-0.587 0.423,-0.583C0.436,-0.567 0.442,-0.536 0.442,-0.49C0.442,-0.471 0.439,-0.447 0.435,-0.42C0.429,-0.393 0.424,-0.375 0.418,-0.368C0.412,-0.36 0.403,-0.341 0.391,-0.311C0.379,-0.28 0.37,-0.262 0.365,-0.256C0.36,-0.25 0.352,-0.242 0.342,-0.23C0.331,-0.219 0.323,-0.209 0.316,-0.2C0.31,-0.191 0.301,-0.183 0.29,-0.175C0.278,-0.168 0.27,-0.16 0.266,-0.151C0.261,-0.143 0.255,-0.135 0.246,-0.127C0.242,-0.125 0.239,-0.122 0.236,-0.119C0.25,-0.119 0.273,-0.116 0.305,-0.11C0.336,-0.104 0.358,-0.1 0.37,-0.096C0.382,-0.093 0.395,-0.091 0.406,-0.091C0.418,-0.091 0.43,-0.097 0.442,-0.108C0.455,-0.119 0.462,-0.125 0.465,-0.125Z" style="fill-rule:nonzero;"/>
            </g>
        </g>
    </g>
</svg>
