<?xml version="1.0" encoding="UTF-8" standalone="no"?>
<!DOCTYPE svg PUBLIC "-//W3C//DTD SVG 1.1//EN" "http://www.w3.org/Graphics/SVG/1.1/DTD/svg11.dtd">
<svg width="50px" height="44px" version="1.1" xmlns="http://www.w3.org/2000/svg" xmlns:xlink="http://www.w3.org/1999/xlink" xml:space="preserve" xmlns:serif="http://www.serif.com/" style="fill-rule:evenodd;clip-rule:evenodd;stroke-linejoin:round;stroke-miterlimit:2;">
    <g transform="matrix(1,0,0,1,-466.93,-989.065)">
        <g transform="matrix(1,0,0,1,-54,-40.9135)">
            <g transform="matrix(103.725,0,0,64,519.36,1073.22)">
                <path d="M0.166,-0.111C0.171,-0.122 0.173,-0.133 0.173,-0.145C0.173,-0.156 0.167,-0.167 0.154,-0.18C0.141,-0.193 0.126,-0.199 0.11,-0.199C0.128,-0.202 0.146,-0.197 0.165,-0.184C0.184,-0.171 0.193,-0.155 0.193,-0.138C0.193,-0.132 0.191,-0.123 0.186,-0.111C0.181,-0.097 0.179,-0.083 0.181,-0.069C0.183,-0.055 0.189,-0.048 0.201,-0.046C0.185,-0.046 0.174,-0.049 0.168,-0.057C0.158,-0.07 0.157,-0.088 0.166,-0.111ZM0.097,-0.099L0.097,-0.106C0.099,-0.109 0.107,-0.111 0.121,-0.111C0.122,-0.111 0.123,-0.117 0.124,-0.126L0.11,-0.126C0.102,-0.126 0.098,-0.13 0.098,-0.139C0.098,-0.142 0.102,-0.144 0.109,-0.146L0.122,-0.146C0.119,-0.156 0.11,-0.161 0.093,-0.161C0.085,-0.161 0.079,-0.156 0.074,-0.147C0.057,-0.112 0.068,-0.079 0.106,-0.046C0.115,-0.04 0.12,-0.036 0.123,-0.036L0.123,-0.038L0.117,-0.057C0.111,-0.058 0.107,-0.06 0.104,-0.061C0.102,-0.062 0.101,-0.065 0.101,-0.068C0.101,-0.072 0.102,-0.075 0.104,-0.076C0.105,-0.077 0.109,-0.078 0.116,-0.078L0.117,-0.095L0.102,-0.093C0.099,-0.093 0.097,-0.095 0.097,-0.099ZM0.19,-0.468L0.193,-0.416C0.193,-0.401 0.204,-0.378 0.225,-0.347C0.229,-0.342 0.242,-0.336 0.263,-0.328C0.256,-0.325 0.244,-0.325 0.229,-0.329C0.214,-0.333 0.206,-0.339 0.205,-0.347C0.204,-0.351 0.2,-0.36 0.191,-0.373C0.182,-0.386 0.176,-0.399 0.174,-0.412C0.171,-0.425 0.17,-0.444 0.17,-0.468L0.173,-0.505C0.175,-0.534 0.184,-0.562 0.197,-0.587C0.211,-0.613 0.23,-0.622 0.254,-0.615C0.218,-0.604 0.198,-0.567 0.193,-0.505L0.19,-0.468ZM0.269,-0.675C0.305,-0.678 0.336,-0.671 0.362,-0.655C0.409,-0.625 0.445,-0.58 0.469,-0.519C0.483,-0.479 0.49,-0.439 0.49,-0.399C0.489,-0.313 0.484,-0.262 0.476,-0.246C0.474,-0.243 0.47,-0.233 0.464,-0.215C0.457,-0.197 0.451,-0.18 0.444,-0.165C0.438,-0.15 0.433,-0.141 0.429,-0.136C0.425,-0.132 0.42,-0.124 0.412,-0.111C0.405,-0.099 0.398,-0.089 0.392,-0.082C0.386,-0.075 0.375,-0.064 0.36,-0.051C0.345,-0.037 0.335,-0.027 0.33,-0.02C0.325,-0.012 0.311,-0.006 0.29,0C0.268,0.006 0.248,0.007 0.229,0.004C0.263,0.004 0.291,-0.005 0.313,-0.023C0.345,-0.05 0.372,-0.079 0.392,-0.111C0.4,-0.123 0.406,-0.132 0.411,-0.138C0.416,-0.144 0.425,-0.163 0.436,-0.195C0.448,-0.226 0.454,-0.243 0.456,-0.246C0.464,-0.262 0.469,-0.313 0.47,-0.399C0.47,-0.439 0.463,-0.479 0.449,-0.519C0.438,-0.546 0.422,-0.573 0.401,-0.602C0.393,-0.612 0.376,-0.626 0.35,-0.645C0.323,-0.664 0.296,-0.674 0.269,-0.675ZM0.179,-0.329C0.175,-0.328 0.166,-0.328 0.151,-0.328C0.137,-0.328 0.128,-0.33 0.125,-0.333C0.123,-0.336 0.122,-0.339 0.124,-0.342C0.127,-0.349 0.141,-0.352 0.164,-0.352L0.151,-0.37L0.103,-0.366C0.103,-0.366 0.1,-0.369 0.094,-0.375C0.088,-0.38 0.09,-0.385 0.1,-0.388C0.103,-0.389 0.11,-0.389 0.121,-0.39C0.131,-0.391 0.138,-0.392 0.141,-0.393C0.138,-0.403 0.136,-0.409 0.136,-0.411L0.135,-0.411C0.119,-0.409 0.107,-0.408 0.099,-0.408C0.09,-0.408 0.086,-0.41 0.084,-0.414C0.083,-0.417 0.082,-0.419 0.081,-0.42C0.078,-0.424 0.081,-0.428 0.091,-0.431C0.093,-0.432 0.097,-0.432 0.103,-0.433C0.108,-0.433 0.113,-0.433 0.119,-0.434C0.126,-0.435 0.13,-0.435 0.132,-0.435C0.131,-0.443 0.13,-0.449 0.13,-0.452L0.123,-0.452L0.084,-0.451C0.08,-0.451 0.078,-0.455 0.078,-0.464C0.078,-0.467 0.083,-0.469 0.092,-0.469C0.101,-0.469 0.113,-0.47 0.129,-0.472L0.129,-0.474C0.129,-0.484 0.129,-0.491 0.13,-0.495L0.099,-0.492C0.092,-0.491 0.087,-0.492 0.084,-0.497C0.081,-0.501 0.084,-0.507 0.092,-0.515C0.093,-0.516 0.098,-0.516 0.108,-0.516L0.134,-0.518L0.138,-0.532C0.13,-0.532 0.122,-0.532 0.116,-0.531C0.11,-0.531 0.105,-0.531 0.101,-0.531C0.097,-0.532 0.098,-0.538 0.103,-0.549C0.104,-0.554 0.108,-0.556 0.114,-0.555C0.121,-0.553 0.131,-0.552 0.145,-0.552L0.167,-0.596L0.141,-0.589C0.126,-0.587 0.117,-0.583 0.113,-0.578C0.109,-0.573 0.101,-0.565 0.089,-0.554C0.077,-0.543 0.068,-0.533 0.063,-0.524C0.057,-0.516 0.052,-0.489 0.049,-0.443C0.051,-0.414 0.055,-0.396 0.062,-0.389C0.062,-0.385 0.067,-0.376 0.076,-0.362C0.085,-0.349 0.092,-0.34 0.096,-0.336C0.101,-0.333 0.111,-0.328 0.125,-0.321C0.14,-0.315 0.151,-0.311 0.156,-0.311L0.194,-0.307C0.194,-0.308 0.192,-0.31 0.189,-0.314C0.186,-0.319 0.182,-0.324 0.179,-0.329ZM0.344,-0.137C0.344,-0.146 0.352,-0.149 0.368,-0.145L0.377,-0.164L0.372,-0.164C0.362,-0.164 0.357,-0.167 0.357,-0.174C0.357,-0.183 0.367,-0.188 0.387,-0.189L0.393,-0.2L0.396,-0.207L0.377,-0.208L0.372,-0.209C0.37,-0.209 0.37,-0.212 0.37,-0.217C0.371,-0.222 0.372,-0.225 0.373,-0.227C0.374,-0.228 0.379,-0.229 0.387,-0.229C0.395,-0.23 0.401,-0.229 0.405,-0.228C0.405,-0.229 0.406,-0.232 0.408,-0.237C0.409,-0.241 0.41,-0.245 0.411,-0.249C0.392,-0.246 0.381,-0.245 0.378,-0.247C0.375,-0.249 0.375,-0.252 0.378,-0.257C0.381,-0.262 0.383,-0.265 0.385,-0.266L0.418,-0.27C0.421,-0.279 0.422,-0.286 0.423,-0.291C0.416,-0.29 0.408,-0.289 0.397,-0.289C0.394,-0.289 0.391,-0.294 0.389,-0.303C0.388,-0.306 0.392,-0.309 0.403,-0.311L0.424,-0.312L0.424,-0.319C0.424,-0.323 0.424,-0.326 0.425,-0.328L0.424,-0.328C0.409,-0.328 0.399,-0.33 0.396,-0.333C0.394,-0.336 0.393,-0.339 0.395,-0.342C0.396,-0.345 0.398,-0.347 0.401,-0.348L0.427,-0.351C0.427,-0.354 0.428,-0.359 0.428,-0.366L0.404,-0.366C0.399,-0.366 0.396,-0.368 0.393,-0.371C0.386,-0.377 0.389,-0.383 0.401,-0.388C0.409,-0.389 0.418,-0.39 0.428,-0.39C0.428,-0.396 0.428,-0.402 0.427,-0.409C0.424,-0.409 0.419,-0.408 0.411,-0.408L0.397,-0.408C0.39,-0.408 0.386,-0.411 0.385,-0.416C0.386,-0.424 0.392,-0.429 0.402,-0.431L0.424,-0.434L0.42,-0.449C0.417,-0.449 0.412,-0.449 0.403,-0.45L0.39,-0.451C0.386,-0.451 0.384,-0.455 0.384,-0.464C0.384,-0.467 0.389,-0.469 0.4,-0.469L0.416,-0.469C0.415,-0.472 0.413,-0.48 0.408,-0.492L0.395,-0.492C0.388,-0.491 0.383,-0.492 0.381,-0.495C0.376,-0.504 0.381,-0.511 0.398,-0.515L0.391,-0.533C0.378,-0.531 0.371,-0.53 0.368,-0.531C0.366,-0.532 0.365,-0.534 0.365,-0.536C0.365,-0.539 0.367,-0.542 0.369,-0.545C0.372,-0.548 0.375,-0.55 0.38,-0.552C0.376,-0.556 0.363,-0.563 0.342,-0.574C0.342,-0.574 0.342,-0.571 0.344,-0.566C0.345,-0.562 0.347,-0.557 0.349,-0.551C0.35,-0.545 0.353,-0.537 0.356,-0.527C0.36,-0.518 0.362,-0.5 0.362,-0.474L0.361,-0.45C0.361,-0.448 0.365,-0.422 0.372,-0.37L0.373,-0.358L0.367,-0.288C0.367,-0.248 0.356,-0.2 0.333,-0.146C0.309,-0.092 0.299,-0.063 0.3,-0.061C0.302,-0.059 0.306,-0.062 0.315,-0.07C0.323,-0.079 0.33,-0.086 0.334,-0.091C0.333,-0.091 0.332,-0.092 0.331,-0.093C0.325,-0.096 0.323,-0.099 0.324,-0.103C0.324,-0.109 0.329,-0.112 0.337,-0.112L0.342,-0.112C0.348,-0.119 0.353,-0.125 0.357,-0.128C0.356,-0.129 0.355,-0.129 0.353,-0.129C0.347,-0.13 0.344,-0.133 0.344,-0.137ZM0.16,-0.468L0.163,-0.416C0.163,-0.403 0.173,-0.38 0.192,-0.346C0.196,-0.339 0.207,-0.331 0.225,-0.324C0.243,-0.316 0.258,-0.317 0.271,-0.325C0.278,-0.328 0.285,-0.334 0.292,-0.341C0.299,-0.348 0.304,-0.352 0.305,-0.352C0.319,-0.362 0.327,-0.388 0.33,-0.43C0.33,-0.439 0.329,-0.449 0.326,-0.46C0.324,-0.471 0.322,-0.48 0.322,-0.488C0.322,-0.495 0.321,-0.504 0.318,-0.515C0.315,-0.526 0.312,-0.537 0.308,-0.55C0.304,-0.563 0.298,-0.574 0.288,-0.585C0.279,-0.596 0.271,-0.605 0.265,-0.613C0.259,-0.621 0.252,-0.625 0.244,-0.625C0.219,-0.625 0.2,-0.612 0.187,-0.587C0.174,-0.562 0.166,-0.534 0.163,-0.505L0.16,-0.468ZM0.146,-0.178C0.157,-0.167 0.163,-0.156 0.163,-0.145C0.163,-0.133 0.161,-0.122 0.156,-0.111C0.152,-0.1 0.149,-0.092 0.149,-0.089C0.15,-0.056 0.165,-0.04 0.193,-0.04C0.216,-0.04 0.233,-0.044 0.243,-0.053C0.26,-0.069 0.27,-0.079 0.272,-0.085C0.275,-0.091 0.282,-0.102 0.292,-0.117C0.302,-0.133 0.308,-0.148 0.31,-0.164C0.312,-0.179 0.315,-0.195 0.319,-0.21C0.324,-0.226 0.327,-0.238 0.328,-0.246C0.329,-0.254 0.331,-0.263 0.333,-0.274C0.335,-0.285 0.337,-0.295 0.338,-0.303C0.34,-0.311 0.341,-0.317 0.341,-0.319C0.341,-0.322 0.34,-0.323 0.34,-0.323C0.338,-0.323 0.331,-0.318 0.318,-0.308C0.305,-0.298 0.297,-0.292 0.294,-0.291C0.259,-0.277 0.227,-0.27 0.197,-0.27C0.167,-0.27 0.137,-0.277 0.107,-0.292C0.077,-0.307 0.059,-0.32 0.052,-0.332C0.027,-0.38 0.015,-0.42 0.015,-0.454C0.015,-0.487 0.029,-0.523 0.056,-0.561C0.063,-0.571 0.074,-0.582 0.087,-0.594C0.1,-0.606 0.108,-0.613 0.11,-0.615C0.133,-0.637 0.15,-0.648 0.161,-0.649C0.173,-0.651 0.188,-0.655 0.209,-0.662C0.225,-0.669 0.239,-0.673 0.25,-0.673C0.262,-0.673 0.278,-0.67 0.297,-0.664C0.317,-0.658 0.336,-0.649 0.354,-0.636C0.371,-0.624 0.384,-0.612 0.391,-0.602C0.416,-0.569 0.434,-0.537 0.444,-0.508C0.455,-0.479 0.46,-0.442 0.46,-0.399C0.459,-0.313 0.454,-0.262 0.446,-0.246C0.444,-0.243 0.438,-0.227 0.427,-0.196C0.416,-0.165 0.408,-0.146 0.402,-0.139C0.396,-0.133 0.389,-0.124 0.382,-0.111C0.364,-0.082 0.337,-0.053 0.302,-0.022C0.295,-0.016 0.28,-0.011 0.258,-0.005C0.236,0.001 0.216,0.004 0.199,0.004C0.151,0.004 0.117,-0.001 0.097,-0.012C0.049,-0.036 0.026,-0.069 0.026,-0.11C0.026,-0.132 0.031,-0.151 0.042,-0.168C0.052,-0.185 0.063,-0.193 0.075,-0.193L0.103,-0.194C0.12,-0.194 0.134,-0.189 0.146,-0.178Z" style="fill-rule:nonzero;"/>
            </g>
        </g>
    </g>
</svg>
