<?xml version="1.0" encoding="UTF-8" standalone="no"?>
<!DOCTYPE svg PUBLIC "-//W3C//DTD SVG 1.1//EN" "http://www.w3.org/Graphics/SVG/1.1/DTD/svg11.dtd">
<svg width="47px" height="44px" version="1.1" xmlns="http://www.w3.org/2000/svg" xmlns:xlink="http://www.w3.org/1999/xlink" xml:space="preserve" xmlns:serif="http://www.serif.com/" style="fill-rule:evenodd;clip-rule:evenodd;stroke-linejoin:round;stroke-miterlimit:2;">
    <g transform="matrix(1,0,0,1,-438.365,-733.241)">
        <g transform="matrix(1,0,0,1,-54,-40.9135)">
            <g transform="matrix(103.725,0,0,64,489.782,817.217)">
                <path d="M0.19,-0.576C0.179,-0.593 0.177,-0.606 0.184,-0.615C0.194,-0.631 0.21,-0.634 0.231,-0.627C0.22,-0.628 0.211,-0.624 0.204,-0.615C0.198,-0.606 0.198,-0.595 0.206,-0.583C0.214,-0.57 0.218,-0.563 0.22,-0.56C0.221,-0.557 0.223,-0.551 0.226,-0.541C0.229,-0.53 0.228,-0.521 0.224,-0.512C0.222,-0.503 0.215,-0.493 0.201,-0.481C0.188,-0.47 0.176,-0.464 0.166,-0.464C0.174,-0.467 0.182,-0.474 0.189,-0.484C0.197,-0.494 0.201,-0.502 0.203,-0.509C0.205,-0.515 0.206,-0.52 0.207,-0.524C0.207,-0.528 0.207,-0.532 0.208,-0.534C0.208,-0.537 0.208,-0.54 0.207,-0.543C0.206,-0.546 0.205,-0.549 0.205,-0.55C0.203,-0.556 0.202,-0.561 0.2,-0.563C0.197,-0.565 0.194,-0.569 0.19,-0.576ZM0.193,-0.065C0.193,-0.052 0.197,-0.045 0.204,-0.044C0.195,-0.044 0.188,-0.046 0.182,-0.05C0.176,-0.054 0.173,-0.058 0.173,-0.063C0.173,-0.069 0.177,-0.077 0.185,-0.087C0.192,-0.098 0.198,-0.107 0.2,-0.114C0.203,-0.127 0.205,-0.137 0.204,-0.143C0.203,-0.148 0.199,-0.16 0.192,-0.176C0.182,-0.201 0.159,-0.213 0.123,-0.213C0.138,-0.215 0.155,-0.214 0.174,-0.208C0.194,-0.201 0.207,-0.19 0.213,-0.174C0.219,-0.158 0.222,-0.147 0.224,-0.143C0.225,-0.138 0.224,-0.129 0.22,-0.114C0.218,-0.107 0.212,-0.098 0.205,-0.087C0.197,-0.076 0.193,-0.069 0.193,-0.065ZM0.135,-0.495C0.149,-0.495 0.159,-0.5 0.165,-0.51C0.155,-0.506 0.149,-0.505 0.146,-0.506C0.145,-0.508 0.141,-0.508 0.135,-0.507C0.129,-0.506 0.126,-0.505 0.125,-0.505C0.12,-0.506 0.12,-0.512 0.125,-0.523C0.126,-0.528 0.131,-0.53 0.139,-0.528C0.146,-0.526 0.158,-0.526 0.172,-0.528L0.172,-0.537C0.15,-0.534 0.137,-0.533 0.134,-0.535C0.131,-0.537 0.127,-0.537 0.122,-0.536C0.116,-0.535 0.113,-0.534 0.112,-0.534C0.107,-0.535 0.107,-0.541 0.112,-0.552C0.113,-0.557 0.119,-0.558 0.13,-0.556L0.167,-0.559C0.164,-0.563 0.16,-0.566 0.155,-0.569L0.126,-0.569C0.116,-0.569 0.11,-0.57 0.109,-0.572C0.108,-0.575 0.111,-0.58 0.119,-0.588C0.123,-0.59 0.128,-0.591 0.135,-0.591C0.133,-0.592 0.132,-0.594 0.129,-0.596C0.126,-0.598 0.124,-0.599 0.121,-0.601C0.118,-0.603 0.118,-0.606 0.119,-0.61C0.108,-0.602 0.1,-0.596 0.096,-0.592C0.083,-0.582 0.078,-0.566 0.08,-0.545C0.082,-0.512 0.1,-0.495 0.135,-0.495ZM0.326,-0.451C0.322,-0.451 0.32,-0.455 0.32,-0.464C0.32,-0.467 0.324,-0.469 0.33,-0.469C0.337,-0.469 0.344,-0.47 0.352,-0.471C0.356,-0.476 0.359,-0.484 0.362,-0.494L0.349,-0.492C0.342,-0.491 0.337,-0.492 0.334,-0.497C0.331,-0.501 0.334,-0.507 0.342,-0.515C0.343,-0.516 0.347,-0.516 0.354,-0.516C0.36,-0.516 0.365,-0.517 0.369,-0.518C0.371,-0.523 0.372,-0.528 0.372,-0.533C0.356,-0.531 0.345,-0.53 0.34,-0.531C0.335,-0.533 0.335,-0.538 0.34,-0.549C0.341,-0.554 0.345,-0.556 0.352,-0.555C0.358,-0.553 0.364,-0.552 0.37,-0.552C0.37,-0.553 0.369,-0.556 0.368,-0.56C0.367,-0.563 0.366,-0.566 0.365,-0.568L0.35,-0.566C0.343,-0.565 0.338,-0.566 0.335,-0.57C0.332,-0.575 0.335,-0.581 0.343,-0.589C0.343,-0.59 0.349,-0.59 0.359,-0.59C0.357,-0.595 0.355,-0.599 0.352,-0.603C0.347,-0.602 0.344,-0.602 0.342,-0.603C0.34,-0.604 0.336,-0.604 0.33,-0.604C0.324,-0.603 0.321,-0.602 0.319,-0.603C0.318,-0.603 0.317,-0.605 0.317,-0.608C0.318,-0.611 0.319,-0.614 0.32,-0.616C0.32,-0.619 0.324,-0.621 0.33,-0.621C0.314,-0.629 0.297,-0.635 0.28,-0.637C0.303,-0.61 0.316,-0.589 0.321,-0.574C0.325,-0.56 0.326,-0.541 0.324,-0.517C0.321,-0.493 0.316,-0.474 0.309,-0.458C0.302,-0.444 0.298,-0.435 0.296,-0.434L0.327,-0.451L0.326,-0.451ZM0.105,-0.178C0.091,-0.178 0.08,-0.17 0.071,-0.155C0.062,-0.14 0.059,-0.125 0.062,-0.11C0.064,-0.095 0.07,-0.083 0.081,-0.074C0.09,-0.065 0.099,-0.059 0.108,-0.056L0.121,-0.051C0.118,-0.057 0.118,-0.065 0.121,-0.074C0.112,-0.074 0.103,-0.073 0.095,-0.072C0.094,-0.072 0.092,-0.074 0.091,-0.077C0.09,-0.08 0.09,-0.084 0.091,-0.087C0.092,-0.091 0.098,-0.092 0.108,-0.091C0.119,-0.09 0.127,-0.09 0.134,-0.092C0.138,-0.098 0.142,-0.103 0.144,-0.109C0.132,-0.107 0.124,-0.106 0.12,-0.106L0.094,-0.104C0.092,-0.104 0.091,-0.106 0.089,-0.109C0.088,-0.112 0.089,-0.115 0.09,-0.119C0.091,-0.123 0.098,-0.125 0.111,-0.124C0.124,-0.123 0.137,-0.123 0.149,-0.126L0.149,-0.137L0.108,-0.136C0.1,-0.136 0.096,-0.14 0.096,-0.149C0.096,-0.15 0.103,-0.153 0.115,-0.156C0.13,-0.158 0.141,-0.158 0.15,-0.156C0.147,-0.171 0.132,-0.178 0.105,-0.178ZM0.37,-0.291C0.36,-0.29 0.354,-0.29 0.353,-0.29C0.351,-0.29 0.349,-0.293 0.348,-0.298C0.347,-0.303 0.347,-0.306 0.347,-0.306C0.348,-0.306 0.349,-0.306 0.35,-0.307L0.364,-0.31C0.365,-0.31 0.367,-0.31 0.369,-0.31L0.372,-0.311L0.379,-0.311C0.376,-0.313 0.369,-0.319 0.356,-0.328L0.338,-0.328C0.329,-0.328 0.323,-0.33 0.319,-0.334C0.316,-0.338 0.316,-0.342 0.321,-0.346C0.302,-0.354 0.291,-0.357 0.29,-0.357C0.291,-0.353 0.295,-0.347 0.3,-0.338C0.306,-0.329 0.31,-0.322 0.313,-0.317C0.315,-0.313 0.32,-0.305 0.327,-0.295C0.334,-0.285 0.34,-0.276 0.344,-0.269C0.348,-0.261 0.35,-0.246 0.352,-0.223C0.352,-0.213 0.348,-0.186 0.34,-0.142C0.333,-0.109 0.329,-0.091 0.329,-0.088C0.329,-0.085 0.335,-0.083 0.348,-0.083C0.351,-0.083 0.356,-0.086 0.361,-0.093L0.353,-0.093C0.351,-0.093 0.35,-0.094 0.349,-0.098C0.348,-0.101 0.347,-0.104 0.348,-0.106C0.35,-0.112 0.359,-0.114 0.375,-0.112L0.387,-0.126C0.369,-0.126 0.36,-0.128 0.36,-0.133C0.36,-0.14 0.363,-0.145 0.37,-0.146L0.398,-0.147C0.401,-0.153 0.402,-0.159 0.403,-0.164L0.377,-0.165C0.373,-0.165 0.37,-0.165 0.369,-0.164C0.366,-0.162 0.364,-0.165 0.363,-0.17C0.362,-0.176 0.362,-0.18 0.363,-0.183C0.364,-0.185 0.367,-0.187 0.373,-0.188C0.379,-0.188 0.383,-0.188 0.385,-0.189C0.387,-0.19 0.394,-0.19 0.407,-0.19C0.409,-0.198 0.409,-0.204 0.409,-0.209L0.398,-0.208L0.369,-0.208C0.368,-0.208 0.367,-0.21 0.367,-0.214C0.368,-0.219 0.369,-0.222 0.371,-0.226C0.372,-0.229 0.378,-0.231 0.389,-0.231C0.399,-0.232 0.406,-0.232 0.409,-0.23L0.406,-0.25C0.385,-0.248 0.373,-0.248 0.37,-0.25C0.367,-0.252 0.367,-0.256 0.369,-0.261C0.372,-0.266 0.374,-0.269 0.376,-0.269C0.389,-0.269 0.397,-0.269 0.402,-0.27L0.395,-0.29C0.391,-0.29 0.388,-0.29 0.387,-0.291C0.385,-0.292 0.379,-0.292 0.37,-0.291ZM0.292,-0.673C0.339,-0.673 0.376,-0.656 0.404,-0.621C0.409,-0.614 0.415,-0.602 0.421,-0.587C0.427,-0.572 0.43,-0.559 0.431,-0.548C0.431,-0.537 0.43,-0.523 0.426,-0.504C0.422,-0.486 0.418,-0.474 0.415,-0.468C0.411,-0.462 0.404,-0.455 0.394,-0.446C0.382,-0.438 0.375,-0.431 0.37,-0.427C0.366,-0.422 0.358,-0.418 0.348,-0.413C0.338,-0.409 0.33,-0.405 0.324,-0.402C0.318,-0.4 0.314,-0.397 0.314,-0.395C0.314,-0.393 0.324,-0.391 0.343,-0.388C0.362,-0.386 0.38,-0.378 0.397,-0.365C0.415,-0.353 0.428,-0.34 0.435,-0.329C0.452,-0.304 0.462,-0.285 0.466,-0.273C0.47,-0.261 0.472,-0.245 0.472,-0.226C0.472,-0.206 0.47,-0.193 0.466,-0.187C0.462,-0.18 0.457,-0.165 0.451,-0.141C0.444,-0.117 0.439,-0.1 0.433,-0.09C0.428,-0.081 0.419,-0.071 0.407,-0.061C0.396,-0.051 0.389,-0.046 0.388,-0.044C0.363,-0.021 0.339,-0.006 0.316,0C0.293,0.007 0.265,0.011 0.233,0.012C0.241,0.011 0.25,0.008 0.261,0.004C0.271,0 0.281,-0.003 0.291,-0.006C0.326,-0.017 0.352,-0.029 0.368,-0.044C0.394,-0.068 0.411,-0.087 0.418,-0.101C0.425,-0.114 0.434,-0.141 0.443,-0.18C0.452,-0.219 0.454,-0.247 0.449,-0.265C0.443,-0.282 0.432,-0.304 0.415,-0.329C0.409,-0.339 0.396,-0.349 0.379,-0.36C0.361,-0.371 0.349,-0.378 0.341,-0.38C0.333,-0.382 0.323,-0.384 0.31,-0.385C0.297,-0.387 0.29,-0.389 0.29,-0.392C0.29,-0.395 0.293,-0.398 0.3,-0.401C0.306,-0.405 0.315,-0.409 0.326,-0.413C0.337,-0.418 0.345,-0.422 0.35,-0.427C0.354,-0.431 0.36,-0.436 0.366,-0.44C0.373,-0.445 0.377,-0.449 0.379,-0.451C0.382,-0.454 0.386,-0.458 0.391,-0.464C0.397,-0.47 0.402,-0.482 0.406,-0.502C0.41,-0.522 0.412,-0.536 0.411,-0.544C0.408,-0.58 0.397,-0.608 0.378,-0.626L0.371,-0.634C0.345,-0.66 0.319,-0.673 0.292,-0.673ZM0.061,-0.501C0.051,-0.518 0.047,-0.536 0.047,-0.557C0.047,-0.577 0.057,-0.597 0.078,-0.616C0.099,-0.636 0.126,-0.651 0.158,-0.661C0.164,-0.662 0.169,-0.664 0.173,-0.665C0.178,-0.666 0.183,-0.667 0.19,-0.668C0.198,-0.669 0.204,-0.669 0.21,-0.67C0.216,-0.671 0.224,-0.671 0.235,-0.671L0.273,-0.671C0.31,-0.671 0.343,-0.654 0.374,-0.621C0.389,-0.604 0.398,-0.579 0.401,-0.544C0.402,-0.536 0.4,-0.523 0.396,-0.504C0.392,-0.486 0.389,-0.475 0.387,-0.472C0.385,-0.469 0.382,-0.464 0.376,-0.458C0.371,-0.453 0.365,-0.447 0.358,-0.441C0.35,-0.436 0.344,-0.431 0.34,-0.427C0.335,-0.423 0.327,-0.419 0.316,-0.414C0.305,-0.41 0.297,-0.406 0.29,-0.402C0.284,-0.399 0.28,-0.396 0.28,-0.393C0.28,-0.389 0.282,-0.387 0.286,-0.385C0.291,-0.383 0.297,-0.381 0.306,-0.38C0.315,-0.379 0.324,-0.378 0.332,-0.376C0.34,-0.374 0.353,-0.368 0.37,-0.358C0.387,-0.349 0.398,-0.339 0.405,-0.329C0.421,-0.304 0.432,-0.285 0.436,-0.273C0.439,-0.261 0.442,-0.245 0.442,-0.226C0.442,-0.206 0.44,-0.193 0.437,-0.187C0.433,-0.181 0.429,-0.166 0.423,-0.141C0.417,-0.116 0.412,-0.102 0.408,-0.098C0.404,-0.095 0.396,-0.086 0.384,-0.072C0.371,-0.059 0.362,-0.048 0.354,-0.041C0.347,-0.034 0.332,-0.027 0.309,-0.021C0.281,-0.012 0.26,-0.006 0.245,-0.002C0.231,0.003 0.215,0.005 0.196,0.005C0.178,0.005 0.165,0.003 0.157,0C0.148,-0.004 0.136,-0.008 0.119,-0.013C0.102,-0.017 0.092,-0.021 0.088,-0.024C0.061,-0.047 0.046,-0.062 0.042,-0.068C0.038,-0.073 0.036,-0.077 0.036,-0.08C0.035,-0.083 0.033,-0.092 0.029,-0.109C0.025,-0.126 0.024,-0.139 0.025,-0.147C0.029,-0.165 0.042,-0.181 0.066,-0.197C0.079,-0.206 0.091,-0.21 0.102,-0.21C0.139,-0.21 0.163,-0.199 0.172,-0.176C0.178,-0.159 0.182,-0.148 0.184,-0.143C0.185,-0.137 0.184,-0.127 0.18,-0.114C0.178,-0.107 0.172,-0.098 0.165,-0.087C0.157,-0.076 0.153,-0.068 0.153,-0.063C0.153,-0.058 0.157,-0.051 0.165,-0.043C0.174,-0.035 0.183,-0.031 0.192,-0.031C0.223,-0.031 0.249,-0.041 0.27,-0.062C0.277,-0.069 0.282,-0.074 0.285,-0.076C0.29,-0.08 0.295,-0.089 0.3,-0.102C0.305,-0.115 0.308,-0.122 0.308,-0.125C0.308,-0.128 0.31,-0.14 0.314,-0.161C0.319,-0.183 0.321,-0.201 0.321,-0.215C0.321,-0.247 0.313,-0.273 0.299,-0.294C0.293,-0.302 0.278,-0.318 0.255,-0.341C0.249,-0.347 0.239,-0.351 0.225,-0.351C0.211,-0.351 0.201,-0.351 0.196,-0.352C0.191,-0.353 0.185,-0.355 0.178,-0.359C0.169,-0.364 0.167,-0.37 0.17,-0.377C0.173,-0.385 0.18,-0.391 0.192,-0.397C0.203,-0.403 0.214,-0.409 0.224,-0.415C0.233,-0.42 0.242,-0.426 0.249,-0.431C0.257,-0.436 0.264,-0.444 0.272,-0.455C0.292,-0.48 0.299,-0.512 0.293,-0.551C0.29,-0.571 0.281,-0.587 0.265,-0.6C0.263,-0.602 0.26,-0.606 0.256,-0.611C0.24,-0.634 0.22,-0.642 0.197,-0.636C0.189,-0.634 0.182,-0.627 0.175,-0.617C0.168,-0.606 0.169,-0.593 0.18,-0.576C0.181,-0.576 0.182,-0.574 0.184,-0.571L0.19,-0.56C0.192,-0.557 0.193,-0.556 0.193,-0.554C0.194,-0.553 0.194,-0.551 0.195,-0.548C0.196,-0.545 0.197,-0.542 0.197,-0.54L0.197,-0.532C0.196,-0.516 0.191,-0.502 0.182,-0.491C0.172,-0.479 0.162,-0.472 0.152,-0.468C0.142,-0.464 0.126,-0.464 0.105,-0.469C0.085,-0.474 0.07,-0.484 0.061,-0.501ZM0.231,-0.627C0.232,-0.627 0.233,-0.627 0.234,-0.626C0.233,-0.626 0.232,-0.627 0.231,-0.627Z" style="fill-rule:nonzero;"/>
            </g>
        </g>
    </g>
</svg>
