<?xml version="1.0" encoding="UTF-8" standalone="no"?>
<!DOCTYPE svg PUBLIC "-//W3C//DTD SVG 1.1//EN" "http://www.w3.org/Graphics/SVG/1.1/DTD/svg11.dtd">
<svg width="378px" height="6px" version="1.1" xmlns="http://www.w3.org/2000/svg" xmlns:xlink="http://www.w3.org/1999/xlink" xml:space="preserve" xmlns:serif="http://www.serif.com/" style="fill-rule:evenodd;clip-rule:evenodd;stroke-linecap:round;stroke-linejoin:round;stroke-miterlimit:1.5;">
    <g transform="matrix(1,0,0,1,-523.881,-32.4194)">
        <g id="Dots-Separator" serif:id="Dots Separator" transform="matrix(1,0,0,1,-50.1072,-1.51745)">
            <g transform="matrix(0.499366,0,0,0.499366,274.761,-0.163034)">
                <path d="M604.905,70.544C605.999,70.544 607.356,70.707 608.031,71.441C608.614,72.073 608.653,73.386 608.653,74.299C608.653,76.271 607.335,77.614 605.299,77.614C604.464,77.614 603.422,77.116 602.804,76.663C601.913,76.011 601.216,75.283 601.216,74.118C601.216,72.839 601.515,71.963 602.559,71.332C603.125,70.989 604.189,70.544 604.905,70.544Z" style="stroke:black;stroke-width:4.01px;"/>
            </g>
            <g transform="matrix(0.499366,0,0,0.499366,402.109,-0.163034)">
                <path d="M604.905,70.544C605.999,70.544 607.356,70.707 608.031,71.441C608.614,72.073 608.653,73.386 608.653,74.299C608.653,76.271 607.335,77.614 605.299,77.614C604.464,77.614 603.422,77.116 602.804,76.663C601.913,76.011 601.216,75.283 601.216,74.118C601.216,72.839 601.515,71.963 602.559,71.332C603.125,70.989 604.189,70.544 604.905,70.544Z" style="stroke:black;stroke-width:4.01px;"/>
            </g>
            <g transform="matrix(0.499366,0,0,0.499366,529.456,-0.163034)">
                <path d="M604.905,70.544C605.999,70.544 607.356,70.707 608.031,71.441C608.614,72.073 608.653,73.386 608.653,74.299C608.653,76.271 607.335,77.614 605.299,77.614C604.464,77.614 603.422,77.116 602.804,76.663C601.913,76.011 601.216,75.283 601.216,74.118C601.216,72.839 601.515,71.963 602.559,71.332C603.125,70.989 604.189,70.544 604.905,70.544Z" style="stroke:black;stroke-width:4.01px;"/>
            </g>
            <g transform="matrix(0.499366,0,0,0.499366,349.068,-0.163034)">
                <path d="M604.905,70.544C605.999,70.544 607.356,70.707 608.031,71.441C608.614,72.073 608.653,73.386 608.653,74.299C608.653,76.271 607.335,77.614 605.299,77.614C604.464,77.614 603.422,77.116 602.804,76.663C601.913,76.011 601.216,75.283 601.216,74.118C601.216,72.839 601.515,71.963 602.559,71.332C603.125,70.989 604.189,70.544 604.905,70.544Z" style="stroke:black;stroke-width:4.01px;"/>
            </g>
            <g transform="matrix(0.499366,0,0,0.499366,476.415,-0.163034)">
                <path d="M604.905,70.544C605.999,70.544 607.356,70.707 608.031,71.441C608.614,72.073 608.653,73.386 608.653,74.299C608.653,76.271 607.335,77.614 605.299,77.614C604.464,77.614 603.422,77.116 602.804,76.663C601.913,76.011 601.216,75.283 601.216,74.118C601.216,72.839 601.515,71.963 602.559,71.332C603.125,70.989 604.189,70.544 604.905,70.544Z" style="stroke:black;stroke-width:4.01px;"/>
            </g>
            <g transform="matrix(0.499366,0,0,0.499366,603.762,-0.163034)">
                <path d="M604.905,70.544C605.999,70.544 607.356,70.707 608.031,71.441C608.614,72.073 608.653,73.386 608.653,74.299C608.653,76.271 607.335,77.614 605.299,77.614C604.464,77.614 603.422,77.116 602.804,76.663C601.913,76.011 601.216,75.283 601.216,74.118C601.216,72.839 601.515,71.963 602.559,71.332C603.125,70.989 604.189,70.544 604.905,70.544Z" style="stroke:black;stroke-width:4.01px;"/>
            </g>
            <g transform="matrix(0.499366,0,0,0.499366,338.435,-0.163034)">
                <path d="M604.905,70.544C605.999,70.544 607.356,70.707 608.031,71.441C608.614,72.073 608.653,73.386 608.653,74.299C608.653,76.271 607.335,77.614 605.299,77.614C604.464,77.614 603.422,77.116 602.804,76.663C601.913,76.011 601.216,75.283 601.216,74.118C601.216,72.839 601.515,71.963 602.559,71.332C603.125,70.989 604.189,70.544 604.905,70.544Z" style="stroke:black;stroke-width:4.01px;"/>
            </g>
            <g transform="matrix(0.499366,0,0,0.499366,465.782,-0.163034)">
                <path d="M604.905,70.544C605.999,70.544 607.356,70.707 608.031,71.441C608.614,72.073 608.653,73.386 608.653,74.299C608.653,76.271 607.335,77.614 605.299,77.614C604.464,77.614 603.422,77.116 602.804,76.663C601.913,76.011 601.216,75.283 601.216,74.118C601.216,72.839 601.515,71.963 602.559,71.332C603.125,70.989 604.189,70.544 604.905,70.544Z" style="stroke:black;stroke-width:4.01px;"/>
            </g>
            <g transform="matrix(0.499366,0,0,0.499366,593.129,-0.163034)">
                <path d="M604.905,70.544C605.999,70.544 607.356,70.707 608.031,71.441C608.614,72.073 608.653,73.386 608.653,74.299C608.653,76.271 607.335,77.614 605.299,77.614C604.464,77.614 603.422,77.116 602.804,76.663C601.913,76.011 601.216,75.283 601.216,74.118C601.216,72.839 601.515,71.963 602.559,71.332C603.125,70.989 604.189,70.544 604.905,70.544Z" style="stroke:black;stroke-width:4.01px;"/>
            </g>
            <g transform="matrix(0.499366,0,0,0.499366,327.802,-0.163034)">
                <path d="M604.905,70.544C605.999,70.544 607.356,70.707 608.031,71.441C608.614,72.073 608.653,73.386 608.653,74.299C608.653,76.271 607.335,77.614 605.299,77.614C604.464,77.614 603.422,77.116 602.804,76.663C601.913,76.011 601.216,75.283 601.216,74.118C601.216,72.839 601.515,71.963 602.559,71.332C603.125,70.989 604.189,70.544 604.905,70.544Z" style="stroke:black;stroke-width:4.01px;"/>
            </g>
            <g transform="matrix(0.499366,0,0,0.499366,455.15,-0.163034)">
                <path d="M604.905,70.544C605.999,70.544 607.356,70.707 608.031,71.441C608.614,72.073 608.653,73.386 608.653,74.299C608.653,76.271 607.335,77.614 605.299,77.614C604.464,77.614 603.422,77.116 602.804,76.663C601.913,76.011 601.216,75.283 601.216,74.118C601.216,72.839 601.515,71.963 602.559,71.332C603.125,70.989 604.189,70.544 604.905,70.544Z" style="stroke:black;stroke-width:4.01px;"/>
            </g>
            <g transform="matrix(0.499366,0,0,0.499366,582.497,-0.163034)">
                <path d="M604.905,70.544C605.999,70.544 607.356,70.707 608.031,71.441C608.614,72.073 608.653,73.386 608.653,74.299C608.653,76.271 607.335,77.614 605.299,77.614C604.464,77.614 603.422,77.116 602.804,76.663C601.913,76.011 601.216,75.283 601.216,74.118C601.216,72.839 601.515,71.963 602.559,71.332C603.125,70.989 604.189,70.544 604.905,70.544Z" style="stroke:black;stroke-width:4.01px;"/>
            </g>
            <g transform="matrix(-0.498715,0.0254764,-0.0254764,-0.498715,912.214,58.3553)">
                <path d="M604.905,70.544C605.999,70.544 607.356,70.707 608.031,71.441C608.614,72.073 608.653,73.386 608.653,74.299C608.653,76.271 607.335,77.614 605.299,77.614C604.464,77.614 603.422,77.116 602.804,76.663C601.913,76.011 601.216,75.283 601.216,74.118C601.216,72.839 601.515,71.963 602.559,71.332C603.125,70.989 604.189,70.544 604.905,70.544Z" style="stroke:black;stroke-width:4.01px;"/>
            </g>
            <g transform="matrix(-0.498715,0.0254764,-0.0254764,-0.498715,1039.56,58.3553)">
                <path d="M604.905,70.544C605.999,70.544 607.356,70.707 608.031,71.441C608.614,72.073 608.653,73.386 608.653,74.299C608.653,76.271 607.335,77.614 605.299,77.614C604.464,77.614 603.422,77.116 602.804,76.663C601.913,76.011 601.216,75.283 601.216,74.118C601.216,72.839 601.515,71.963 602.559,71.332C603.125,70.989 604.189,70.544 604.905,70.544Z" style="stroke:black;stroke-width:4.01px;"/>
            </g>
            <g transform="matrix(-0.498715,0.0254764,-0.0254764,-0.498715,1166.91,58.3553)">
                <path d="M604.905,70.544C605.999,70.544 607.356,70.707 608.031,71.441C608.614,72.073 608.653,73.386 608.653,74.299C608.653,76.271 607.335,77.614 605.299,77.614C604.464,77.614 603.422,77.116 602.804,76.663C601.913,76.011 601.216,75.283 601.216,74.118C601.216,72.839 601.515,71.963 602.559,71.332C603.125,70.989 604.189,70.544 604.905,70.544Z" style="stroke:black;stroke-width:4.01px;"/>
            </g>
            <g transform="matrix(-0.498715,0.0254764,-0.0254764,-0.498715,997.136,58.3553)">
                <path d="M604.905,70.544C605.999,70.544 607.356,70.707 608.031,71.441C608.614,72.073 608.653,73.386 608.653,74.299C608.653,76.271 607.335,77.614 605.299,77.614C604.464,77.614 603.422,77.116 602.804,76.663C601.913,76.011 601.216,75.283 601.216,74.118C601.216,72.839 601.515,71.963 602.559,71.332C603.125,70.989 604.189,70.544 604.905,70.544Z" style="stroke:black;stroke-width:4.01px;"/>
            </g>
            <g transform="matrix(-0.498715,0.0254764,-0.0254764,-0.498715,1124.48,58.3553)">
                <path d="M604.905,70.544C605.999,70.544 607.356,70.707 608.031,71.441C608.614,72.073 608.653,73.386 608.653,74.299C608.653,76.271 607.335,77.614 605.299,77.614C604.464,77.614 603.422,77.116 602.804,76.663C601.913,76.011 601.216,75.283 601.216,74.118C601.216,72.839 601.515,71.963 602.559,71.332C603.125,70.989 604.189,70.544 604.905,70.544Z" style="stroke:black;stroke-width:4.01px;"/>
            </g>
            <g transform="matrix(-0.498715,0.0254764,-0.0254764,-0.498715,1251.83,58.3553)">
                <path d="M604.905,70.544C605.999,70.544 607.356,70.707 608.031,71.441C608.614,72.073 608.653,73.386 608.653,74.299C608.653,76.271 607.335,77.614 605.299,77.614C604.464,77.614 603.422,77.116 602.804,76.663C601.913,76.011 601.216,75.283 601.216,74.118C601.216,72.839 601.515,71.963 602.559,71.332C603.125,70.989 604.189,70.544 604.905,70.544Z" style="stroke:black;stroke-width:4.01px;"/>
            </g>
            <g transform="matrix(0.499366,0,0,0.499366,285.394,0.0163445)">
                <path d="M605.185,70.205C606.278,70.205 607.606,71.101 608.281,71.834C608.864,72.466 608.328,74.012 608.447,74.917C608.613,76.189 607.472,76.875 606.16,77.124C604.807,77.381 603.272,77.173 602.804,76.663C602.057,75.85 601.216,75.283 601.216,74.118C601.216,72.839 601.406,71.704 602.45,71.073C603.016,70.73 604.469,70.205 605.185,70.205Z" style="stroke:black;stroke-width:4.01px;"/>
            </g>
            <g transform="matrix(0.499366,0,0,0.499366,412.741,0.0163445)">
                <path d="M605.185,70.205C606.278,70.205 607.606,71.101 608.281,71.834C608.864,72.466 608.328,74.012 608.447,74.917C608.613,76.189 607.472,76.875 606.16,77.124C604.807,77.381 603.272,77.173 602.804,76.663C602.057,75.85 601.216,75.283 601.216,74.118C601.216,72.839 601.406,71.704 602.45,71.073C603.016,70.73 604.469,70.205 605.185,70.205Z" style="stroke:black;stroke-width:4.01px;"/>
            </g>
            <g transform="matrix(0.499366,0,0,0.499366,540.088,0.0163445)">
                <path d="M605.185,70.205C606.278,70.205 607.606,71.101 608.281,71.834C608.864,72.466 608.328,74.012 608.447,74.917C608.613,76.189 607.472,76.875 606.16,77.124C604.807,77.381 603.272,77.173 602.804,76.663C602.057,75.85 601.216,75.283 601.216,74.118C601.216,72.839 601.406,71.704 602.45,71.073C603.016,70.73 604.469,70.205 605.185,70.205Z" style="stroke:black;stroke-width:4.01px;"/>
            </g>
            <g transform="matrix(0.499366,0,0,0.499366,380.883,0.0163445)">
                <path d="M605.185,70.205C606.278,70.205 607.606,71.101 608.281,71.834C608.864,72.466 608.328,74.012 608.447,74.917C608.613,76.189 607.472,76.875 606.16,77.124C604.807,77.381 603.272,77.173 602.804,76.663C602.057,75.85 601.216,75.283 601.216,74.118C601.216,72.839 601.406,71.704 602.45,71.073C603.016,70.73 604.469,70.205 605.185,70.205Z" style="stroke:black;stroke-width:4.01px;"/>
            </g>
            <g transform="matrix(0.499366,0,0,0.499366,508.23,0.0163445)">
                <path d="M605.185,70.205C606.278,70.205 607.606,71.101 608.281,71.834C608.864,72.466 608.328,74.012 608.447,74.917C608.613,76.189 607.472,76.875 606.16,77.124C604.807,77.381 603.272,77.173 602.804,76.663C602.057,75.85 601.216,75.283 601.216,74.118C601.216,72.839 601.406,71.704 602.45,71.073C603.016,70.73 604.469,70.205 605.185,70.205Z" style="stroke:black;stroke-width:4.01px;"/>
            </g>
            <g transform="matrix(0.499366,0,0,0.499366,635.578,0.0163445)">
                <path d="M605.185,70.205C606.278,70.205 607.606,71.101 608.281,71.834C608.864,72.466 608.328,74.012 608.447,74.917C608.613,76.189 607.472,76.875 606.16,77.124C604.807,77.381 603.272,77.173 602.804,76.663C602.057,75.85 601.216,75.283 601.216,74.118C601.216,72.839 601.406,71.704 602.45,71.073C603.016,70.73 604.469,70.205 605.185,70.205Z" style="stroke:black;stroke-width:4.01px;"/>
            </g>
            <g transform="matrix(0.385129,0.31787,-0.31787,0.385129,409.676,-183.923)">
                <path d="M605.185,70.205C606.278,70.205 607.606,71.101 608.281,71.834C608.864,72.466 608.328,74.012 608.447,74.917C608.613,76.189 607.472,76.875 606.16,77.124C604.807,77.381 603.272,77.173 602.804,76.663C602.057,75.85 601.216,75.283 601.216,74.118C601.216,72.839 601.406,71.704 602.45,71.073C603.016,70.73 604.469,70.205 605.185,70.205Z" style="stroke:black;stroke-width:4.01px;"/>
            </g>
            <g transform="matrix(0.385129,0.31787,-0.31787,0.385129,537.024,-183.923)">
                <path d="M605.185,70.205C606.278,70.205 607.606,71.101 608.281,71.834C608.864,72.466 608.328,74.012 608.447,74.917C608.613,76.189 607.472,76.875 606.16,77.124C604.807,77.381 603.272,77.173 602.804,76.663C602.057,75.85 601.216,75.283 601.216,74.118C601.216,72.839 601.406,71.704 602.45,71.073C603.016,70.73 604.469,70.205 605.185,70.205Z" style="stroke:black;stroke-width:4.01px;"/>
            </g>
            <g transform="matrix(0.385129,0.31787,-0.31787,0.385129,664.371,-183.923)">
                <path d="M605.185,70.205C606.278,70.205 607.606,71.101 608.281,71.834C608.864,72.466 608.328,74.012 608.447,74.917C608.613,76.189 607.472,76.875 606.16,77.124C604.807,77.381 603.272,77.173 602.804,76.663C602.057,75.85 601.216,75.283 601.216,74.118C601.216,72.839 601.406,71.704 602.45,71.073C603.016,70.73 604.469,70.205 605.185,70.205Z" style="stroke:black;stroke-width:4.01px;"/>
            </g>
            <g transform="matrix(0.385129,0.31787,-0.31787,0.385129,462.757,-183.923)">
                <path d="M605.185,70.205C606.278,70.205 607.606,71.101 608.281,71.834C608.864,72.466 608.328,74.012 608.447,74.917C608.613,76.189 607.472,76.875 606.16,77.124C604.807,77.381 603.272,77.173 602.804,76.663C602.057,75.85 601.216,75.283 601.216,74.118C601.216,72.839 601.406,71.704 602.45,71.073C603.016,70.73 604.469,70.205 605.185,70.205Z" style="stroke:black;stroke-width:4.01px;"/>
            </g>
            <g transform="matrix(0.385129,0.31787,-0.31787,0.385129,590.105,-183.923)">
                <path d="M605.185,70.205C606.278,70.205 607.606,71.101 608.281,71.834C608.864,72.466 608.328,74.012 608.447,74.917C608.613,76.189 607.472,76.875 606.16,77.124C604.807,77.381 603.272,77.173 602.804,76.663C602.057,75.85 601.216,75.283 601.216,74.118C601.216,72.839 601.406,71.704 602.45,71.073C603.016,70.73 604.469,70.205 605.185,70.205Z" style="stroke:black;stroke-width:4.01px;"/>
            </g>
            <g transform="matrix(0.385129,0.31787,-0.31787,0.385129,717.452,-183.923)">
                <path d="M605.185,70.205C606.278,70.205 607.606,71.101 608.281,71.834C608.864,72.466 608.328,74.012 608.447,74.917C608.613,76.189 607.472,76.875 606.16,77.124C604.807,77.381 603.272,77.173 602.804,76.663C602.057,75.85 601.216,75.283 601.216,74.118C601.216,72.839 601.406,71.704 602.45,71.073C603.016,70.73 604.469,70.205 605.185,70.205Z" style="stroke:black;stroke-width:4.01px;"/>
            </g>
            <g transform="matrix(-0.498715,0.0254764,-0.0254764,-0.498715,901.571,58.181)">
                <path d="M605.185,70.205C606.278,70.205 607.606,71.101 608.281,71.834C608.864,72.466 608.328,74.012 608.447,74.917C608.613,76.189 607.472,76.875 606.16,77.124C604.807,77.381 603.272,77.173 602.804,76.663C602.057,75.85 601.216,75.283 601.216,74.118C601.216,72.839 601.406,71.704 602.45,71.073C603.016,70.73 604.469,70.205 605.185,70.205Z" style="stroke:black;stroke-width:4.01px;"/>
            </g>
            <g transform="matrix(-0.498715,0.0254764,-0.0254764,-0.498715,1028.92,58.181)">
                <path d="M605.185,70.205C606.278,70.205 607.606,71.101 608.281,71.834C608.864,72.466 608.328,74.012 608.447,74.917C608.613,76.189 607.472,76.875 606.16,77.124C604.807,77.381 603.272,77.173 602.804,76.663C602.057,75.85 601.216,75.283 601.216,74.118C601.216,72.839 601.406,71.704 602.45,71.073C603.016,70.73 604.469,70.205 605.185,70.205Z" style="stroke:black;stroke-width:4.01px;"/>
            </g>
            <g transform="matrix(-0.498715,0.0254764,-0.0254764,-0.498715,1156.27,58.181)">
                <path d="M605.185,70.205C606.278,70.205 607.606,71.101 608.281,71.834C608.864,72.466 608.328,74.012 608.447,74.917C608.613,76.189 607.472,76.875 606.16,77.124C604.807,77.381 603.272,77.173 602.804,76.663C602.057,75.85 601.216,75.283 601.216,74.118C601.216,72.839 601.406,71.704 602.45,71.073C603.016,70.73 604.469,70.205 605.185,70.205Z" style="stroke:black;stroke-width:4.01px;"/>
            </g>
            <g transform="matrix(-0.498715,0.0254764,-0.0254764,-0.498715,965.292,58.181)">
                <path d="M605.185,70.205C606.278,70.205 607.606,71.101 608.281,71.834C608.864,72.466 608.328,74.012 608.447,74.917C608.613,76.189 607.472,76.875 606.16,77.124C604.807,77.381 603.272,77.173 602.804,76.663C602.057,75.85 601.216,75.283 601.216,74.118C601.216,72.839 601.406,71.704 602.45,71.073C603.016,70.73 604.469,70.205 605.185,70.205Z" style="stroke:black;stroke-width:4.01px;"/>
            </g>
            <g transform="matrix(-0.498715,0.0254764,-0.0254764,-0.498715,1092.64,58.181)">
                <path d="M605.185,70.205C606.278,70.205 607.606,71.101 608.281,71.834C608.864,72.466 608.328,74.012 608.447,74.917C608.613,76.189 607.472,76.875 606.16,77.124C604.807,77.381 603.272,77.173 602.804,76.663C602.057,75.85 601.216,75.283 601.216,74.118C601.216,72.839 601.406,71.704 602.45,71.073C603.016,70.73 604.469,70.205 605.185,70.205Z" style="stroke:black;stroke-width:4.01px;"/>
            </g>
            <g transform="matrix(-0.498715,0.0254764,-0.0254764,-0.498715,1219.99,58.181)">
                <path d="M605.185,70.205C606.278,70.205 607.606,71.101 608.281,71.834C608.864,72.466 608.328,74.012 608.447,74.917C608.613,76.189 607.472,76.875 606.16,77.124C604.807,77.381 603.272,77.173 602.804,76.663C602.057,75.85 601.216,75.283 601.216,74.118C601.216,72.839 601.406,71.704 602.45,71.073C603.016,70.73 604.469,70.205 605.185,70.205Z" style="stroke:black;stroke-width:4.01px;"/>
            </g>
        </g>
    </g>
</svg>
