<?xml version="1.0" encoding="UTF-8" standalone="no"?>
<!DOCTYPE svg PUBLIC "-//W3C//DTD SVG 1.1//EN" "http://www.w3.org/Graphics/SVG/1.1/DTD/svg11.dtd">
<svg width="330px" height="51px" version="1.1" xmlns="http://www.w3.org/2000/svg" xmlns:xlink="http://www.w3.org/1999/xlink" xml:space="preserve" xmlns:serif="http://www.serif.com/" style="fill-rule:evenodd;clip-rule:evenodd;stroke-linejoin:round;stroke-miterlimit:2;">
    <g transform="matrix(1,0,0,1,-575.077,-730.538)">
        <g transform="matrix(0.97371,0,0,0.996678,10.3754,665.363)">
            <g id="Version-Curves" serif:id="Version Curves">
                <g transform="matrix(1.027,0,0,1.00333,206.041,-705.621)">
                    <g transform="matrix(103.725,0,0,64,362,817.217)">
                        <path d="M0.534,-0.595C0.535,-0.596 0.545,-0.596 0.562,-0.596C0.578,-0.596 0.589,-0.597 0.592,-0.598L0.593,-0.598L0.602,-0.608C0.561,-0.605 0.539,-0.604 0.537,-0.605C0.535,-0.607 0.531,-0.607 0.525,-0.606C0.52,-0.605 0.516,-0.605 0.514,-0.605C0.513,-0.606 0.512,-0.608 0.513,-0.611C0.513,-0.614 0.514,-0.617 0.515,-0.619C0.516,-0.624 0.522,-0.625 0.532,-0.623C0.542,-0.621 0.567,-0.622 0.607,-0.627L0.607,-0.636L0.559,-0.633C0.558,-0.633 0.544,-0.633 0.519,-0.634C0.493,-0.635 0.478,-0.633 0.473,-0.629C0.472,-0.629 0.475,-0.626 0.48,-0.622C0.486,-0.617 0.492,-0.61 0.5,-0.6C0.507,-0.591 0.511,-0.581 0.512,-0.57C0.513,-0.56 0.517,-0.542 0.526,-0.516L0.531,-0.503L0.541,-0.542L0.53,-0.54C0.525,-0.541 0.525,-0.547 0.53,-0.558C0.531,-0.563 0.535,-0.565 0.542,-0.563C0.549,-0.562 0.554,-0.561 0.559,-0.562C0.562,-0.565 0.565,-0.569 0.569,-0.574L0.541,-0.572C0.534,-0.57 0.528,-0.572 0.526,-0.576C0.523,-0.581 0.526,-0.587 0.534,-0.595ZM0.415,-0.254C0.406,-0.268 0.399,-0.279 0.395,-0.287C0.39,-0.296 0.384,-0.305 0.375,-0.316C0.367,-0.327 0.361,-0.337 0.357,-0.348C0.354,-0.358 0.347,-0.372 0.338,-0.389C0.329,-0.406 0.319,-0.431 0.309,-0.462C0.298,-0.494 0.287,-0.519 0.275,-0.537C0.263,-0.554 0.257,-0.572 0.257,-0.59C0.258,-0.597 0.261,-0.602 0.268,-0.605C0.274,-0.609 0.278,-0.612 0.281,-0.615C0.278,-0.603 0.279,-0.591 0.282,-0.578C0.282,-0.563 0.288,-0.548 0.298,-0.53C0.309,-0.513 0.319,-0.489 0.33,-0.459C0.34,-0.43 0.349,-0.406 0.358,-0.389C0.368,-0.372 0.374,-0.358 0.377,-0.348C0.381,-0.338 0.387,-0.328 0.396,-0.318C0.405,-0.309 0.41,-0.301 0.411,-0.297C0.412,-0.292 0.414,-0.288 0.416,-0.285C0.418,-0.282 0.42,-0.278 0.421,-0.275C0.422,-0.271 0.422,-0.267 0.419,-0.262C0.416,-0.257 0.415,-0.255 0.415,-0.254ZM0.69,-0.633C0.69,-0.632 0.69,-0.631 0.689,-0.63C0.689,-0.629 0.689,-0.628 0.688,-0.627C0.688,-0.626 0.688,-0.625 0.687,-0.624C0.686,-0.623 0.685,-0.622 0.684,-0.621C0.683,-0.619 0.677,-0.615 0.667,-0.608C0.657,-0.602 0.65,-0.596 0.646,-0.592C0.641,-0.587 0.631,-0.572 0.615,-0.547C0.599,-0.521 0.589,-0.503 0.585,-0.49C0.581,-0.477 0.575,-0.463 0.567,-0.447C0.56,-0.431 0.554,-0.417 0.552,-0.404C0.549,-0.392 0.541,-0.368 0.528,-0.331C0.515,-0.295 0.503,-0.258 0.492,-0.222C0.482,-0.185 0.472,-0.156 0.462,-0.135C0.453,-0.114 0.448,-0.098 0.446,-0.087C0.445,-0.076 0.44,-0.063 0.433,-0.046C0.425,-0.029 0.421,-0.019 0.42,-0.014C0.418,-0.005 0.405,0 0.381,0.002C0.392,0.001 0.398,-0.005 0.4,-0.014C0.401,-0.019 0.405,-0.029 0.413,-0.046C0.421,-0.063 0.425,-0.076 0.427,-0.087C0.428,-0.098 0.433,-0.114 0.442,-0.135C0.451,-0.156 0.461,-0.185 0.472,-0.222C0.482,-0.259 0.494,-0.295 0.508,-0.332C0.521,-0.368 0.53,-0.392 0.532,-0.404C0.535,-0.417 0.54,-0.431 0.547,-0.447C0.555,-0.463 0.561,-0.477 0.564,-0.49C0.568,-0.502 0.578,-0.521 0.595,-0.547C0.611,-0.572 0.622,-0.588 0.627,-0.594C0.633,-0.6 0.644,-0.607 0.66,-0.616C0.676,-0.625 0.685,-0.631 0.687,-0.634C0.688,-0.638 0.689,-0.64 0.69,-0.643L0.69,-0.633ZM0.133,-0.608C0.134,-0.618 0.14,-0.623 0.151,-0.621C0.162,-0.618 0.179,-0.618 0.2,-0.619C0.194,-0.632 0.189,-0.638 0.186,-0.638L0.147,-0.636C0.118,-0.636 0.103,-0.635 0.103,-0.632C0.103,-0.624 0.11,-0.607 0.125,-0.581C0.16,-0.519 0.18,-0.467 0.186,-0.426C0.186,-0.422 0.191,-0.412 0.201,-0.396C0.211,-0.38 0.221,-0.361 0.229,-0.338C0.237,-0.315 0.246,-0.295 0.255,-0.277C0.264,-0.26 0.269,-0.247 0.272,-0.24C0.284,-0.201 0.294,-0.176 0.302,-0.166C0.31,-0.156 0.315,-0.147 0.318,-0.141C0.321,-0.134 0.325,-0.128 0.327,-0.123C0.33,-0.118 0.331,-0.114 0.332,-0.111C0.333,-0.109 0.338,-0.108 0.348,-0.108C0.357,-0.108 0.367,-0.11 0.375,-0.113C0.384,-0.117 0.39,-0.121 0.393,-0.127C0.385,-0.126 0.374,-0.126 0.36,-0.126C0.352,-0.126 0.348,-0.13 0.348,-0.139C0.348,-0.14 0.354,-0.143 0.367,-0.146L0.4,-0.147L0.403,-0.169C0.386,-0.166 0.371,-0.164 0.357,-0.164L0.332,-0.164C0.329,-0.162 0.327,-0.165 0.327,-0.172C0.327,-0.18 0.328,-0.184 0.329,-0.185C0.33,-0.186 0.332,-0.186 0.335,-0.187C0.338,-0.188 0.34,-0.188 0.341,-0.189C0.343,-0.19 0.361,-0.19 0.395,-0.19L0.398,-0.19C0.389,-0.202 0.383,-0.208 0.383,-0.209L0.381,-0.209C0.341,-0.209 0.32,-0.209 0.317,-0.208L0.298,-0.208C0.296,-0.208 0.296,-0.21 0.296,-0.215C0.297,-0.22 0.298,-0.224 0.3,-0.227C0.302,-0.229 0.309,-0.23 0.32,-0.228C0.332,-0.226 0.349,-0.226 0.371,-0.229C0.369,-0.232 0.368,-0.237 0.366,-0.243L0.366,-0.25C0.352,-0.251 0.341,-0.252 0.335,-0.252C0.328,-0.252 0.319,-0.251 0.308,-0.25C0.296,-0.248 0.289,-0.248 0.286,-0.25C0.284,-0.251 0.284,-0.254 0.286,-0.259C0.289,-0.264 0.291,-0.267 0.293,-0.268C0.303,-0.27 0.315,-0.271 0.329,-0.271C0.343,-0.271 0.355,-0.272 0.364,-0.274C0.362,-0.28 0.36,-0.286 0.355,-0.294C0.348,-0.291 0.338,-0.29 0.325,-0.29C0.311,-0.29 0.303,-0.29 0.301,-0.291C0.298,-0.292 0.294,-0.292 0.289,-0.291C0.284,-0.29 0.28,-0.289 0.277,-0.289C0.275,-0.289 0.273,-0.294 0.271,-0.303C0.269,-0.306 0.272,-0.309 0.28,-0.31C0.288,-0.311 0.3,-0.312 0.317,-0.312C0.333,-0.312 0.343,-0.312 0.344,-0.313L0.333,-0.334L0.321,-0.33C0.318,-0.329 0.307,-0.328 0.287,-0.328C0.268,-0.328 0.256,-0.33 0.253,-0.333C0.25,-0.336 0.25,-0.339 0.251,-0.342C0.255,-0.349 0.271,-0.352 0.3,-0.352C0.306,-0.352 0.314,-0.353 0.325,-0.354L0.322,-0.361L0.317,-0.372L0.248,-0.366C0.247,-0.366 0.244,-0.369 0.238,-0.375C0.232,-0.38 0.235,-0.385 0.245,-0.388C0.248,-0.389 0.254,-0.389 0.261,-0.39C0.268,-0.391 0.272,-0.392 0.274,-0.393C0.276,-0.394 0.279,-0.394 0.283,-0.394L0.306,-0.395C0.302,-0.403 0.299,-0.41 0.297,-0.415L0.262,-0.411C0.246,-0.409 0.236,-0.408 0.232,-0.408C0.229,-0.408 0.226,-0.409 0.225,-0.41C0.223,-0.411 0.222,-0.413 0.221,-0.416C0.22,-0.418 0.219,-0.419 0.218,-0.42C0.215,-0.424 0.216,-0.428 0.224,-0.43C0.244,-0.435 0.262,-0.436 0.276,-0.435L0.286,-0.434C0.285,-0.435 0.284,-0.438 0.283,-0.442C0.281,-0.446 0.279,-0.449 0.278,-0.451C0.27,-0.452 0.257,-0.452 0.237,-0.452L0.208,-0.451C0.204,-0.451 0.202,-0.455 0.202,-0.464C0.202,-0.467 0.207,-0.469 0.218,-0.469L0.26,-0.473C0.261,-0.473 0.263,-0.474 0.265,-0.476L0.256,-0.496L0.204,-0.492C0.198,-0.492 0.193,-0.493 0.19,-0.498C0.188,-0.502 0.19,-0.508 0.197,-0.515C0.199,-0.516 0.204,-0.516 0.211,-0.516L0.247,-0.519L0.247,-0.521L0.241,-0.535C0.215,-0.532 0.201,-0.531 0.197,-0.533C0.194,-0.535 0.187,-0.534 0.176,-0.531C0.171,-0.532 0.171,-0.538 0.176,-0.549C0.177,-0.554 0.183,-0.555 0.194,-0.553C0.205,-0.55 0.217,-0.55 0.231,-0.553C0.228,-0.556 0.225,-0.562 0.221,-0.57L0.17,-0.566C0.162,-0.565 0.157,-0.566 0.155,-0.57C0.152,-0.575 0.155,-0.581 0.163,-0.589C0.165,-0.59 0.173,-0.59 0.187,-0.59C0.2,-0.59 0.209,-0.59 0.212,-0.592L0.206,-0.606C0.177,-0.602 0.162,-0.601 0.159,-0.603C0.157,-0.604 0.152,-0.604 0.146,-0.604C0.141,-0.603 0.137,-0.602 0.135,-0.603C0.134,-0.603 0.133,-0.605 0.133,-0.608ZM0.255,-0.662C0.274,-0.662 0.286,-0.655 0.291,-0.642C0.291,-0.633 0.283,-0.624 0.267,-0.617C0.256,-0.615 0.25,-0.605 0.247,-0.59C0.247,-0.572 0.253,-0.554 0.265,-0.535C0.277,-0.517 0.287,-0.496 0.294,-0.474C0.302,-0.452 0.307,-0.436 0.311,-0.428C0.314,-0.419 0.32,-0.406 0.329,-0.389C0.338,-0.372 0.344,-0.358 0.348,-0.348C0.351,-0.337 0.357,-0.327 0.366,-0.316C0.374,-0.305 0.38,-0.298 0.382,-0.293C0.399,-0.258 0.41,-0.241 0.416,-0.241C0.417,-0.242 0.421,-0.252 0.427,-0.272C0.433,-0.292 0.439,-0.309 0.446,-0.323C0.453,-0.337 0.459,-0.349 0.462,-0.36C0.466,-0.37 0.47,-0.389 0.473,-0.417C0.477,-0.444 0.481,-0.465 0.486,-0.479C0.492,-0.492 0.494,-0.514 0.494,-0.543C0.494,-0.572 0.486,-0.592 0.47,-0.602C0.468,-0.603 0.46,-0.607 0.448,-0.612C0.436,-0.617 0.43,-0.624 0.43,-0.631C0.43,-0.639 0.433,-0.646 0.438,-0.652C0.443,-0.658 0.451,-0.661 0.462,-0.661L0.519,-0.662C0.537,-0.662 0.549,-0.661 0.557,-0.658C0.564,-0.656 0.57,-0.654 0.576,-0.654C0.581,-0.653 0.594,-0.656 0.613,-0.66C0.633,-0.665 0.647,-0.667 0.657,-0.667C0.671,-0.667 0.679,-0.661 0.68,-0.649C0.68,-0.641 0.678,-0.635 0.674,-0.632C0.67,-0.629 0.665,-0.625 0.659,-0.622C0.653,-0.618 0.645,-0.613 0.636,-0.607C0.627,-0.602 0.62,-0.596 0.616,-0.592C0.611,-0.587 0.601,-0.572 0.585,-0.547C0.569,-0.521 0.559,-0.503 0.555,-0.49C0.551,-0.477 0.545,-0.463 0.537,-0.447C0.529,-0.431 0.524,-0.417 0.522,-0.404C0.519,-0.392 0.511,-0.368 0.498,-0.331C0.484,-0.295 0.472,-0.258 0.462,-0.222C0.451,-0.185 0.442,-0.156 0.433,-0.135C0.424,-0.114 0.418,-0.098 0.417,-0.087C0.415,-0.076 0.41,-0.063 0.402,-0.046C0.395,-0.029 0.39,-0.019 0.39,-0.014C0.388,-0.003 0.381,0.002 0.369,0.002C0.357,0.002 0.346,-0.002 0.337,-0.009C0.323,-0.018 0.316,-0.036 0.316,-0.063C0.316,-0.076 0.309,-0.096 0.294,-0.122C0.277,-0.159 0.268,-0.182 0.267,-0.189C0.266,-0.197 0.261,-0.209 0.251,-0.226C0.242,-0.243 0.237,-0.257 0.234,-0.268C0.232,-0.279 0.227,-0.292 0.218,-0.307C0.209,-0.322 0.204,-0.332 0.202,-0.337C0.199,-0.342 0.19,-0.359 0.175,-0.389C0.159,-0.418 0.149,-0.443 0.145,-0.463C0.14,-0.483 0.128,-0.516 0.109,-0.561C0.107,-0.566 0.095,-0.579 0.072,-0.602C0.068,-0.606 0.061,-0.607 0.051,-0.606C0.041,-0.605 0.035,-0.605 0.033,-0.605C0.024,-0.605 0.02,-0.62 0.02,-0.649C0.02,-0.657 0.028,-0.661 0.045,-0.661L0.086,-0.658C0.099,-0.658 0.112,-0.657 0.125,-0.657C0.139,-0.656 0.151,-0.656 0.164,-0.655C0.194,-0.654 0.215,-0.656 0.228,-0.658C0.241,-0.661 0.25,-0.662 0.255,-0.662Z" style="fill-rule:nonzero;"/>
                    </g>
                    <g transform="matrix(103.725,0,0,64,417.969,817.217)">
                        <path d="M0.443,-0.095C0.444,-0.08 0.438,-0.065 0.425,-0.05C0.423,-0.047 0.418,-0.041 0.412,-0.032C0.405,-0.023 0.397,-0.017 0.389,-0.015C0.381,-0.012 0.373,-0.009 0.366,-0.005C0.359,-0.001 0.353,0.002 0.349,0.003C0.345,0.004 0.339,0.007 0.331,0.01L0.314,0.017C0.295,0.022 0.283,0.023 0.276,0.019C0.299,0.019 0.323,0.011 0.348,-0.005C0.356,-0.011 0.365,-0.015 0.373,-0.018C0.382,-0.021 0.388,-0.026 0.394,-0.034C0.398,-0.042 0.402,-0.047 0.405,-0.05C0.42,-0.068 0.428,-0.083 0.428,-0.094C0.427,-0.117 0.419,-0.129 0.404,-0.131C0.429,-0.13 0.442,-0.118 0.443,-0.095ZM0.184,-0.253C0.184,-0.248 0.188,-0.244 0.196,-0.243C0.172,-0.243 0.161,-0.244 0.161,-0.246C0.161,-0.257 0.165,-0.269 0.172,-0.282C0.179,-0.296 0.187,-0.312 0.194,-0.331C0.202,-0.35 0.209,-0.362 0.216,-0.367C0.222,-0.372 0.234,-0.375 0.25,-0.375C0.248,-0.373 0.244,-0.371 0.238,-0.368C0.23,-0.363 0.222,-0.351 0.215,-0.331C0.208,-0.312 0.201,-0.296 0.194,-0.283C0.187,-0.271 0.184,-0.261 0.184,-0.253ZM0.183,-0.193C0.18,-0.19 0.178,-0.177 0.178,-0.154C0.178,-0.132 0.183,-0.104 0.193,-0.07C0.197,-0.048 0.211,-0.032 0.233,-0.022C0.223,-0.022 0.215,-0.024 0.209,-0.027C0.19,-0.036 0.178,-0.05 0.173,-0.07C0.163,-0.103 0.158,-0.131 0.158,-0.154C0.158,-0.177 0.161,-0.19 0.167,-0.192C0.17,-0.193 0.175,-0.194 0.183,-0.193ZM0.414,-0.316C0.407,-0.342 0.397,-0.36 0.384,-0.369C0.379,-0.372 0.373,-0.378 0.365,-0.387C0.348,-0.406 0.331,-0.415 0.314,-0.415C0.336,-0.417 0.361,-0.407 0.388,-0.384C0.402,-0.372 0.412,-0.361 0.418,-0.353C0.424,-0.345 0.43,-0.33 0.436,-0.31C0.442,-0.289 0.445,-0.273 0.445,-0.261C0.445,-0.25 0.444,-0.243 0.442,-0.241C0.44,-0.239 0.438,-0.234 0.435,-0.227C0.432,-0.219 0.43,-0.213 0.428,-0.21C0.419,-0.199 0.406,-0.195 0.388,-0.198C0.396,-0.198 0.401,-0.201 0.405,-0.207C0.409,-0.212 0.412,-0.219 0.415,-0.227C0.418,-0.234 0.42,-0.239 0.422,-0.241C0.424,-0.243 0.425,-0.25 0.425,-0.261C0.425,-0.272 0.421,-0.29 0.414,-0.316ZM0.332,-0.335C0.331,-0.338 0.33,-0.34 0.33,-0.341C0.33,-0.343 0.331,-0.344 0.332,-0.345C0.343,-0.345 0.352,-0.347 0.359,-0.35L0.353,-0.362C0.352,-0.364 0.347,-0.364 0.337,-0.364C0.327,-0.363 0.321,-0.363 0.319,-0.364C0.318,-0.365 0.318,-0.367 0.318,-0.369C0.318,-0.372 0.32,-0.374 0.324,-0.376C0.328,-0.379 0.333,-0.38 0.34,-0.38C0.333,-0.384 0.321,-0.386 0.303,-0.386L0.303,-0.372C0.305,-0.369 0.307,-0.363 0.31,-0.354C0.313,-0.344 0.316,-0.335 0.319,-0.326C0.323,-0.317 0.325,-0.301 0.326,-0.277C0.327,-0.253 0.33,-0.24 0.333,-0.236C0.336,-0.233 0.346,-0.232 0.361,-0.232C0.377,-0.232 0.386,-0.233 0.387,-0.234C0.389,-0.236 0.389,-0.241 0.389,-0.249L0.385,-0.249C0.381,-0.248 0.373,-0.248 0.361,-0.248C0.35,-0.248 0.343,-0.249 0.341,-0.25C0.339,-0.251 0.339,-0.254 0.342,-0.259C0.344,-0.264 0.347,-0.267 0.349,-0.268C0.366,-0.268 0.379,-0.269 0.387,-0.27L0.382,-0.291L0.348,-0.289C0.346,-0.289 0.343,-0.294 0.34,-0.303C0.338,-0.306 0.343,-0.309 0.354,-0.311L0.374,-0.311L0.368,-0.329L0.355,-0.329C0.346,-0.328 0.34,-0.328 0.337,-0.329C0.335,-0.33 0.333,-0.332 0.332,-0.335ZM0.154,-0.022C0.154,-0.022 0.152,-0.027 0.146,-0.038C0.141,-0.048 0.138,-0.054 0.138,-0.056C0.124,-0.059 0.117,-0.062 0.115,-0.063C0.114,-0.063 0.113,-0.066 0.112,-0.07C0.111,-0.074 0.112,-0.077 0.115,-0.079C0.125,-0.079 0.13,-0.08 0.131,-0.081C0.131,-0.086 0.131,-0.09 0.13,-0.095L0.107,-0.093C0.105,-0.093 0.103,-0.095 0.1,-0.1C0.097,-0.104 0.096,-0.108 0.096,-0.11C0.097,-0.111 0.1,-0.111 0.103,-0.11C0.106,-0.11 0.111,-0.11 0.117,-0.11L0.13,-0.11L0.126,-0.128L0.099,-0.125C0.095,-0.124 0.092,-0.126 0.089,-0.129C0.087,-0.132 0.086,-0.135 0.086,-0.139C0.086,-0.142 0.09,-0.145 0.097,-0.147L0.124,-0.142C0.123,-0.152 0.122,-0.16 0.122,-0.164C0.119,-0.165 0.113,-0.165 0.104,-0.165C0.094,-0.165 0.088,-0.165 0.087,-0.164C0.086,-0.163 0.085,-0.165 0.085,-0.169L0.085,-0.184C0.085,-0.186 0.09,-0.186 0.101,-0.185C0.111,-0.184 0.118,-0.183 0.121,-0.184L0.122,-0.204C0.119,-0.204 0.108,-0.205 0.089,-0.208C0.087,-0.208 0.087,-0.21 0.087,-0.215C0.088,-0.22 0.089,-0.223 0.09,-0.225C0.093,-0.227 0.099,-0.226 0.108,-0.224C0.117,-0.221 0.123,-0.22 0.125,-0.22C0.126,-0.222 0.127,-0.229 0.129,-0.244C0.126,-0.243 0.12,-0.244 0.112,-0.246C0.104,-0.247 0.1,-0.249 0.098,-0.25C0.096,-0.251 0.096,-0.254 0.099,-0.259C0.102,-0.264 0.104,-0.267 0.106,-0.268L0.134,-0.265L0.141,-0.284C0.136,-0.284 0.131,-0.286 0.124,-0.29C0.118,-0.293 0.114,-0.296 0.113,-0.297C0.113,-0.298 0.113,-0.299 0.114,-0.3C0.119,-0.303 0.127,-0.305 0.136,-0.305L0.148,-0.305C0.149,-0.31 0.152,-0.315 0.156,-0.321L0.133,-0.323C0.132,-0.325 0.132,-0.327 0.133,-0.33C0.136,-0.339 0.146,-0.342 0.162,-0.341L0.177,-0.37C0.174,-0.37 0.164,-0.365 0.147,-0.355C0.13,-0.345 0.119,-0.336 0.113,-0.329C0.095,-0.306 0.083,-0.284 0.077,-0.264C0.071,-0.243 0.067,-0.22 0.065,-0.194C0.065,-0.155 0.066,-0.131 0.069,-0.122C0.08,-0.091 0.089,-0.069 0.098,-0.057C0.103,-0.051 0.113,-0.044 0.127,-0.035C0.142,-0.026 0.151,-0.022 0.154,-0.022ZM0.151,-0.239C0.151,-0.237 0.166,-0.236 0.195,-0.236L0.248,-0.24L0.27,-0.24C0.283,-0.24 0.29,-0.243 0.291,-0.249C0.292,-0.258 0.293,-0.267 0.293,-0.276C0.293,-0.285 0.292,-0.293 0.291,-0.298C0.289,-0.303 0.286,-0.313 0.283,-0.328C0.28,-0.343 0.275,-0.355 0.269,-0.364C0.263,-0.374 0.253,-0.379 0.239,-0.381C0.221,-0.381 0.206,-0.371 0.193,-0.352C0.189,-0.346 0.184,-0.336 0.179,-0.325C0.174,-0.313 0.17,-0.305 0.167,-0.299C0.164,-0.293 0.16,-0.283 0.156,-0.268C0.152,-0.253 0.151,-0.243 0.151,-0.239ZM0.267,-0.205L0.207,-0.205C0.178,-0.205 0.161,-0.204 0.157,-0.202C0.151,-0.199 0.148,-0.185 0.148,-0.159C0.148,-0.132 0.153,-0.103 0.163,-0.07C0.168,-0.048 0.18,-0.032 0.199,-0.024C0.207,-0.02 0.215,-0.018 0.223,-0.018L0.26,-0.016C0.271,-0.016 0.287,-0.02 0.306,-0.028C0.325,-0.037 0.336,-0.043 0.34,-0.048C0.344,-0.053 0.346,-0.058 0.348,-0.062C0.349,-0.065 0.35,-0.071 0.352,-0.079C0.353,-0.087 0.353,-0.092 0.354,-0.095C0.359,-0.117 0.371,-0.129 0.391,-0.131C0.408,-0.131 0.417,-0.119 0.418,-0.094C0.418,-0.083 0.41,-0.068 0.396,-0.05C0.381,-0.032 0.369,-0.022 0.361,-0.02C0.354,-0.018 0.345,-0.014 0.337,-0.008C0.314,0.009 0.281,0.017 0.239,0.017C0.196,0.017 0.168,0.013 0.155,0.006C0.152,0.004 0.148,0.002 0.143,-0.001C0.139,-0.004 0.129,-0.007 0.115,-0.012C0.101,-0.017 0.088,-0.026 0.075,-0.039C0.063,-0.052 0.054,-0.066 0.047,-0.081C0.041,-0.096 0.038,-0.105 0.037,-0.109C0.036,-0.113 0.036,-0.12 0.035,-0.13C0.035,-0.14 0.034,-0.147 0.033,-0.15C0.033,-0.154 0.032,-0.159 0.032,-0.166L0.04,-0.218C0.04,-0.262 0.052,-0.3 0.077,-0.333C0.09,-0.349 0.101,-0.361 0.11,-0.367C0.116,-0.371 0.125,-0.376 0.137,-0.382C0.148,-0.388 0.16,-0.394 0.172,-0.402C0.184,-0.409 0.211,-0.413 0.253,-0.413L0.293,-0.413C0.31,-0.413 0.324,-0.408 0.337,-0.397C0.342,-0.394 0.349,-0.388 0.357,-0.382C0.365,-0.375 0.373,-0.369 0.38,-0.364C0.387,-0.359 0.392,-0.352 0.395,-0.343C0.398,-0.334 0.402,-0.32 0.407,-0.303C0.412,-0.285 0.415,-0.271 0.415,-0.26C0.415,-0.249 0.414,-0.243 0.412,-0.241C0.41,-0.239 0.408,-0.234 0.405,-0.227C0.403,-0.219 0.4,-0.213 0.397,-0.208C0.394,-0.203 0.384,-0.201 0.368,-0.201L0.348,-0.202C0.304,-0.204 0.277,-0.205 0.267,-0.205Z" style="fill-rule:nonzero;"/>
                    </g>
                    <g transform="matrix(103.725,0,0,64,464.122,817.217)">
                        <path d="M0.208,-0.394C0.208,-0.4 0.206,-0.405 0.202,-0.41C0.198,-0.415 0.193,-0.418 0.187,-0.418L0.192,-0.418C0.196,-0.419 0.2,-0.419 0.204,-0.42L0.209,-0.42C0.214,-0.42 0.219,-0.417 0.223,-0.412C0.227,-0.407 0.228,-0.402 0.228,-0.396C0.228,-0.391 0.227,-0.387 0.226,-0.383C0.208,-0.363 0.196,-0.348 0.19,-0.336C0.19,-0.347 0.193,-0.358 0.199,-0.369C0.205,-0.38 0.208,-0.388 0.208,-0.394ZM0.341,-0.348L0.324,-0.348C0.32,-0.348 0.315,-0.348 0.309,-0.347C0.303,-0.346 0.299,-0.346 0.296,-0.349C0.294,-0.351 0.294,-0.354 0.297,-0.357C0.3,-0.361 0.303,-0.363 0.306,-0.364C0.317,-0.364 0.327,-0.366 0.337,-0.369C0.336,-0.369 0.333,-0.371 0.328,-0.376L0.319,-0.383C0.315,-0.384 0.309,-0.384 0.301,-0.383C0.293,-0.382 0.288,-0.38 0.285,-0.377C0.283,-0.375 0.279,-0.369 0.274,-0.36C0.27,-0.35 0.267,-0.342 0.267,-0.336C0.267,-0.329 0.269,-0.322 0.274,-0.314C0.278,-0.307 0.282,-0.303 0.285,-0.3C0.288,-0.298 0.294,-0.297 0.303,-0.296C0.311,-0.296 0.319,-0.298 0.327,-0.303C0.313,-0.306 0.305,-0.309 0.302,-0.313C0.299,-0.316 0.298,-0.319 0.299,-0.322C0.301,-0.325 0.303,-0.326 0.305,-0.327C0.307,-0.328 0.31,-0.328 0.315,-0.327C0.319,-0.326 0.323,-0.326 0.326,-0.326L0.344,-0.328C0.345,-0.331 0.345,-0.335 0.343,-0.339C0.342,-0.344 0.341,-0.347 0.341,-0.348ZM0.384,-0.384C0.393,-0.38 0.397,-0.367 0.397,-0.345C0.397,-0.323 0.391,-0.307 0.379,-0.297C0.36,-0.282 0.342,-0.274 0.327,-0.274C0.336,-0.277 0.342,-0.28 0.346,-0.284C0.349,-0.288 0.354,-0.293 0.359,-0.297C0.371,-0.307 0.377,-0.323 0.377,-0.345C0.377,-0.367 0.373,-0.38 0.364,-0.384C0.362,-0.384 0.36,-0.387 0.359,-0.391C0.358,-0.395 0.356,-0.397 0.355,-0.397C0.354,-0.398 0.353,-0.401 0.351,-0.404C0.349,-0.407 0.342,-0.41 0.33,-0.413C0.347,-0.413 0.362,-0.408 0.375,-0.398C0.376,-0.397 0.378,-0.395 0.379,-0.391C0.38,-0.387 0.382,-0.385 0.384,-0.384ZM0.242,-0.297L0.226,-0.274C0.226,-0.273 0.226,-0.271 0.225,-0.268C0.224,-0.264 0.223,-0.26 0.222,-0.257C0.222,-0.254 0.22,-0.249 0.217,-0.244C0.215,-0.239 0.212,-0.225 0.209,-0.201C0.206,-0.178 0.204,-0.163 0.204,-0.156L0.206,-0.086C0.206,-0.062 0.207,-0.049 0.209,-0.048L0.192,-0.053C0.189,-0.056 0.187,-0.067 0.187,-0.086L0.184,-0.156C0.184,-0.163 0.185,-0.172 0.187,-0.185C0.188,-0.197 0.19,-0.209 0.191,-0.221C0.193,-0.242 0.209,-0.276 0.238,-0.323L0.242,-0.297ZM0.139,-0.328C0.125,-0.328 0.116,-0.33 0.112,-0.333C0.109,-0.336 0.108,-0.339 0.11,-0.342C0.114,-0.349 0.131,-0.352 0.16,-0.352C0.159,-0.364 0.154,-0.37 0.147,-0.37L0.132,-0.37C0.109,-0.37 0.097,-0.368 0.094,-0.365C0.091,-0.362 0.09,-0.332 0.09,-0.274L0.088,-0.196L0.087,-0.112C0.087,-0.098 0.088,-0.083 0.09,-0.065C0.093,-0.048 0.095,-0.038 0.097,-0.036C0.099,-0.033 0.103,-0.032 0.11,-0.032C0.117,-0.032 0.122,-0.033 0.126,-0.034C0.125,-0.04 0.126,-0.044 0.131,-0.047L0.145,-0.05C0.145,-0.051 0.146,-0.054 0.147,-0.058C0.132,-0.058 0.123,-0.059 0.12,-0.062C0.118,-0.063 0.117,-0.065 0.118,-0.068C0.118,-0.072 0.119,-0.075 0.122,-0.077C0.125,-0.079 0.133,-0.08 0.148,-0.08L0.148,-0.094C0.144,-0.094 0.134,-0.093 0.119,-0.093C0.117,-0.093 0.116,-0.094 0.114,-0.098C0.113,-0.101 0.113,-0.104 0.115,-0.107C0.116,-0.11 0.127,-0.112 0.149,-0.112C0.15,-0.118 0.151,-0.123 0.151,-0.126L0.136,-0.126C0.132,-0.126 0.128,-0.128 0.123,-0.131C0.118,-0.134 0.115,-0.137 0.115,-0.139C0.115,-0.141 0.12,-0.142 0.131,-0.144C0.141,-0.145 0.147,-0.145 0.149,-0.146C0.148,-0.149 0.147,-0.155 0.146,-0.164C0.143,-0.165 0.138,-0.165 0.13,-0.165C0.123,-0.165 0.118,-0.165 0.117,-0.164C0.115,-0.163 0.113,-0.165 0.113,-0.171C0.112,-0.177 0.112,-0.18 0.112,-0.182C0.112,-0.183 0.114,-0.184 0.116,-0.185C0.119,-0.186 0.122,-0.186 0.126,-0.187C0.131,-0.188 0.133,-0.188 0.135,-0.189L0.148,-0.19C0.149,-0.196 0.15,-0.202 0.15,-0.208L0.111,-0.208C0.109,-0.208 0.109,-0.21 0.109,-0.215C0.11,-0.22 0.111,-0.223 0.112,-0.225C0.115,-0.23 0.128,-0.231 0.151,-0.227L0.152,-0.249C0.152,-0.252 0.146,-0.252 0.135,-0.251C0.123,-0.25 0.116,-0.249 0.114,-0.25C0.112,-0.251 0.112,-0.254 0.115,-0.259C0.118,-0.264 0.12,-0.267 0.122,-0.268C0.133,-0.268 0.144,-0.269 0.153,-0.27L0.153,-0.291L0.118,-0.289C0.116,-0.289 0.113,-0.294 0.11,-0.303C0.108,-0.306 0.113,-0.309 0.124,-0.311L0.156,-0.312L0.158,-0.328L0.139,-0.328ZM0.089,-0.004L0.035,0.005C0.031,0.005 0.026,0.002 0.02,-0.003C0.014,-0.008 0.011,-0.012 0.011,-0.015C0.011,-0.018 0.012,-0.02 0.014,-0.022C0.02,-0.03 0.031,-0.034 0.047,-0.034C0.06,-0.034 0.067,-0.046 0.067,-0.07L0.064,-0.157L0.06,-0.202L0.062,-0.26L0.064,-0.304C0.065,-0.32 0.066,-0.334 0.066,-0.346C0.066,-0.357 0.064,-0.364 0.059,-0.366C0.054,-0.367 0.049,-0.368 0.044,-0.368C0.028,-0.368 0.02,-0.373 0.02,-0.382C0.023,-0.405 0.032,-0.416 0.045,-0.417C0.05,-0.417 0.057,-0.415 0.066,-0.411C0.075,-0.406 0.081,-0.404 0.086,-0.404C0.113,-0.411 0.131,-0.414 0.14,-0.414L0.142,-0.415L0.16,-0.412L0.177,-0.415C0.183,-0.415 0.188,-0.413 0.191,-0.408C0.2,-0.397 0.201,-0.386 0.193,-0.373C0.185,-0.36 0.181,-0.348 0.181,-0.337C0.181,-0.326 0.182,-0.321 0.184,-0.321C0.186,-0.321 0.189,-0.325 0.194,-0.333C0.224,-0.386 0.26,-0.413 0.3,-0.413C0.317,-0.413 0.332,-0.408 0.345,-0.398C0.347,-0.397 0.348,-0.395 0.349,-0.391C0.35,-0.387 0.352,-0.385 0.354,-0.384C0.363,-0.38 0.367,-0.367 0.367,-0.345C0.367,-0.323 0.361,-0.307 0.349,-0.297C0.33,-0.282 0.313,-0.274 0.299,-0.274C0.285,-0.274 0.272,-0.278 0.261,-0.287C0.25,-0.296 0.244,-0.306 0.244,-0.319C0.244,-0.331 0.245,-0.341 0.248,-0.347C0.242,-0.343 0.232,-0.331 0.22,-0.31C0.207,-0.288 0.2,-0.274 0.197,-0.268C0.195,-0.261 0.193,-0.256 0.191,-0.253C0.19,-0.25 0.19,-0.248 0.189,-0.245C0.188,-0.243 0.187,-0.239 0.185,-0.235C0.183,-0.231 0.182,-0.225 0.181,-0.217C0.18,-0.208 0.179,-0.197 0.177,-0.185C0.175,-0.172 0.174,-0.163 0.174,-0.156L0.177,-0.086C0.177,-0.061 0.178,-0.048 0.181,-0.046C0.183,-0.045 0.189,-0.043 0.198,-0.041C0.207,-0.038 0.212,-0.035 0.212,-0.031L0.213,-0.017L0.213,-0.009C0.213,-0.003 0.211,-0 0.206,-0L0.148,0.003L0.089,-0.004Z" style="fill-rule:nonzero;"/>
                    </g>
                    <g transform="matrix(103.725,0,0,64,503.313,817.217)">
                        <path d="M0.309,-0.343L0.309,-0.361C0.303,-0.36 0.296,-0.359 0.289,-0.359C0.286,-0.359 0.283,-0.364 0.281,-0.373C0.28,-0.375 0.284,-0.377 0.291,-0.379C0.298,-0.382 0.304,-0.383 0.307,-0.383C0.302,-0.385 0.292,-0.386 0.277,-0.385C0.262,-0.383 0.255,-0.382 0.255,-0.379C0.255,-0.376 0.262,-0.363 0.277,-0.34C0.292,-0.317 0.3,-0.304 0.302,-0.301L0.31,-0.325L0.3,-0.326C0.297,-0.326 0.295,-0.331 0.292,-0.34C0.292,-0.342 0.298,-0.343 0.309,-0.343ZM0.044,-0.135C0.044,-0.08 0.046,-0.049 0.05,-0.042C0.054,-0.034 0.079,-0.03 0.126,-0.03C0.109,-0.035 0.1,-0.04 0.1,-0.044L0.104,-0.046C0.107,-0.047 0.111,-0.049 0.114,-0.05C0.117,-0.051 0.119,-0.052 0.12,-0.052L0.112,-0.061C0.108,-0.059 0.103,-0.058 0.095,-0.057C0.087,-0.056 0.08,-0.058 0.075,-0.062C0.073,-0.063 0.072,-0.065 0.072,-0.068C0.072,-0.072 0.074,-0.074 0.076,-0.076C0.079,-0.078 0.086,-0.079 0.098,-0.079L0.087,-0.096C0.075,-0.094 0.068,-0.093 0.065,-0.093C0.062,-0.093 0.061,-0.094 0.06,-0.098C0.059,-0.101 0.058,-0.104 0.059,-0.105C0.059,-0.107 0.065,-0.109 0.077,-0.112C0.073,-0.116 0.066,-0.121 0.058,-0.126C0.049,-0.131 0.044,-0.134 0.044,-0.135ZM0.33,-0.283C0.333,-0.289 0.335,-0.301 0.336,-0.318C0.337,-0.336 0.339,-0.354 0.343,-0.374C0.347,-0.394 0.344,-0.406 0.336,-0.41C0.357,-0.403 0.365,-0.39 0.358,-0.372C0.352,-0.353 0.349,-0.339 0.351,-0.329C0.354,-0.309 0.348,-0.294 0.334,-0.286L0.33,-0.283ZM0.203,-0.357C0.202,-0.356 0.202,-0.347 0.202,-0.331C0.202,-0.315 0.209,-0.302 0.222,-0.293C0.224,-0.292 0.228,-0.288 0.235,-0.281C0.241,-0.275 0.25,-0.268 0.26,-0.26C0.228,-0.275 0.209,-0.286 0.202,-0.293C0.189,-0.304 0.182,-0.318 0.182,-0.333C0.182,-0.349 0.183,-0.359 0.185,-0.364C0.186,-0.368 0.189,-0.371 0.192,-0.374C0.195,-0.376 0.198,-0.377 0.2,-0.376C0.203,-0.375 0.205,-0.374 0.208,-0.373C0.211,-0.372 0.212,-0.371 0.213,-0.371C0.206,-0.363 0.203,-0.358 0.203,-0.357ZM0.206,-0.044C0.192,-0.042 0.181,-0.044 0.174,-0.05L0.167,-0.055C0.164,-0.056 0.162,-0.057 0.16,-0.06C0.158,-0.062 0.155,-0.065 0.151,-0.069C0.147,-0.074 0.143,-0.078 0.139,-0.082C0.11,-0.11 0.091,-0.131 0.085,-0.146C0.078,-0.161 0.073,-0.17 0.069,-0.174C0.065,-0.178 0.06,-0.18 0.053,-0.181C0.061,-0.184 0.071,-0.183 0.081,-0.178C0.091,-0.173 0.099,-0.164 0.103,-0.149C0.108,-0.135 0.126,-0.113 0.159,-0.082C0.163,-0.078 0.168,-0.073 0.174,-0.066C0.18,-0.06 0.184,-0.056 0.187,-0.055C0.193,-0.048 0.2,-0.045 0.206,-0.044ZM0.064,-0.285C0.064,-0.285 0.065,-0.28 0.067,-0.272C0.071,-0.263 0.079,-0.251 0.092,-0.239C0.111,-0.225 0.126,-0.217 0.138,-0.214C0.15,-0.212 0.161,-0.207 0.171,-0.198C0.182,-0.19 0.189,-0.185 0.193,-0.183C0.213,-0.177 0.226,-0.167 0.233,-0.153C0.235,-0.15 0.238,-0.145 0.243,-0.138C0.248,-0.131 0.251,-0.125 0.251,-0.122C0.251,-0.119 0.252,-0.11 0.254,-0.097C0.257,-0.083 0.257,-0.074 0.255,-0.069C0.253,-0.065 0.251,-0.059 0.25,-0.053C0.25,-0.046 0.248,-0.04 0.246,-0.037C0.247,-0.036 0.255,-0.038 0.27,-0.042C0.285,-0.046 0.295,-0.052 0.3,-0.06C0.283,-0.061 0.274,-0.061 0.273,-0.062C0.272,-0.063 0.272,-0.065 0.272,-0.068C0.273,-0.076 0.285,-0.08 0.307,-0.08L0.31,-0.093L0.286,-0.092C0.284,-0.092 0.282,-0.094 0.28,-0.098C0.278,-0.102 0.278,-0.104 0.278,-0.105C0.279,-0.106 0.29,-0.108 0.313,-0.111L0.314,-0.126L0.285,-0.123C0.28,-0.122 0.277,-0.128 0.277,-0.139L0.319,-0.145L0.316,-0.16C0.288,-0.16 0.272,-0.159 0.269,-0.158C0.265,-0.156 0.261,-0.158 0.257,-0.164C0.253,-0.169 0.253,-0.174 0.256,-0.177C0.259,-0.18 0.277,-0.182 0.309,-0.182L0.294,-0.194C0.267,-0.194 0.25,-0.193 0.242,-0.191L0.223,-0.191C0.222,-0.191 0.221,-0.193 0.221,-0.198C0.222,-0.203 0.223,-0.207 0.224,-0.208C0.225,-0.21 0.232,-0.211 0.243,-0.212C0.254,-0.213 0.262,-0.214 0.266,-0.213L0.251,-0.224L0.174,-0.222C0.172,-0.222 0.172,-0.225 0.172,-0.229C0.173,-0.234 0.174,-0.238 0.175,-0.24C0.177,-0.243 0.19,-0.244 0.216,-0.244C0.206,-0.248 0.198,-0.251 0.193,-0.254C0.191,-0.252 0.176,-0.251 0.147,-0.251C0.138,-0.25 0.131,-0.251 0.126,-0.254C0.121,-0.257 0.119,-0.262 0.119,-0.267C0.138,-0.267 0.156,-0.268 0.172,-0.271L0.156,-0.283C0.14,-0.283 0.132,-0.284 0.13,-0.284C0.129,-0.285 0.125,-0.285 0.12,-0.284C0.115,-0.283 0.111,-0.282 0.109,-0.282C0.107,-0.282 0.105,-0.287 0.102,-0.296C0.101,-0.299 0.103,-0.3 0.109,-0.302C0.121,-0.305 0.134,-0.305 0.147,-0.302C0.144,-0.307 0.142,-0.313 0.142,-0.321L0.112,-0.321C0.103,-0.321 0.1,-0.326 0.104,-0.335C0.105,-0.338 0.118,-0.34 0.143,-0.343C0.146,-0.352 0.148,-0.359 0.148,-0.365L0.153,-0.38C0.151,-0.38 0.142,-0.376 0.126,-0.368C0.111,-0.36 0.102,-0.356 0.1,-0.354C0.076,-0.337 0.064,-0.314 0.064,-0.285ZM0.226,-0.074C0.226,-0.114 0.203,-0.142 0.158,-0.159C0.151,-0.162 0.144,-0.166 0.139,-0.172C0.134,-0.178 0.128,-0.181 0.121,-0.183C0.114,-0.184 0.103,-0.189 0.088,-0.197C0.073,-0.206 0.062,-0.216 0.055,-0.227C0.042,-0.25 0.035,-0.272 0.036,-0.294C0.037,-0.316 0.041,-0.332 0.05,-0.342C0.052,-0.344 0.058,-0.351 0.067,-0.363C0.077,-0.375 0.089,-0.384 0.102,-0.391C0.14,-0.41 0.176,-0.419 0.208,-0.419C0.218,-0.419 0.231,-0.417 0.245,-0.415C0.259,-0.412 0.272,-0.41 0.283,-0.409C0.294,-0.409 0.303,-0.409 0.311,-0.411C0.318,-0.413 0.323,-0.413 0.326,-0.41C0.335,-0.406 0.337,-0.394 0.333,-0.374C0.329,-0.354 0.327,-0.335 0.326,-0.318C0.326,-0.301 0.324,-0.29 0.32,-0.284C0.317,-0.278 0.31,-0.276 0.3,-0.276C0.29,-0.277 0.284,-0.281 0.283,-0.288C0.282,-0.293 0.278,-0.301 0.271,-0.313C0.263,-0.324 0.258,-0.331 0.256,-0.336C0.244,-0.359 0.236,-0.371 0.229,-0.371L0.197,-0.381C0.192,-0.381 0.188,-0.38 0.186,-0.378C0.177,-0.37 0.172,-0.356 0.172,-0.338C0.172,-0.319 0.179,-0.304 0.192,-0.293C0.203,-0.282 0.222,-0.27 0.251,-0.256C0.28,-0.242 0.299,-0.227 0.31,-0.212C0.333,-0.189 0.345,-0.168 0.345,-0.149C0.342,-0.112 0.339,-0.089 0.335,-0.08C0.331,-0.071 0.323,-0.059 0.311,-0.045C0.266,0.007 0.206,0.022 0.13,-0.001C0.104,-0.009 0.089,-0.013 0.085,-0.013C0.081,-0.013 0.073,-0.011 0.06,-0.008C0.047,-0.004 0.037,-0.004 0.032,-0.006C0.029,-0.009 0.027,-0.02 0.027,-0.038L0.028,-0.079L0.023,-0.145C0.023,-0.167 0.03,-0.178 0.043,-0.177C0.051,-0.175 0.057,-0.174 0.061,-0.171C0.064,-0.168 0.069,-0.16 0.075,-0.146C0.081,-0.131 0.099,-0.11 0.129,-0.082C0.137,-0.074 0.144,-0.068 0.147,-0.063C0.151,-0.058 0.154,-0.056 0.156,-0.056C0.157,-0.055 0.161,-0.052 0.166,-0.045C0.171,-0.038 0.18,-0.035 0.193,-0.035C0.206,-0.035 0.216,-0.043 0.224,-0.06C0.225,-0.063 0.226,-0.068 0.226,-0.074Z" style="fill-rule:nonzero;"/>
                    </g>
                    <g transform="matrix(103.725,0,0,64,540.3,817.217)">
                        <path d="M0.163,-0.566L0.163,-0.58C0.153,-0.579 0.147,-0.579 0.146,-0.58C0.144,-0.581 0.14,-0.581 0.134,-0.58C0.128,-0.579 0.124,-0.578 0.123,-0.579C0.122,-0.579 0.121,-0.581 0.122,-0.584C0.122,-0.587 0.123,-0.59 0.124,-0.592C0.125,-0.596 0.131,-0.598 0.142,-0.596L0.158,-0.596C0.158,-0.601 0.154,-0.606 0.148,-0.61C0.143,-0.615 0.137,-0.617 0.132,-0.617C0.127,-0.617 0.119,-0.612 0.109,-0.603C0.099,-0.593 0.094,-0.585 0.094,-0.579C0.094,-0.56 0.095,-0.549 0.097,-0.548C0.112,-0.536 0.124,-0.53 0.131,-0.53C0.138,-0.53 0.144,-0.532 0.149,-0.535L0.164,-0.549L0.126,-0.547C0.124,-0.548 0.123,-0.549 0.122,-0.553C0.121,-0.556 0.121,-0.559 0.123,-0.563C0.125,-0.566 0.129,-0.567 0.134,-0.566C0.139,-0.565 0.145,-0.564 0.151,-0.565C0.158,-0.566 0.161,-0.566 0.163,-0.566ZM0.171,-0.52C0.194,-0.531 0.205,-0.55 0.205,-0.577C0.205,-0.604 0.194,-0.624 0.173,-0.636C0.168,-0.639 0.164,-0.642 0.163,-0.643C0.172,-0.643 0.182,-0.639 0.193,-0.633C0.214,-0.622 0.224,-0.604 0.225,-0.578L0.222,-0.556C0.221,-0.541 0.209,-0.529 0.188,-0.522C0.183,-0.521 0.179,-0.52 0.176,-0.52L0.171,-0.52ZM0.24,-0.404C0.243,-0.4 0.244,-0.395 0.244,-0.389C0.244,-0.382 0.243,-0.378 0.24,-0.375C0.238,-0.372 0.235,-0.37 0.233,-0.368C0.23,-0.366 0.228,-0.365 0.227,-0.363C0.226,-0.362 0.225,-0.357 0.225,-0.349L0.226,-0.318L0.222,-0.235L0.221,-0.159C0.221,-0.123 0.222,-0.1 0.223,-0.089L0.225,-0.033L0.216,-0.033C0.213,-0.036 0.211,-0.045 0.21,-0.059C0.21,-0.072 0.209,-0.087 0.207,-0.104C0.205,-0.12 0.204,-0.137 0.204,-0.156C0.204,-0.175 0.203,-0.201 0.202,-0.235L0.206,-0.318L0.205,-0.349C0.205,-0.357 0.206,-0.362 0.207,-0.363C0.208,-0.365 0.211,-0.367 0.216,-0.371C0.22,-0.375 0.223,-0.38 0.224,-0.386C0.224,-0.4 0.22,-0.409 0.212,-0.412C0.215,-0.411 0.219,-0.411 0.226,-0.41C0.233,-0.409 0.238,-0.407 0.24,-0.404ZM0.167,-0.112L0.167,-0.126L0.136,-0.126C0.13,-0.126 0.127,-0.13 0.127,-0.139C0.127,-0.14 0.14,-0.142 0.167,-0.146L0.166,-0.155C0.166,-0.161 0.166,-0.164 0.167,-0.164L0.129,-0.164C0.126,-0.162 0.124,-0.168 0.124,-0.181C0.124,-0.187 0.139,-0.19 0.169,-0.19C0.169,-0.198 0.169,-0.204 0.168,-0.209L0.148,-0.208L0.123,-0.208C0.121,-0.208 0.121,-0.21 0.121,-0.215C0.122,-0.22 0.123,-0.223 0.124,-0.225C0.129,-0.233 0.143,-0.233 0.167,-0.226L0.167,-0.25C0.164,-0.249 0.157,-0.248 0.146,-0.248C0.135,-0.248 0.128,-0.249 0.126,-0.25C0.124,-0.251 0.124,-0.254 0.127,-0.259C0.13,-0.264 0.132,-0.267 0.134,-0.268C0.146,-0.268 0.157,-0.269 0.168,-0.27L0.169,-0.29L0.13,-0.289C0.127,-0.289 0.125,-0.294 0.122,-0.303C0.12,-0.306 0.125,-0.309 0.136,-0.311L0.168,-0.312L0.165,-0.328L0.148,-0.328C0.135,-0.328 0.127,-0.33 0.125,-0.333C0.122,-0.336 0.121,-0.339 0.123,-0.342C0.124,-0.345 0.126,-0.347 0.129,-0.348L0.164,-0.352C0.163,-0.358 0.161,-0.362 0.156,-0.365C0.152,-0.368 0.148,-0.37 0.146,-0.37C0.144,-0.37 0.138,-0.371 0.127,-0.374C0.116,-0.376 0.108,-0.376 0.102,-0.373C0.099,-0.37 0.099,-0.365 0.1,-0.357C0.101,-0.349 0.101,-0.344 0.101,-0.343L0.102,-0.317L0.102,-0.28L0.098,-0.247C0.098,-0.233 0.098,-0.221 0.099,-0.211L0.099,-0.196L0.097,-0.133L0.1,-0.087L0.098,-0.057L0.101,-0.026C0.101,-0.023 0.103,-0.021 0.106,-0.021L0.171,-0.016C0.172,-0.016 0.172,-0.017 0.172,-0.019L0.171,-0.029C0.147,-0.029 0.134,-0.03 0.132,-0.032C0.13,-0.033 0.129,-0.035 0.129,-0.039C0.13,-0.042 0.131,-0.045 0.134,-0.046C0.136,-0.047 0.143,-0.047 0.154,-0.046C0.165,-0.045 0.171,-0.045 0.172,-0.045L0.169,-0.06C0.146,-0.06 0.133,-0.061 0.131,-0.062C0.13,-0.063 0.129,-0.065 0.129,-0.068C0.13,-0.072 0.131,-0.075 0.134,-0.077C0.136,-0.079 0.148,-0.08 0.168,-0.08C0.169,-0.082 0.169,-0.085 0.168,-0.088C0.167,-0.091 0.167,-0.094 0.167,-0.095C0.159,-0.094 0.147,-0.093 0.131,-0.093C0.129,-0.093 0.127,-0.094 0.126,-0.098C0.125,-0.101 0.125,-0.104 0.126,-0.107C0.127,-0.11 0.141,-0.112 0.167,-0.112ZM0.133,-0.648C0.143,-0.648 0.149,-0.647 0.151,-0.645C0.153,-0.642 0.159,-0.639 0.168,-0.633C0.177,-0.628 0.183,-0.62 0.187,-0.61L0.195,-0.578C0.195,-0.555 0.19,-0.54 0.181,-0.534C0.18,-0.534 0.178,-0.532 0.175,-0.53C0.172,-0.528 0.169,-0.526 0.166,-0.524C0.163,-0.522 0.159,-0.519 0.152,-0.514C0.145,-0.508 0.137,-0.506 0.129,-0.506L0.117,-0.509C0.104,-0.509 0.092,-0.515 0.081,-0.526C0.069,-0.538 0.063,-0.551 0.063,-0.565L0.069,-0.599C0.069,-0.603 0.072,-0.608 0.076,-0.612L0.097,-0.631C0.101,-0.634 0.105,-0.638 0.11,-0.642C0.116,-0.646 0.123,-0.648 0.133,-0.648ZM0.035,-0.416C0.061,-0.413 0.088,-0.412 0.116,-0.412L0.173,-0.416C0.184,-0.416 0.193,-0.415 0.202,-0.413C0.21,-0.41 0.214,-0.402 0.214,-0.386C0.213,-0.379 0.21,-0.374 0.206,-0.371C0.201,-0.367 0.199,-0.365 0.197,-0.363C0.196,-0.362 0.195,-0.357 0.195,-0.349L0.196,-0.318C0.194,-0.291 0.194,-0.252 0.194,-0.203C0.194,-0.153 0.196,-0.112 0.2,-0.08C0.204,-0.047 0.207,-0.03 0.208,-0.028C0.21,-0.027 0.213,-0.026 0.216,-0.026L0.223,-0.026C0.229,-0.026 0.232,-0.022 0.232,-0.013C0.232,0.002 0.225,0.011 0.211,0.012C0.204,0.013 0.194,0.013 0.179,0.013C0.165,0.014 0.15,0.012 0.135,0.009C0.12,0.006 0.108,0.004 0.101,0.004C0.093,0.004 0.087,0.004 0.082,0.005C0.077,0.006 0.07,0.007 0.059,0.008C0.048,0.01 0.038,0.011 0.031,0.011C0.024,0.011 0.019,0.007 0.016,0C0.013,-0.007 0.011,-0.013 0.011,-0.019C0.011,-0.025 0.013,-0.029 0.015,-0.031C0.018,-0.034 0.024,-0.035 0.032,-0.035C0.041,-0.035 0.046,-0.036 0.049,-0.037C0.059,-0.043 0.064,-0.053 0.064,-0.068C0.066,-0.09 0.067,-0.105 0.067,-0.112L0.064,-0.172L0.071,-0.214C0.076,-0.237 0.077,-0.264 0.075,-0.295L0.076,-0.345C0.076,-0.353 0.075,-0.359 0.072,-0.363C0.068,-0.37 0.058,-0.373 0.044,-0.373C0.025,-0.377 0.015,-0.381 0.014,-0.387C0.014,-0.406 0.021,-0.416 0.035,-0.416Z" style="fill-rule:nonzero;"/>
                    </g>
                    <g transform="matrix(103.725,0,0,64,565.283,817.217)">
                        <path d="M0.175,-0.174L0.177,-0.214C0.177,-0.233 0.178,-0.245 0.18,-0.251C0.182,-0.257 0.184,-0.264 0.188,-0.272C0.191,-0.281 0.194,-0.289 0.197,-0.298C0.2,-0.306 0.204,-0.315 0.209,-0.323C0.214,-0.331 0.22,-0.339 0.227,-0.345C0.234,-0.352 0.24,-0.357 0.244,-0.361C0.252,-0.365 0.261,-0.367 0.271,-0.367C0.26,-0.361 0.251,-0.355 0.243,-0.348C0.235,-0.34 0.228,-0.328 0.222,-0.311C0.212,-0.282 0.206,-0.265 0.203,-0.258C0.2,-0.251 0.198,-0.237 0.197,-0.214L0.195,-0.174C0.194,-0.164 0.197,-0.153 0.201,-0.138C0.206,-0.124 0.209,-0.11 0.21,-0.096C0.212,-0.082 0.215,-0.072 0.221,-0.067C0.226,-0.063 0.229,-0.059 0.231,-0.058C0.233,-0.056 0.234,-0.055 0.235,-0.054C0.24,-0.049 0.249,-0.047 0.261,-0.047C0.255,-0.045 0.244,-0.046 0.228,-0.05C0.211,-0.054 0.2,-0.063 0.194,-0.079C0.193,-0.083 0.191,-0.091 0.19,-0.102C0.189,-0.112 0.186,-0.124 0.182,-0.139C0.177,-0.153 0.175,-0.165 0.175,-0.174ZM0.48,-0.251C0.48,-0.247 0.481,-0.228 0.484,-0.193C0.484,-0.168 0.479,-0.143 0.469,-0.117C0.458,-0.092 0.448,-0.072 0.438,-0.058C0.419,-0.033 0.391,-0.015 0.354,-0.003C0.327,0.005 0.304,0.01 0.287,0.013C0.294,0.011 0.305,0.007 0.322,-0.001C0.339,-0.008 0.351,-0.013 0.357,-0.014C0.382,-0.022 0.401,-0.035 0.414,-0.053C0.427,-0.07 0.438,-0.092 0.449,-0.117C0.459,-0.143 0.465,-0.164 0.464,-0.181C0.463,-0.198 0.462,-0.211 0.461,-0.222C0.46,-0.232 0.46,-0.242 0.46,-0.251C0.46,-0.282 0.454,-0.306 0.441,-0.325C0.423,-0.356 0.406,-0.377 0.389,-0.386C0.385,-0.388 0.379,-0.392 0.37,-0.398C0.361,-0.405 0.351,-0.409 0.34,-0.41C0.36,-0.41 0.381,-0.402 0.404,-0.388C0.427,-0.373 0.446,-0.353 0.461,-0.325C0.474,-0.307 0.48,-0.282 0.48,-0.251ZM0.386,-0.208C0.384,-0.208 0.383,-0.21 0.384,-0.215C0.384,-0.22 0.385,-0.224 0.387,-0.226C0.388,-0.228 0.394,-0.229 0.403,-0.229C0.413,-0.23 0.42,-0.23 0.425,-0.229L0.42,-0.25C0.4,-0.247 0.388,-0.246 0.385,-0.249C0.382,-0.251 0.381,-0.254 0.384,-0.259C0.386,-0.264 0.389,-0.267 0.393,-0.269C0.396,-0.27 0.405,-0.27 0.419,-0.27L0.416,-0.292C0.406,-0.29 0.397,-0.289 0.389,-0.289C0.386,-0.289 0.383,-0.294 0.381,-0.303C0.379,-0.306 0.383,-0.309 0.392,-0.31C0.4,-0.311 0.405,-0.312 0.405,-0.313L0.394,-0.33C0.393,-0.33 0.39,-0.329 0.383,-0.328C0.376,-0.327 0.372,-0.33 0.372,-0.337C0.371,-0.344 0.37,-0.349 0.37,-0.352C0.368,-0.352 0.365,-0.351 0.359,-0.348C0.354,-0.346 0.351,-0.343 0.351,-0.341L0.358,-0.292C0.359,-0.288 0.359,-0.283 0.359,-0.277L0.363,-0.244L0.36,-0.178C0.36,-0.129 0.348,-0.087 0.323,-0.053C0.321,-0.05 0.32,-0.048 0.32,-0.045C0.319,-0.044 0.322,-0.043 0.326,-0.043C0.339,-0.043 0.35,-0.048 0.359,-0.059C0.353,-0.059 0.35,-0.062 0.351,-0.069C0.351,-0.075 0.355,-0.078 0.361,-0.078L0.381,-0.076L0.394,-0.085C0.384,-0.086 0.377,-0.089 0.373,-0.092C0.369,-0.095 0.368,-0.099 0.37,-0.103C0.372,-0.108 0.376,-0.111 0.38,-0.111L0.388,-0.111L0.404,-0.11C0.407,-0.116 0.409,-0.122 0.409,-0.128C0.39,-0.128 0.38,-0.129 0.38,-0.132C0.38,-0.141 0.384,-0.146 0.392,-0.148L0.416,-0.148L0.423,-0.165C0.419,-0.166 0.412,-0.166 0.403,-0.166C0.394,-0.165 0.389,-0.165 0.388,-0.164C0.384,-0.162 0.382,-0.168 0.382,-0.181C0.382,-0.183 0.386,-0.185 0.396,-0.185C0.405,-0.186 0.41,-0.186 0.411,-0.187C0.413,-0.188 0.418,-0.188 0.426,-0.188L0.425,-0.207L0.419,-0.208L0.386,-0.208ZM0.184,-0.03L0.182,-0.043L0.18,-0.046C0.175,-0.049 0.172,-0.053 0.171,-0.058C0.157,-0.056 0.147,-0.057 0.141,-0.062C0.139,-0.063 0.138,-0.065 0.139,-0.068C0.139,-0.072 0.14,-0.075 0.143,-0.077C0.145,-0.079 0.152,-0.08 0.163,-0.08L0.156,-0.094L0.119,-0.093C0.117,-0.093 0.116,-0.094 0.114,-0.098C0.113,-0.101 0.113,-0.104 0.114,-0.106L0.147,-0.111L0.141,-0.126L0.113,-0.126C0.105,-0.126 0.101,-0.13 0.101,-0.139L0.138,-0.145C0.135,-0.153 0.132,-0.159 0.131,-0.164C0.128,-0.165 0.121,-0.165 0.111,-0.165C0.101,-0.165 0.095,-0.165 0.093,-0.164C0.09,-0.162 0.089,-0.168 0.089,-0.182C0.089,-0.184 0.091,-0.186 0.095,-0.187C0.099,-0.188 0.101,-0.188 0.103,-0.189L0.131,-0.19L0.131,-0.208L0.086,-0.208C0.084,-0.208 0.084,-0.21 0.084,-0.215C0.085,-0.22 0.086,-0.224 0.087,-0.226C0.088,-0.228 0.095,-0.229 0.107,-0.229C0.119,-0.229 0.127,-0.228 0.132,-0.227L0.136,-0.25C0.135,-0.249 0.126,-0.249 0.11,-0.249C0.1,-0.248 0.094,-0.248 0.092,-0.25C0.089,-0.251 0.089,-0.254 0.092,-0.259C0.094,-0.264 0.097,-0.267 0.099,-0.268L0.143,-0.27C0.144,-0.28 0.146,-0.287 0.147,-0.29C0.144,-0.289 0.138,-0.289 0.129,-0.289C0.12,-0.289 0.115,-0.29 0.114,-0.291C0.113,-0.295 0.114,-0.298 0.115,-0.301C0.115,-0.303 0.121,-0.307 0.134,-0.311L0.16,-0.312C0.165,-0.32 0.17,-0.326 0.173,-0.33C0.166,-0.33 0.16,-0.332 0.155,-0.335C0.153,-0.337 0.153,-0.339 0.154,-0.342C0.156,-0.345 0.158,-0.347 0.161,-0.348L0.19,-0.352C0.194,-0.356 0.2,-0.362 0.206,-0.371C0.213,-0.379 0.216,-0.383 0.216,-0.384L0.19,-0.378C0.189,-0.378 0.182,-0.375 0.169,-0.369C0.157,-0.363 0.15,-0.359 0.147,-0.357C0.145,-0.356 0.139,-0.35 0.127,-0.339C0.116,-0.328 0.104,-0.311 0.091,-0.289C0.078,-0.267 0.071,-0.251 0.069,-0.242C0.068,-0.233 0.068,-0.226 0.069,-0.221C0.069,-0.215 0.07,-0.213 0.07,-0.212C0.07,-0.211 0.069,-0.207 0.067,-0.199C0.065,-0.191 0.067,-0.177 0.071,-0.156C0.076,-0.136 0.079,-0.125 0.081,-0.123C0.082,-0.121 0.087,-0.112 0.096,-0.096C0.105,-0.079 0.113,-0.069 0.119,-0.065C0.126,-0.059 0.138,-0.052 0.153,-0.043C0.169,-0.034 0.179,-0.03 0.184,-0.03ZM0.332,-0.275C0.332,-0.283 0.329,-0.292 0.324,-0.304C0.319,-0.315 0.315,-0.326 0.313,-0.336C0.312,-0.346 0.31,-0.353 0.307,-0.358C0.304,-0.363 0.297,-0.367 0.288,-0.369C0.278,-0.372 0.269,-0.373 0.261,-0.373C0.252,-0.373 0.244,-0.371 0.236,-0.367L0.224,-0.355C0.21,-0.342 0.201,-0.331 0.197,-0.322C0.193,-0.313 0.189,-0.302 0.185,-0.29C0.18,-0.277 0.176,-0.266 0.172,-0.257C0.169,-0.249 0.167,-0.234 0.167,-0.214L0.165,-0.174C0.165,-0.164 0.167,-0.153 0.171,-0.138C0.176,-0.124 0.179,-0.11 0.181,-0.096C0.183,-0.082 0.188,-0.07 0.197,-0.061C0.206,-0.052 0.223,-0.045 0.25,-0.041C0.258,-0.041 0.267,-0.043 0.276,-0.047C0.286,-0.052 0.293,-0.057 0.296,-0.063C0.304,-0.072 0.312,-0.094 0.319,-0.129C0.327,-0.163 0.332,-0.184 0.333,-0.192C0.333,-0.199 0.334,-0.209 0.334,-0.221L0.332,-0.262L0.332,-0.275ZM0.45,-0.251C0.45,-0.246 0.451,-0.227 0.454,-0.193C0.454,-0.168 0.449,-0.143 0.438,-0.117C0.428,-0.092 0.417,-0.071 0.404,-0.054C0.392,-0.038 0.373,-0.025 0.346,-0.016C0.34,-0.015 0.327,-0.01 0.305,-0C0.284,0.009 0.264,0.013 0.245,0.014C0.225,0.014 0.212,0.013 0.204,0.011C0.196,0.009 0.182,0.004 0.161,-0.005C0.139,-0.014 0.125,-0.021 0.12,-0.024C0.115,-0.027 0.108,-0.034 0.099,-0.045C0.09,-0.056 0.083,-0.065 0.079,-0.074C0.056,-0.104 0.045,-0.126 0.045,-0.143C0.037,-0.174 0.033,-0.195 0.033,-0.206C0.034,-0.217 0.039,-0.239 0.049,-0.27C0.053,-0.289 0.063,-0.306 0.081,-0.319C0.084,-0.32 0.088,-0.326 0.092,-0.334C0.097,-0.343 0.1,-0.349 0.102,-0.353C0.105,-0.358 0.113,-0.365 0.125,-0.372C0.138,-0.38 0.147,-0.387 0.154,-0.393C0.161,-0.4 0.173,-0.404 0.189,-0.408C0.206,-0.411 0.216,-0.413 0.221,-0.413L0.291,-0.409L0.309,-0.41C0.328,-0.41 0.35,-0.403 0.373,-0.388C0.396,-0.373 0.416,-0.352 0.431,-0.325C0.444,-0.307 0.45,-0.282 0.45,-0.251Z" style="fill-rule:nonzero;"/>
                    </g>
                    <g transform="matrix(103.725,0,0,64,615.237,817.217)">
                        <path d="M0.204,-0.37L0.214,-0.403C0.214,-0.411 0.209,-0.415 0.198,-0.415C0.207,-0.417 0.215,-0.417 0.223,-0.414C0.23,-0.411 0.234,-0.408 0.234,-0.403L0.234,-0.401L0.233,-0.4C0.228,-0.386 0.225,-0.376 0.224,-0.37L0.224,-0.357C0.222,-0.354 0.216,-0.346 0.205,-0.333L0.204,-0.37ZM0.207,-0.045C0.207,-0.069 0.205,-0.099 0.202,-0.136L0.202,-0.151C0.202,-0.2 0.207,-0.239 0.218,-0.27C0.221,-0.279 0.226,-0.287 0.233,-0.293C0.24,-0.299 0.249,-0.309 0.258,-0.322C0.268,-0.336 0.277,-0.346 0.286,-0.353C0.295,-0.36 0.308,-0.363 0.326,-0.363C0.313,-0.36 0.303,-0.353 0.296,-0.344C0.288,-0.335 0.281,-0.326 0.274,-0.316C0.268,-0.307 0.262,-0.301 0.257,-0.296C0.241,-0.283 0.232,-0.263 0.228,-0.234C0.224,-0.205 0.222,-0.178 0.222,-0.151L0.222,-0.136L0.221,-0.074C0.222,-0.057 0.221,-0.046 0.219,-0.042C0.217,-0.038 0.216,-0.035 0.218,-0.032C0.211,-0.032 0.207,-0.037 0.207,-0.045ZM0.495,-0.093L0.493,-0.057C0.493,-0.056 0.494,-0.054 0.495,-0.05C0.483,-0.047 0.476,-0.047 0.475,-0.049C0.474,-0.053 0.473,-0.056 0.473,-0.057L0.475,-0.093L0.474,-0.123C0.474,-0.131 0.475,-0.141 0.477,-0.152L0.475,-0.223C0.475,-0.236 0.476,-0.254 0.479,-0.278C0.479,-0.295 0.473,-0.316 0.462,-0.341C0.454,-0.361 0.439,-0.381 0.416,-0.399C0.413,-0.401 0.41,-0.403 0.405,-0.407C0.401,-0.411 0.397,-0.414 0.394,-0.416C0.391,-0.418 0.383,-0.421 0.37,-0.425C0.394,-0.422 0.417,-0.413 0.438,-0.396C0.46,-0.38 0.474,-0.362 0.482,-0.341C0.483,-0.337 0.486,-0.329 0.491,-0.317C0.496,-0.306 0.499,-0.292 0.499,-0.278C0.496,-0.254 0.495,-0.236 0.495,-0.223L0.497,-0.152C0.495,-0.141 0.494,-0.132 0.494,-0.123L0.495,-0.093ZM0.384,-0.303C0.384,-0.309 0.402,-0.312 0.437,-0.312C0.435,-0.319 0.433,-0.324 0.43,-0.328L0.421,-0.328C0.399,-0.328 0.388,-0.331 0.388,-0.337C0.388,-0.343 0.391,-0.347 0.398,-0.348C0.405,-0.348 0.411,-0.349 0.415,-0.35C0.412,-0.354 0.403,-0.359 0.39,-0.365C0.376,-0.372 0.367,-0.376 0.363,-0.379C0.364,-0.372 0.366,-0.362 0.367,-0.349C0.368,-0.336 0.37,-0.325 0.373,-0.316C0.375,-0.307 0.376,-0.281 0.376,-0.239L0.384,-0.141L0.385,-0.109L0.382,-0.063C0.382,-0.056 0.384,-0.051 0.389,-0.047C0.393,-0.043 0.397,-0.041 0.401,-0.041C0.405,-0.041 0.411,-0.043 0.419,-0.046C0.427,-0.049 0.433,-0.054 0.436,-0.059C0.42,-0.059 0.411,-0.06 0.409,-0.061C0.407,-0.062 0.406,-0.065 0.407,-0.068C0.407,-0.072 0.408,-0.075 0.411,-0.077C0.413,-0.079 0.424,-0.08 0.443,-0.08L0.442,-0.094C0.439,-0.094 0.427,-0.093 0.408,-0.093C0.406,-0.093 0.405,-0.094 0.403,-0.098C0.402,-0.101 0.402,-0.104 0.403,-0.106L0.442,-0.114L0.442,-0.126L0.415,-0.125C0.408,-0.124 0.404,-0.129 0.404,-0.139L0.441,-0.145L0.441,-0.165C0.419,-0.165 0.408,-0.165 0.406,-0.164C0.403,-0.163 0.401,-0.166 0.401,-0.173C0.401,-0.181 0.403,-0.186 0.407,-0.187C0.411,-0.188 0.414,-0.188 0.415,-0.188C0.416,-0.189 0.42,-0.189 0.428,-0.19L0.44,-0.19C0.44,-0.198 0.44,-0.204 0.439,-0.208L0.4,-0.208C0.398,-0.208 0.398,-0.21 0.398,-0.215C0.399,-0.22 0.4,-0.224 0.401,-0.226C0.402,-0.228 0.408,-0.229 0.418,-0.229C0.428,-0.229 0.435,-0.229 0.438,-0.228L0.438,-0.248C0.435,-0.247 0.429,-0.247 0.419,-0.248C0.41,-0.249 0.404,-0.25 0.402,-0.25C0.401,-0.251 0.401,-0.254 0.404,-0.259C0.406,-0.264 0.409,-0.267 0.411,-0.268L0.424,-0.268C0.433,-0.269 0.437,-0.269 0.438,-0.269L0.44,-0.291L0.401,-0.289C0.389,-0.289 0.384,-0.294 0.384,-0.303ZM0.17,-0.08L0.17,-0.095C0.162,-0.094 0.15,-0.093 0.134,-0.093C0.132,-0.093 0.13,-0.094 0.129,-0.098C0.128,-0.101 0.128,-0.104 0.129,-0.105C0.13,-0.107 0.135,-0.109 0.146,-0.11C0.157,-0.112 0.165,-0.112 0.172,-0.112L0.173,-0.126L0.15,-0.126C0.146,-0.126 0.142,-0.128 0.137,-0.131C0.133,-0.134 0.13,-0.137 0.13,-0.139C0.13,-0.142 0.133,-0.144 0.139,-0.145L0.172,-0.147C0.172,-0.156 0.172,-0.162 0.171,-0.164L0.132,-0.164C0.129,-0.162 0.127,-0.165 0.127,-0.172C0.127,-0.18 0.127,-0.183 0.128,-0.184C0.129,-0.185 0.131,-0.185 0.133,-0.186C0.136,-0.186 0.138,-0.187 0.141,-0.188C0.143,-0.189 0.152,-0.19 0.167,-0.19L0.167,-0.208L0.126,-0.208C0.124,-0.208 0.124,-0.21 0.124,-0.215C0.125,-0.22 0.126,-0.224 0.128,-0.227C0.13,-0.229 0.142,-0.23 0.165,-0.228C0.164,-0.233 0.164,-0.24 0.164,-0.249C0.16,-0.248 0.154,-0.248 0.145,-0.248C0.136,-0.248 0.131,-0.249 0.129,-0.25C0.127,-0.251 0.127,-0.254 0.13,-0.259C0.132,-0.264 0.135,-0.267 0.137,-0.268L0.164,-0.269L0.166,-0.291L0.133,-0.289C0.13,-0.289 0.127,-0.294 0.125,-0.303C0.123,-0.306 0.128,-0.309 0.139,-0.311L0.167,-0.312L0.167,-0.328L0.153,-0.328C0.139,-0.328 0.13,-0.33 0.127,-0.333C0.125,-0.336 0.124,-0.339 0.125,-0.342C0.127,-0.345 0.129,-0.347 0.132,-0.348L0.168,-0.352C0.167,-0.366 0.159,-0.373 0.143,-0.373C0.141,-0.373 0.133,-0.374 0.121,-0.375C0.109,-0.376 0.102,-0.376 0.1,-0.375L0.103,-0.344L0.099,-0.278C0.1,-0.263 0.101,-0.245 0.101,-0.226L0.109,-0.117L0.105,-0.058L0.106,-0.041C0.106,-0.039 0.118,-0.036 0.142,-0.032C0.14,-0.034 0.139,-0.036 0.14,-0.039C0.142,-0.049 0.153,-0.053 0.174,-0.05C0.174,-0.05 0.174,-0.052 0.173,-0.054C0.173,-0.056 0.173,-0.057 0.173,-0.058C0.168,-0.057 0.161,-0.058 0.152,-0.059C0.142,-0.06 0.137,-0.061 0.135,-0.062C0.133,-0.063 0.132,-0.065 0.132,-0.068C0.133,-0.072 0.134,-0.075 0.137,-0.077C0.139,-0.079 0.15,-0.08 0.17,-0.08ZM0.071,-0.362C0.065,-0.371 0.056,-0.376 0.043,-0.376C0.031,-0.376 0.023,-0.378 0.018,-0.383C0.014,-0.387 0.011,-0.392 0.011,-0.396C0.011,-0.401 0.014,-0.407 0.019,-0.413C0.023,-0.42 0.028,-0.423 0.031,-0.423L0.079,-0.412L0.136,-0.415C0.141,-0.414 0.153,-0.414 0.172,-0.414L0.188,-0.414C0.202,-0.414 0.206,-0.408 0.202,-0.396C0.198,-0.385 0.195,-0.376 0.194,-0.37C0.194,-0.336 0.195,-0.316 0.198,-0.312C0.2,-0.312 0.204,-0.318 0.211,-0.33C0.219,-0.341 0.227,-0.352 0.235,-0.362C0.244,-0.372 0.266,-0.389 0.3,-0.414C0.31,-0.421 0.322,-0.425 0.335,-0.425L0.34,-0.425C0.364,-0.422 0.387,-0.413 0.408,-0.396C0.43,-0.38 0.444,-0.362 0.452,-0.341C0.453,-0.337 0.457,-0.329 0.461,-0.318C0.466,-0.307 0.469,-0.294 0.469,-0.278C0.467,-0.254 0.465,-0.236 0.465,-0.223L0.467,-0.152C0.465,-0.14 0.464,-0.131 0.464,-0.123L0.465,-0.093L0.463,-0.057C0.463,-0.054 0.464,-0.05 0.465,-0.046C0.467,-0.043 0.471,-0.042 0.476,-0.042L0.492,-0.044L0.496,-0.045C0.506,-0.044 0.51,-0.036 0.51,-0.021C0.51,-0.012 0.502,-0.006 0.486,-0.004L0.456,-0L0.41,-0.007L0.357,-0C0.353,-0 0.349,-0.002 0.344,-0.007C0.34,-0.011 0.339,-0.018 0.341,-0.027C0.343,-0.036 0.345,-0.043 0.349,-0.048C0.352,-0.054 0.353,-0.059 0.353,-0.065L0.349,-0.111L0.352,-0.182C0.352,-0.255 0.349,-0.305 0.343,-0.334L0.341,-0.347C0.341,-0.355 0.339,-0.36 0.336,-0.362C0.333,-0.364 0.331,-0.366 0.328,-0.367C0.325,-0.368 0.319,-0.369 0.31,-0.369C0.292,-0.369 0.272,-0.355 0.252,-0.326C0.242,-0.312 0.233,-0.302 0.224,-0.294C0.204,-0.276 0.193,-0.228 0.192,-0.151L0.192,-0.136C0.193,-0.122 0.194,-0.101 0.196,-0.073C0.197,-0.046 0.198,-0.031 0.2,-0.03C0.202,-0.029 0.207,-0.028 0.216,-0.027C0.224,-0.026 0.228,-0.023 0.228,-0.018C0.227,-0.008 0.217,-0.002 0.2,0.001L0.166,0.005C0.163,0.005 0.157,0.004 0.148,0.002C0.14,0 0.13,-0.001 0.119,-0.001L0.091,-0L0.053,-0.001C0.04,-0.001 0.033,-0.008 0.033,-0.021C0.036,-0.037 0.043,-0.046 0.052,-0.047L0.058,-0.047C0.071,-0.047 0.077,-0.051 0.077,-0.06L0.077,-0.184C0.077,-0.206 0.077,-0.224 0.078,-0.24L0.077,-0.278L0.078,-0.318C0.078,-0.333 0.076,-0.347 0.071,-0.362Z" style="fill-rule:nonzero;"/>
                    </g>
                </g>
                <g transform="matrix(1.04986,0,0,1.00333,-23.8016,-738.278)">
                    <rect x="575.077" y="801" width="317.923" height="50" style="fill-opacity:0;"/>
                </g>
            </g>
        </g>
    </g>
</svg>
